<?xml version="1.0" encoding="UTF-8"?><svg id="Ebene_1" xmlns="http://www.w3.org/2000/svg" viewBox="0 0 46.35 43.31"><defs><style>.cls-1{fill:#d30647;stroke-width:0px;}</style></defs><path class="cls-1" d="M28.51,31.36c1.17-.35,2.37-2.06,1.79-2.5-1.31.77-1.42,1.61-1.79,2.5M21.91,12.17c-1.9,1.63.79,4.1,3.03,3.63-1.8-1.04-1.4-2.34-3.03-3.63M28.92,13.92c-.31.31-.61.82-.6,1.26.57-.08.81-.75.6-1.26M35.78,29.03c.32-.13.66-.21.91-.46.24-.23.32-.42-.05-.39-.27.02-1.32.58-.87.85M31.7,14.95c.31-.27,0-1.57-.45-1.86-.27.3.03,1.51.45,1.86M29.9,18.84l.07.06c.97-.69,1.76-1.53,2.2-2.66-.31.3-.49.5-.89.69-.3.14-.36.14-.41.42-.06.3-.02.4-.25.67-.23.28-.48.55-.72.82M31.8,20.94l-.07-.07c-1.09.52-2.02,1.28-2.92,2.07.51.04,1.15-.55,1.54-.83.47-.34,1.15-.68,1.45-1.18M24.99,31.97c.14,0,.28,0,.42,0,.18-.66-.47-1.38-.89-2.03-.39-.61-.63-1.48-1.7-2.01-.24,1.42.5,2.76,2.18,4.05M28.68,16.56s0-.08-.01-.12c-.43-.28-.8-.36-1.32-.3-.34.04-1.1.15-1,.6.21.92,1.93,0,2.34-.19M25.72,12.33c-.48.08-.92.19-1.3.52-.34.3-.64.82.06.77.67-.05,2.8-.9,1.23-1.29M24.24,11.62s.04.06.07.09c.56-.28,1.05-.62,1.58-.94.18-.11.31-.24.53-.18.27.06.31.37.65.29.19-.05.32-.14.26-.34-.05-.17-.28-.13-.42-.16-.49-.11-.32-.3-.38-.77-.94.21-1.8,1.24-2.3,2.01M30.47,14.2l-.12-.02c-.43.58-.66,1.28-1.08,1.86-.15.21-.79,1.05-.32,1.27.4.2,1.08-.97,1.2-1.24.27-.6.33-1.24.33-1.88M25.4,23.66c.43,0,.92-.03,1.26-.32.31-.26.43-.61-.04-.73-.79-.19-2.19-.07-2.8.47.42.44.96.59,1.58.57M23.13,7.3c.15.33.34.19.61.02.34-.21.68-.43,1.01-.65.25-.17,1.25-.69.98-1.06-.37-.48-1.4-.05-1.74.21-.47.37-.76.89-.86,1.47M31.96,12.05c-.39-.64-.91-1.19-1.51-1.64-.55-.41-1.44-1.07-2.15-.85.22.68,1.05,1.15,1.64,1.53.56.36,1.34.96,2.02.96M34.28,14.61s-.04,0-.05,0c.14.96.08,2.64.83,3.34.29-.45.3-1.11.41-1.64.1-.5.15-1.01.05-1.51-.08-.38-.28-.87-.72-.97-.58-.13-.51.4-.51.78M13.63,9.58c-.21.04-.43.05-.63.12-.71.22-1.43.45-2.13.7-.32.12-.32.27-.04.47.62.44,1.24.89,1.87,1.32.13.09.32.18.45.14.09-.03.15-.26.16-.41.07-.68.19-1.35.55-1.96.18-.3.13-.36-.23-.38M20.74,12.11s.05,0,.08,0c.66-.86,1.38-1.44,2.38-1.9.49-.22,1.02-.38,1.51-.63.61-.31.12-.47-.33-.58-1.06-.26-1.96-.39-2.79.46-.67.69-.99,1.7-.84,2.64M24.56,21.87c.43.36,1.55-.06,2.02-.17.78-.18,1.54-.36,2.28-.67.8-.34,1.57-.73,2.34-1.11.65-.32,1.48-.6,2-1.11-.76.03-1.56.38-2.27.62-.7.23-1.44.38-2.13.67-1.4.57-2.92,1.05-4.23,1.78M37.42,6.52c-.35,0-.53.15-.64.45-.05.14-.16.57-.03.7.16.17.35-.03.53.06.29.15.01.42-.13.62-.23.32-.86,1.29-.64,1.71.15.3.36.08.58.18.33.15.06.27.02.58-.05.36.88,1.56,1.24,1.15.32-.37-.07-1.7-.13-2.13-.07-.5.21-3.54-.78-3.32M28.54,7.65c-.42.03-.74.03-1.1.25.86,1.05,2.65.74,3.72,1.53.54.4.89,1,1.18,1.59.16.32.29.66.49.96.13.2.41.68.63.77.46.18-.1-1.31-.19-1.57-.23-.68-.52-1.33-.85-1.97-.66-1.3-2.55-1.54-3.89-1.56M24.43,7.8c.68.29,1.15-.04,1.75-.32.37-.17,1.16-.22,1.39-.58.12-.18-.02-.51.23-.59.18-.06.54.23.68.31.55.3,1.05.28,1.66.35.98.1,1.95.38,2.6,1.15.35.41.49,1,.83,1.39.31.35.54-.1.77.15.26.29-.22.96.39.99.36.02,1.01-.36,1.13-.68.36-.9-.45-1.9-1.17-2.35-.48-.3-1.03-.54-1.58-.69-.57-.15-1.15-.14-1.72-.3-.99-.28-1.6-1.22-2.62-1.42-.38-.07-1.08-.13-1.39.13-.16.13-.1.32-.21.47-.11.16-.24.18-.41.25-.96.39-1.61,1.02-2.35,1.73M30.47,23.4s.06.08.09.11c.64-.22,1.25-.51,1.87-.78.59-.25,1.22-.43,1.75-.81.94-.69,1.48-1.75,2.52-2.33,1.06-.59,1.44-1.45,1.58-2.65.13-1.12-.02-2.33-.42-3.38-.33-.87-.9-1.9-1.92-2.06-.36-.06-1.08-.03-1.21.39-.12.36.29.95.64,1.03.26.06.54-.1.78.06.16.11.26.41.32.58.2.53.16,1.06.11,1.61-.13,1.22-.51,2.25-1.16,3.29-1.25,1.99-3.18,3.41-4.93,4.94M36.09,6.2c-.17-.52-.29-.87-.83-1.1-.36-.15-.72-.2-.98-.53-.48-.6-.25-1.86-1.34-1.64-.85.17-1.61.23-2.32-.38-.62-.54-.95-1.5-1.93-1.51-.47,0-.89.35-1.34.46-.45.12-.89.19-1.31.41-.52.27-.32.46.04.82.31.32.61.73.98.99.4.28.93.25,1.4.34.44.09.87.22,1.28.42.8.39,1.48.99,2.29,1.36.83.38,1.76.4,2.55.85.26.15.89.67,1.2.53.29-.13.27-.77.32-1.03M39.28,11.25s-.06.01-.09.02c.15,1.45.62,2.89.55,4.35-.07,1.39-.5,2.74-1,4.03-.46,1.18-.99,2.33-1.4,3.53-.22.63-.41,1.27-.53,1.92-.06.32-.32,1.31-.02,1.54.58.46,2.18-1.66,2.43-2.06.65-1.01.22-2.16.4-3.29.19-1.2.74-2.29,1.35-3.33.31-.52.64-1.03.99-1.52.24-.33.54-.66.55-1.1.01-.41-.23-.66-.58-.84-.61-.3-.77-.68-1.08-1.26-.15-.28-.23-.38-.5-.52-.17-.09-.32-.1-.45-.27-.28-.36-.25-.89-.62-1.21M21.25,33.8c-3.13-2.79-6.34-5.66-8.28-9.43-.42-.82-.69-1.69-1.07-2.53-.35-.78-.87-1.48-1.36-2.18-.54-.76-1.13-1.53-1.38-2.45-.18-.68-.43-1.34-1.31-1.01-1.44.53-2.09,2.37-1.78,3.76.09.4.32.75.41,1.15.08.38-.03.67-.07,1.04-.08.82.5,1.44,1.22,1.74.33.14.67.19.86.52.22.37.28.94.38,1.35.16.67.29,1.34.72,1.9.49.65,1.27,1.04,2.03,1.28.69.22,1.2.07,1.42.85.23.82.89,1.16,1.57,1.65.34.24.65.5.9.83.24.31.38.65.79.77.39.11.83,0,1.22-.03.46-.02.92,0,1.36.1.46.1.88.3,1.31.49.31.14.7.41,1.03.19M19.22,7.62s-.03-.06-.05-.09c1.23-.79,2.56-1.38,3.79-2.18.51-.33.96-.8,1.61-.79.39,0,1.29.21,1.46-.31.14-.44-.51-.83-.83-.92-.43-.13-.83,0-1.26,0-.58-.02-1.11-.2-1.69-.07-.63.15-1.16.34-1.82.3-1.07-.07-2.36-.63-2.6.82-.2,1.19-1.29,1.48-2.17,2.17-.36.28-.65.6-.64,1.08.01.58.28,1.02.11,1.62-.17.64-.62,1.19-.92,1.77-.13.26-.28.51-.23.81.02.15.19.58.4.59.34,0,.62-1.09.72-1.33.23-.52.5-1.02.85-1.46.67-.85,1.55-1.43,2.6-1.73-.06.51-.97,1.11-1.29,1.52-.43.54-.76,1.16-1,1.81-.23.63-.35,1.29-.42,1.96-.07.59-.13,1.03-.78.64-1.17-.71-2.41-.63-3.64-.02-.99.5-1.96,1.38-2.04,2.54-.07,1.13,1.49,1.92,2.22,2.59.51.47,1.03.96,1.5,1.48.32.36.56.78.92,1.1.95.85,2.05,1.57,3.04,2.38.86.7,1.99,1.74,3.15,1.91.71.1,1-.45,1.6-.64.52-.16.98.26,1.48.38,1.17.29,2.31-.49,3.49-.23.63.14,1.23.6,1.78.91.56.33,1.12.67,1.68.99,1.01.58,2.1,1.11,3.25,1.36.51.11,1.26-.11,1.56-.58.29-.45-.16-.75-.51-.94-1.08-.59-2.32-.88-3.5-1.18-2.62-.67-5.26-1.26-7.87-1.96-1.3-.35-2.59-.7-3.85-1.15-1.09-.39-2.45-.79-3.33-1.57-.95-.84-1.22-1.85-1.23-3.06,0-1.06.05-2.54.89-3.28.46.52.54,1.27.83,1.91.29.62.67,1.2,1.04,1.78.74,1.15,1.84,2.23,3.17,2.7.02-.02.03-.04.05-.06-.66-.82-1.43-1.5-2.03-2.37-.63-.91-1.1-1.94-1.3-3.02-.2-1.08-.09-2.18.29-3.2.18-.49,1.06-2.15,1.2-.8.1,1,.17,1.98.36,2.97.09.45.1,1.07.32,1.48.15.28.45.32.66.55.66.72.9,1.75,1.71,2.36.7.52,1.65.85,2.52.95.48.06.45-.19.83-.36.25-.11.66.19.78-.13.12-.33-.55-.67-.37-.97.15-.25.91-.01,1.14.02.34.05,2.48.17,1.47-.52-.41-.28-.97-.48-1.42-.66-.41-.17-.82-.13-1.26-.2-.47-.07-.9-.33-1.35-.39-.18-.02-1.21-.02-1.32.11-.21.25.48.51.64.59.33.16.7.26.84.64.1.29.1.68-.25.67-.33-.01-.89-.55-1.15-.73-.78-.53-1.6-1.06-2.29-1.71-1.47-1.39-1.55-3.14-.94-4.98.16-.48.31-.64-.05-1.02-.28-.3-.36-.47-.06-.8.67-.72,1.56-1.32,2.34-1.92,0-.03-.01-.06-.02-.08-.92-.33-1.85.04-2.77,0M30.19,0h2.61c.27.25,1.28.12,1.66.13.57.02,1.07.13,1.56.42.5.29.96.65,1.44.97.22.14.44.3.67.42.31.15.49.1.81.13.44.05.34.43.36.81.03.43.08.63.43.88.32.23.7.42.82.82.13.47.15.88.39,1.33.5.95,1.1,1.83,1.48,2.84.18.49.35,1.01.35,1.54,0,.44-.23.86-.1,1.3.26.88,1.33,1.62,1.97,2.22.62.58,1.51,1.26,1.16,2.22-.19.5-.67.81-1,1.21-.35.43-.2.65.13,1.04.33.39.67.83.66,1.36,0,.46-.31.92-.49,1.33.67.53,1.24.94.99,1.87-.12.45-.3.74-.19,1.22.11.47.29.92.44,1.38v.87c-.18.33-.23.67-.47.97-.27.34-.65.58-1.03.77-.83.43-1.72.74-2.56,1.14-.69.32-1.43.83-2,1.32-.62.53-1,1.29-1.61,1.84-.76.68-1.52.74-2.48.66-.31-.02-.42-.1-.3.21.12.3.49.65.71.9,1.01,1.17,1.34,3.38.23,4.62-.12-.33-.05-.34-.56-.51-.38-.13-.75-.42-1.07-.65-.73-.51-1.42-1.09-2.03-1.73.35,1.65,1.11,3.18,1.11,4.89-.29-.47-.55-.97-.9-1.4-.37-.45-.74-.49-1.25-.7-1.04-.43-1.51-1.45-2.03-2.36.07.63.32,1.22.35,1.86.03.64-.18,1.19-.44,1.76-.53,1.14-.84,2.18-1.07,3.41h-.19c-.4-.96-.38-2.16-.93-3.03-.29-.45-.82-2-.67-1.65-.28-.67-.5-1.37-.81-2.04-.09-.2-.44-1.12-.77-1.03-.32.09-.65,1.22-.78,1.5-.27.57-.52,1.15-.86,1.69-.32.51-.74.94-1.18,1.36-.37.35-.7.77-1.18.97-1.09.46-1.81,1.05-2.59,1.92.28-1.4.52-2.81.97-4.18.23-.7.5-1.39.83-2.06.28-.58.67-1.15.67-1.81-.05-.03-.1-.06-.15-.09-.75,1.29-1.85,1.58-3.29,1.71-.71.06-1.44.05-2.11.33-.32.13-.49.27-.72.51-.23.23-.49.46-.82.27.31-.61.35-1.21.42-1.88.07-.64.25-1.08.6-1.61-.94.36-1.73,1.34-2.79,1.37.23-.16.41-.28.59-.4l-.02-.06c-.89.07-1.64.21-2.52-.02-.83-.21-1.68-.32-2.52-.51-.81-.18-1.52-.67-2.36-.73-.89-.07-1.6.35-2.37.71.94-3.09,4.39-3.91,7.15-4.68-.74-.39-1.59-.39-2.39-.73.13-.06.2-.1.31-.15-.47-.25-1.01-.3-1.52-.44-.55-.15-1.08-.35-1.61-.53.21-.1.34-.16.52-.24-.47-.17-.87-.32-1.28-.46,0-.02.02-.03.02-.05.1-.02.21-.04.31-.06v-.07c-.27-.19-.81-.38-.98-.68-.05-.08,0-.19-.04-.27-.06-.11-.2-.22-.28-.32-.23-.25-.45-.51-.68-.76-.94-1.05-1.92-2.05-2.92-3.05v-.14c.73-.06,1.47.77,2.22.55.3-.09.47-.31.8-.39.38-.08.75-.17,1.12-.27-.1-.12-.15-.18-.19-.23.45-.28,1.07-.03,1.51-.49-.48-.41-3.2-1.34-2.06-2.23-.31-.36-.58-.71-.81-1.13-.27-.49-.3-.64.31-.49-.19-.34-1.25-1.39-.44-1.45-.31-.55-.81-1.21-.91-1.84.1-.01.16-.03.24-.04-.18-.79-.79-1.33-1.18-2.03.43,0,.87.27,1.27.41.47.17.72.06,1.17.03.59-.04,1.24.11,1.83.18.21.03,1.16.29.96-.16.48.05.95.09,1.41.14.01-.03.03-.06.04-.08-.08-.09-.16-.18-.27-.3.5,0,.92.16,1.41.26.32.06.51.08.45-.3.94.2,1.79.71,2.79.71-.36-.62-.96-.94-1.54-1.34-.61-.43-.86-.81-.93-1.54,1.21-.03,2.35-.4,3.49-.76.37-.12.97-.18,1.29-.41.27-.19.23-.57.26-.86.04-.47,0-.97.31-1.36.31-.4.82-.7,1.21-1.01.39-.31.91-.61,1.14-1.06.2-.41.27-.82.58-1.18.66-.77,1.81-.87,2.76-.85,1.19.02,2.43.13,3.56-.31,1.03-.41,1.93-1.05,2.99-1.42,1.1-.38,2.24-.49,3.38-.66"/></svg>