<svg xmlns="http://www.w3.org/2000/svg" version="1.1" xmlns:xlink="http://www.w3.org/1999/xlink" xmlns:svgjs="http://svgjs.com/svgjs" width="360.000000pt" height="360.000000pt"><svg version="1.0" xmlns="http://www.w3.org/2000/svg" width="360.000000pt" height="360.000000pt" viewBox="0 0 360.000000 360.000000" preserveAspectRatio="xMidYMid meet">
<metadata>
Created by potrace 1.14, written by Peter Selinger 2001-2017
</metadata>
<g transform="translate(0.000000,360.000000) scale(0.100000,-0.100000)" fill="#000000" stroke="none">
<path d="M3229 3586 c8 -9 8 -16 2 -20 -6 -4 -8 -12 -5 -20 3 -7 -7 -25 -22
-39 -15 -15 -23 -27 -19 -27 5 0 -2 -11 -15 -25 -14 -15 -40 -28 -62 -31 -21
-4 -38 -10 -38 -15 0 -5 -11 -9 -24 -9 -14 0 -41 -15 -63 -35 -25 -23 -33 -35
-22 -35 9 0 22 7 29 15 14 17 50 20 50 4 0 -6 -5 -19 -11 -31 -6 -11 -8 -22
-5 -25 9 -9 64 17 70 33 3 8 13 14 22 14 13 0 15 -6 9 -27 -3 -16 -14 -36 -22
-46 -21 -22 -12 -30 20 -18 18 7 28 7 33 0 3 -6 18 -9 33 -6 l26 5 -30 -24
c-16 -13 -24 -24 -17 -24 7 0 12 -14 12 -35 0 -24 5 -35 15 -35 16 0 20 12 8
24 -14 14 -13 47 2 52 22 9 47 -15 40 -37 -4 -11 -3 -19 2 -19 13 0 34 40 28
50 -4 6 -2 10 3 10 6 0 13 -8 16 -17 12 -30 27 7 20 47 -5 29 -4 33 7 23 18
-18 29 -16 29 5 0 10 11 25 25 32 14 7 25 19 25 27 0 7 7 13 16 13 10 0 14 6
10 15 -4 11 1 15 19 15 14 0 25 5 25 11 0 6 7 8 16 5 9 -4 23 -1 30 5 8 7 29
9 49 6 l35 -6 0 105 0 104 -191 0 c-164 0 -190 -2 -180 -14z m71 -356 c0 -5
-4 -10 -10 -10 -5 0 -10 5 -10 10 0 6 5 10 10 10 6 0 10 -4 10 -10z"></path>
<path d="M1730 3472 c20 -7 -115 -51 -146 -47 -13 1 -24 -1 -24 -5 0 -3 -18
-16 -40 -29 -47 -26 -50 -33 -12 -26 l27 5 -25 -11 c-14 -6 -34 -15 -45 -19
-60 -24 -115 -53 -115 -61 0 -5 -21 -31 -47 -57 -48 -49 -54 -56 -86 -102 -9
-13 -17 -20 -17 -15 0 6 -5 3 -10 -5 -5 -8 -14 -16 -20 -16 -5 -1 -16 -2 -22
-3 -23 -2 -170 -150 -162 -163 5 -7 3 -8 -5 -4 -8 5 -14 1 -18 -12 -3 -14 -10
-19 -21 -15 -10 4 -14 3 -11 0 3 -4 -12 -26 -34 -49 -22 -23 -45 -55 -53 -72
-7 -17 -13 -28 -14 -24 0 5 -11 -2 -25 -14 -15 -13 -28 -37 -31 -60 -6 -34
-14 -43 -36 -39 -5 0 -8 -6 -8 -15 0 -9 -9 -29 -21 -45 -11 -16 -16 -29 -10
-29 6 0 11 -7 11 -15 0 -8 -4 -15 -10 -15 -5 0 -10 -4 -10 -10 0 -5 8 -10 18
-10 14 0 15 -2 2 -10 -13 -8 -13 -10 2 -10 30 0 30 -20 -1 -26 -28 -6 -53 -34
-29 -34 16 0 3 -11 -19 -15 -10 -2 -20 -4 -23 -5 -3 -1 11 -8 30 -15 l35 -13
-37 -1 c-20 -1 -40 -5 -43 -11 -3 -5 -1 -10 6 -10 7 0 10 -2 7 -5 -3 -3 -27 0
-55 6 -42 10 -55 9 -86 -6 -20 -9 -37 -21 -37 -26 0 -16 30 -9 62 14 21 15 32
18 35 10 2 -7 21 -17 40 -24 32 -10 35 -13 20 -24 -23 -17 -21 -25 6 -25 20 0
20 -2 -11 -28 -22 -19 -31 -34 -26 -45 3 -10 1 -17 -5 -17 -6 0 -11 -7 -11
-15 0 -8 5 -15 11 -15 5 0 8 -4 5 -8 -2 -4 -1 -14 4 -22 7 -11 3 -19 -13 -28
-19 -11 -19 -12 -2 -7 11 4 34 9 52 12 29 5 51 28 38 41 -3 3 -5 0 -5 -6 0 -7
-5 -12 -12 -12 -6 0 -4 8 7 20 13 14 25 18 48 13 26 -5 29 -4 24 12 -7 16 -3
17 38 11 25 -4 45 -4 44 1 -3 20 2 34 10 28 5 -3 12 -1 15 4 11 17 79 24 91 9
5 -8 19 -15 30 -15 18 -2 40 -6 130 -27 23 -6 26 -5 15 3 -12 9 -11 11 8 11
12 0 30 9 39 20 10 11 23 20 31 20 7 0 15 7 18 15 4 10 17 15 38 13 17 -1 37
2 44 6 7 4 22 0 34 -8 15 -11 26 -12 40 -5 10 5 23 7 29 3 6 -4 15 -1 19 7 10
15 50 20 50 6 0 -5 8 -7 19 -4 14 3 17 0 14 -13 -3 -10 0 -21 6 -24 7 -4 11 1
11 12 0 18 5 19 43 15 23 -3 56 -11 74 -19 17 -8 38 -14 47 -14 10 0 13 -6 10
-15 -4 -10 0 -15 13 -15 29 0 44 -20 32 -42 -6 -10 -7 -29 -4 -41 6 -21 6 -22
-10 -3 -12 16 -18 17 -27 8 -9 -9 -9 -12 1 -12 15 0 50 -39 51 -57 0 -6 -8
-14 -17 -16 -14 -4 -15 -5 -2 -6 11 -1 14 -9 11 -31 -2 -16 -9 -30 -14 -30 -5
0 -7 -4 -4 -9 4 -5 0 -12 -6 -14 -7 -3 1 -3 18 0 20 3 48 -3 78 -17 50 -22 56
-42 15 -45 -31 -3 -45 5 -28 16 11 7 10 9 -3 9 -21 0 -22 -4 -8 -30 8 -16 5
-20 -23 -26 -51 -12 -58 -15 -144 -56 -34 -16 -77 -44 -95 -63 -34 -34 -108
-59 -108 -36 0 6 -4 11 -9 11 -5 0 -7 -9 -4 -20 4 -14 0 -20 -12 -20 -17 0
-17 -1 -1 -19 17 -19 17 -20 -16 -24 l-33 -4 35 -3 35 -2 -30 -8 c-28 -7 -28
-8 -8 -15 11 -4 24 -14 27 -23 3 -10 11 -25 18 -35 11 -14 10 -19 -2 -28 -11
-8 -9 -9 10 -3 21 6 23 5 12 -8 -10 -13 -10 -17 3 -22 8 -3 15 -13 15 -22 0
-10 6 -14 14 -11 8 3 18 -4 24 -19 12 -26 63 -45 70 -26 2 7 11 12 19 12 11 0
13 -6 9 -20 -3 -11 -9 -29 -12 -40 -6 -19 14 -29 29 -14 3 4 34 8 68 11 43 3
67 10 76 21 8 12 12 13 13 4 0 -7 4 -10 10 -7 15 9 12 25 -5 25 -8 0 -15 4
-15 9 0 5 -16 12 -35 15 -29 6 -33 9 -22 20 6 8 14 11 17 7 3 -4 39 -2 80 5
41 8 81 11 88 9 7 -3 10 0 7 5 -3 6 4 10 16 10 28 0 119 32 119 42 0 5 -10 8
-22 9 -19 0 -17 3 12 17 19 9 38 21 41 26 4 4 16 5 27 2 13 -5 23 -2 29 8 6
11 13 12 23 6 13 -9 13 -11 0 -21 -12 -8 -10 -9 8 -4 16 5 22 2 22 -10 0 -11
-5 -15 -15 -11 -11 4 -15 -2 -15 -24 0 -20 5 -30 15 -30 12 0 13 -4 6 -19 -12
-21 -3 -35 13 -22 20 15 64 22 72 10 3 -6 15 -9 25 -6 11 3 19 1 19 -4 0 -10
43 -12 53 -2 4 3 2 12 -4 20 -14 16 2 18 18 2 7 -7 13 -7 17 -1 3 6 -7 13 -24
17 -31 7 -42 25 -14 25 8 0 12 5 9 11 -4 6 -10 8 -13 5 -8 -9 -33 15 -26 25 3
5 0 9 -5 9 -6 0 -11 5 -11 12 0 9 3 9 12 0 7 -7 23 -12 35 -12 22 0 24 3 19
40 -4 38 1 45 27 41 11 -2 8 14 -5 27 -8 8 -8 12 -1 12 16 0 32 -23 31 -45 0
-11 2 -41 5 -67 5 -38 3 -48 -8 -48 -8 0 -15 -5 -15 -10 0 -6 8 -10 18 -8 26
4 27 -48 2 -112 -20 -52 -67 -104 -102 -116 -10 -3 -18 -10 -18 -15 0 -6 -16
-17 -35 -25 -19 -8 -35 -19 -35 -24 0 -8 81 22 123 47 26 15 95 81 106 101 13
25 76 50 67 27 -3 -8 -1 -15 5 -15 6 0 7 -5 3 -12 -4 -6 1 -17 10 -24 16 -11
16 -13 -3 -19 -28 -9 -26 -23 4 -31 21 -5 25 -12 24 -38 0 -17 3 -49 7 -71 9
-50 1 -44 -19 15 -9 25 -16 36 -17 25 0 -16 -2 -17 -10 -5 -7 11 -12 12 -21 3
-16 -16 -3 -45 18 -41 14 2 18 -3 16 -24 -1 -20 2 -25 13 -21 8 3 14 1 14 -5
0 -5 -10 -13 -22 -16 -22 -7 -22 -7 -3 -16 16 -7 17 -9 3 -9 -10 -1 -19 -13
-23 -30 -3 -16 -13 -32 -21 -35 -9 -3 -13 -10 -9 -15 3 -5 1 -12 -5 -16 -6 -4
-8 -10 -5 -15 3 -5 1 -11 -5 -15 -5 -3 -10 -15 -10 -26 0 -11 -4 -17 -10 -14
-5 3 -10 2 -10 -4 0 -5 6 -12 13 -15 10 -5 10 -7 0 -12 -7 -3 -13 -17 -13 -30
0 -15 -6 -24 -15 -24 -8 0 -15 -4 -15 -10 0 -5 7 -7 15 -4 11 5 15 -1 15 -21
0 -20 -4 -26 -15 -21 -10 4 -15 -1 -15 -14 0 -11 -4 -20 -9 -20 -5 0 -11 -10
-15 -23 -4 -16 -8 -19 -15 -9 -6 10 -10 8 -15 -10 -5 -18 -8 -20 -15 -8 -5 8
-7 18 -5 22 3 4 3 8 0 8 -8 0 -36 -62 -36 -82 0 -10 -4 -18 -10 -18 -5 0 -10
-10 -10 -22 0 -28 -10 -42 -33 -51 -10 -4 -17 -12 -16 -19 2 -12 -3 -35 -18
-91 -2 -9 -9 -15 -14 -12 -5 4 -12 -2 -15 -12 -12 -40 -50 -110 -76 -138 -24
-26 -30 -28 -48 -18 -13 9 -27 10 -45 3 -34 -13 -32 -18 5 -12 25 4 29 1 24
-12 -3 -9 -18 -19 -33 -22 -14 -3 -39 -10 -55 -15 -16 -5 -41 -9 -57 -9 -15 0
-34 -7 -43 -15 -13 -14 -18 -13 -48 3 -21 12 -41 16 -53 12 -13 -5 -27 -1 -40
11 -48 44 -135 135 -135 141 -1 27 -128 178 -150 178 -7 0 -11 3 -7 6 3 4 -20
26 -51 49 -31 24 -73 57 -92 74 -19 17 -41 31 -47 31 -13 0 -18 -22 -8 -32 3
-3 6 -84 6 -179 0 -96 2 -181 5 -190 3 -12 17 -15 56 -15 59 1 58 2 108 -149
l27 -80 419 -3 c409 -2 483 0 455 18 -8 4 -10 13 -6 21 6 9 3 11 -8 6 -11 -4
-17 -1 -17 9 0 8 5 12 10 9 6 -3 10 -2 10 4 0 7 8 7 23 2 25 -10 53 5 55 29 1
8 3 26 4 40 2 20 -1 25 -18 23 -17 -2 -20 2 -16 22 2 14 11 25 19 25 10 0 13
-6 9 -16 -5 -14 -1 -16 21 -11 16 3 37 9 47 13 16 6 18 4 13 -10 -7 -19 4 -15
36 13 17 14 19 14 28 -1 5 -10 16 -15 23 -12 16 6 55 -12 71 -32 8 -10 17 -8
45 7 22 12 28 19 17 19 -25 0 -16 23 9 25 49 4 82 29 41 30 -7 1 -11 6 -9 13
1 7 -3 12 -9 12 -6 0 -9 9 -6 19 4 17 1 18 -17 12 -28 -11 -86 -2 -86 13 0 23
-22 36 -42 25 -12 -6 -18 -6 -18 1 0 5 -10 9 -22 9 -19 -1 -19 -2 -5 -6 18 -5
18 -6 1 -24 -19 -22 -50 -25 -57 -6 -2 6 -3 4 -2 -5 2 -9 -3 -19 -11 -22 -9
-3 -14 2 -14 14 0 25 -1 25 -45 0 -42 -24 -45 -24 -45 -6 0 22 -27 27 -33 5
-3 -12 -11 -17 -21 -13 -11 4 -13 11 -6 24 5 9 6 21 2 25 -4 5 1 5 10 2 9 -3
18 -1 20 5 2 6 24 10 48 10 67 0 90 6 90 26 0 13 2 14 9 4 14 -23 54 -10 62
20 5 20 4 25 -7 21 -20 -7 -17 7 4 23 24 19 63 18 56 -1 -4 -9 0 -15 10 -15
22 0 20 13 -4 35 -17 16 -24 16 -44 5 -26 -13 -56 -8 -56 10 0 5 9 10 20 10
22 0 27 15 9 26 -7 4 -16 -1 -21 -10 -10 -17 -28 -22 -28 -7 0 18 51 43 64 32
9 -7 16 -7 25 2 11 10 13 7 9 -15 -5 -26 -3 -28 30 -28 29 0 33 -2 22 -15 -8
-10 -9 -15 -2 -15 6 0 16 9 22 19 8 16 6 21 -8 25 -9 3 -4 4 11 2 18 -2 31 2
34 11 3 8 11 12 18 9 17 -6 27 18 13 32 -6 6 -6 12 1 16 6 4 11 0 11 -9 0 -38
16 -2 17 37 0 24 -1 33 -4 21 -2 -13 -10 -23 -17 -23 -13 0 -14 35 -7 243 1
56 20 64 22 10 1 -21 5 -51 9 -68 6 -25 8 -20 9 28 1 81 21 72 21 -10 1 -84
16 -66 21 24 4 64 -5 88 -22 63 -8 -11 -12 -12 -16 -2 -2 6 -16 12 -29 12 -22
0 -24 -4 -25 -45 -2 -65 -3 -68 -17 -73 -11 -3 -13 16 -11 94 1 55 -1 115 -5
134 -4 20 -3 47 3 63 8 22 8 27 -4 27 -18 0 -49 46 -40 60 3 5 18 7 32 4 24
-6 24 -5 13 16 -15 27 2 52 22 32 7 -7 15 -12 19 -12 9 0 20 57 20 98 -1 23 3
32 15 32 11 0 14 -5 10 -16 -4 -9 4 -28 19 -46 14 -16 25 -34 25 -40 0 -16 61
45 71 71 7 18 13 21 21 13 9 -9 9 -17 0 -34 -6 -13 -14 -34 -18 -47 l-6 -25
30 25 c17 13 31 30 31 37 1 12 41 18 41 5 0 -4 -8 -16 -19 -27 -10 -12 -28
-40 -41 -62 -21 -39 -22 -43 -6 -65 9 -13 16 -42 16 -64 0 -23 5 -46 11 -52 7
-7 8 -20 4 -30 -4 -10 -7 -57 -6 -105 0 -70 -3 -88 -15 -88 -23 0 -16 -20 9
-21 46 -3 63 3 83 28 16 18 23 22 27 12 3 -11 7 -11 17 -2 11 10 9 14 -11 23
-21 9 -22 10 -2 6 13 -2 24 2 28 11 4 11 15 14 38 11 43 -7 57 -1 57 27 0 13
6 25 13 28 21 8 -1 20 -35 19 -27 -1 -30 1 -15 9 19 11 24 39 6 39 -6 0 -3 7
5 16 12 11 20 13 33 5 13 -7 14 -10 4 -11 -19 0 16 -40 36 -40 19 0 16 18 -4
23 -13 3 -11 6 10 12 17 4 26 13 23 20 -3 8 1 16 9 18 19 8 56 -4 49 -15 -4
-6 -1 -14 6 -18 15 -9 30 -74 35 -150 2 -30 7 -66 10 -80 21 -81 31 -475 15
-640 -3 -41 -5 -81 -2 -87 3 -9 33 -13 103 -13 l99 0 0 30 c0 17 4 30 9 30 5
0 9 -6 8 -12 -1 -41 4 -48 33 -48 l30 0 0 1165 c0 989 -2 1165 -14 1165 -8 0
-16 6 -19 14 -8 20 -47 28 -47 9 0 -21 -54 -13 -58 9 -2 13 7 18 42 23 30 5
46 12 46 21 0 10 -7 13 -24 8 -20 -5 -25 -1 -31 23 l-7 28 -24 -28 c-14 -16
-29 -25 -36 -21 -7 4 -8 3 -4 -4 5 -8 -1 -12 -18 -12 -32 0 -43 17 -16 25 22
7 26 20 9 31 -6 3 -15 1 -20 -7 -6 -11 -11 -10 -27 4 -10 9 -24 17 -30 17 -6
0 -14 9 -17 20 -3 11 -11 20 -16 20 -5 0 -9 7 -9 15 0 8 -5 15 -11 15 -6 0 -9
-7 -5 -15 6 -16 -3 -19 -28 -9 -20 8 -21 21 -2 26 12 2 12 5 1 15 -11 10 -19
8 -40 -9 -36 -28 -44 -15 -9 16 22 19 26 27 17 36 -8 9 -14 7 -22 -9 -14 -26
-81 -31 -81 -6 0 8 -6 15 -12 15 -8 1 -6 6 5 14 14 11 15 16 6 22 -9 5 -7 10
7 15 18 7 17 8 -3 8 -16 1 -21 6 -17 16 5 11 2 13 -10 9 -9 -3 -16 -12 -16
-20 0 -8 -6 -11 -15 -8 -8 4 -15 1 -15 -5 0 -6 -9 -11 -20 -11 -11 0 -20 -4
-20 -10 0 -5 -4 -10 -10 -10 -5 0 -10 7 -10 15 0 9 -6 12 -15 9 -17 -7 -45 12
-45 30 0 6 5 4 10 -4 7 -12 9 -10 7 8 -1 14 -6 21 -15 17 -17 -6 -29 25 -13
34 9 6 8 11 -2 20 -12 9 -16 7 -22 -11 -6 -20 -8 -21 -12 -5 -3 10 -12 17 -21
15 -9 -1 -22 1 -28 4 -6 4 -22 1 -37 -7 -22 -11 -26 -11 -31 1 -4 11 -15 13
-42 8 -33 -6 -36 -5 -31 10 4 10 1 27 -7 38 -14 20 -15 20 -30 -13 -8 -20 -15
-27 -15 -16 -1 15 -12 22 -34 18 -4 -1 -3 7 3 18 13 26 13 31 -5 31 -8 0 -15
3 -15 8 0 4 -14 16 -30 27 -16 11 -30 26 -30 33 0 6 -7 12 -15 12 -8 0 -15 5
-15 11 0 14 -59 90 -85 109 -33 24 -76 73 -86 99 -7 16 -15 22 -28 18 -14 -3
-18 -1 -14 9 8 21 -15 42 -40 38 -12 -2 -16 -2 -9 2 6 3 12 12 12 20 0 9 -4
13 -9 10 -5 -3 -11 4 -14 15 -4 15 -11 20 -22 15 -10 -3 -28 3 -43 15 l-27 22
25 -6 25 -6 -22 16 c-28 19 -31 38 -4 24 38 -21 239 -12 226 9 -3 5 -19 4 -37
0 -17 -5 -34 -8 -38 -5 -3 2 -26 5 -51 6 -60 2 -134 26 -168 55 -56 46 -141
75 -231 76 -51 1 -59 -2 -54 -17 4 -8 1 -15 -6 -15 -6 0 -8 5 -5 10 3 6 1 10
-5 10 -6 0 -9 3 -7 8 3 4 -7 8 -21 8 -15 1 -20 -1 -12 -4z m30 -32 c0 -5 -3
-10 -7 -10 -5 0 -9 -11 -9 -24 -2 -22 1 -24 23 -15 37 14 182 -25 273 -73 89
-47 82 -41 73 -63 -6 -17 -7 -17 -12 -2 -6 16 -8 16 -26 2 -15 -10 -17 -17 -8
-23 8 -5 9 -13 3 -22 -8 -13 -10 -13 -10 1 0 23 -21 40 -36 28 -8 -7 -17 -5
-27 6 -9 8 -26 19 -39 25 -13 5 -30 14 -38 19 -39 24 -115 52 -156 58 -32 4
-44 10 -40 19 4 9 -2 14 -17 14 -21 0 -21 1 3 13 14 7 26 18 26 25 1 7 2 17 3
22 0 6 6 10 11 10 6 0 10 -4 10 -10z m110 0 c0 -5 -5 -10 -11 -10 -5 0 -7 5
-4 10 3 6 8 10 11 10 2 0 4 -4 4 -10z m-204 -35 c-22 -17 -46 -20 -46 -6 0 5
12 12 28 14 15 2 29 5 32 5 3 1 -4 -5 -14 -13z m-212 -150 c-3 -34 -22 -55
-40 -48 -11 4 -12 9 -3 19 9 11 8 14 -4 14 -9 0 -19 -4 -22 -10 -3 -5 -10 -10
-15 -10 -6 0 4 14 22 30 39 38 66 40 62 5z m633 -67 c-3 -8 -6 -5 -6 6 -1 11
2 17 5 13 3 -3 4 -12 1 -19z m-787 -38 c0 -5 -5 -10 -11 -10 -5 0 -7 5 -4 10
3 6 8 10 11 10 2 0 4 -4 4 -10z m-329 -313 c-10 -9 -11 -8 -5 6 3 10 9 15 12
12 3 -3 0 -11 -7 -18z m-27 -62 c-4 -8 -8 -15 -10 -15 -2 0 -4 7 -4 15 0 8 4
15 10 15 5 0 7 -7 4 -15z m443 -21 c-3 -3 -12 -4 -19 -1 -8 3 -5 6 6 6 11 1
17 -2 13 -5z m1258 -43 c-3 -6 -11 -11 -17 -11 -6 0 -6 6 2 15 14 17 26 13 15
-4z m-1852 -115 c4 -10 -4 -15 -24 -18 -27 -4 -39 9 -22 25 11 12 41 7 46 -7z
m302 -46 c-3 -5 -11 -10 -16 -10 -6 0 -7 5 -4 10 3 6 11 10 16 10 6 0 7 -4 4
-10z m2060 -80 c3 -5 -1 -10 -9 -10 -9 0 -16 5 -16 10 0 6 4 10 9 10 6 0 13
-4 16 -10z m-1371 -361 c-4 -7 -22 -7 -52 0 -2 1 -1 5 2 10 3 4 17 6 31 4 13
-3 22 -9 19 -14z m86 -90 c0 -5 -4 -9 -10 -9 -5 0 -10 7 -10 16 0 8 5 12 10 9
6 -3 10 -10 10 -16z m30 -21 c0 -16 -3 -19 -11 -11 -6 6 -8 16 -5 22 11 17 16
13 16 -11z m-147 -18 c-3 -11 -7 -20 -9 -20 -2 0 -4 9 -4 20 0 11 4 20 9 20 5
0 7 -9 4 -20z m992 -50 c3 -5 -3 -10 -14 -10 -12 0 -21 5 -21 10 0 6 6 10 14
10 8 0 18 -4 21 -10z m80 -27 c-3 -10 -8 -45 -10 -77 -2 -33 -8 -62 -13 -65
-4 -3 -9 -17 -10 -31 0 -13 -8 -30 -16 -36 -9 -6 -13 -19 -9 -32 3 -12 1 -22
-5 -22 -11 0 -21 -55 -28 -154 -7 -95 -33 -139 -49 -83 -10 33 -49 117 -55
117 -13 0 -2 -54 12 -64 21 -15 29 -96 9 -96 -19 0 -60 50 -54 67 3 7 0 13 -6
13 -16 0 -13 36 4 54 9 8 15 19 14 23 -5 27 3 43 21 43 23 0 27 15 6 23 -12 5
-13 13 -4 44 11 41 32 76 40 68 3 -3 19 26 37 65 17 38 36 70 42 70 7 0 8 -7
4 -17 -12 -27 -11 -56 1 -60 14 -5 44 67 44 106 0 17 6 38 13 46 16 19 20 18
12 -2z m-73 -35 c-9 -9 -12 -7 -12 12 0 19 3 21 12 12 9 -9 9 -15 0 -24z
m-772 -168 c0 -13 -7 -20 -19 -20 -25 0 -38 20 -20 31 23 15 39 10 39 -11z
m250 -60 c-8 -5 -19 -10 -25 -10 -5 0 -3 5 5 10 8 5 20 10 25 10 6 0 3 -5 -5
-10z m-45 -10 c-3 -5 2 -10 11 -10 10 0 15 -3 11 -6 -3 -4 -28 -3 -54 1 -46 8
-47 9 -18 16 45 10 57 10 50 -1z m-436 -34 l22 -24 -29 -4 c-38 -5 -52 0 -52
21 0 38 27 41 59 7z m-329 -50 c0 -3 -4 -8 -10 -11 -5 -3 -10 -1 -10 4 0 6 5
11 10 11 6 0 10 -2 10 -4z m1043 -25 c-3 -11 -12 -22 -22 -24 -9 -3 -4 -5 11
-6 35 -1 45 -18 22 -37 -14 -12 -15 -14 -3 -11 9 3 -2 -21 -29 -64 -25 -38
-47 -67 -50 -64 -3 2 2 15 11 28 24 38 36 94 27 128 -7 24 -5 34 11 50 24 24
28 24 22 0z m-590 -11 c3 -11 1 -18 -4 -14 -5 3 -9 12 -9 20 0 20 7 17 13 -6z
m303 -7 c-10 -10 -19 5 -10 18 6 11 8 11 12 0 2 -7 1 -15 -2 -18z m-246 -13
c-8 -5 -22 -9 -30 -9 -10 0 -8 3 5 9 27 12 43 12 25 0z m-270 -70 c0 -5 -2
-10 -4 -10 -3 0 -8 5 -11 10 -3 6 -1 10 4 10 6 0 11 -4 11 -10z m1040 -59 c0
-6 -4 -13 -10 -16 -5 -3 -10 1 -10 9 0 9 5 16 10 16 6 0 10 -4 10 -9z m-90
-136 c0 -8 -7 -15 -15 -15 -16 0 -20 12 -8 23 11 12 23 8 23 -8z m610 -167 c0
-12 -14 -10 -28 4 -19 19 -14 29 8 16 11 -7 20 -16 20 -20z m-46 -56 c-6 -4
-14 -14 -17 -22 -4 -10 -6 -8 -6 8 -1 15 5 22 17 22 10 0 13 -3 6 -8z m-107
-134 c-3 -7 -5 -2 -5 12 0 14 2 19 5 13 2 -7 2 -19 0 -25z m36 1 c-4 -16 -8
-17 -14 -7 -13 19 -11 28 5 28 9 0 12 -7 9 -21z m-451 -124 c0 -5 -5 -11 -11
-13 -6 -2 -11 4 -11 13 0 9 5 15 11 13 6 -2 11 -8 11 -13z m-336 -142 c-10
-10 -19 5 -10 18 6 11 8 11 12 0 2 -7 1 -15 -2 -18z m194 -53 c0 -5 -4 -10
-10 -10 -5 0 -10 5 -10 10 0 6 5 10 10 10 6 0 10 -4 10 -10z m-114 -15 c-11
-8 -24 -15 -30 -15 -5 0 -1 7 10 15 10 8 24 14 29 14 6 0 1 -6 -9 -14z m174
-11 c0 -17 -22 -14 -28 4 -2 7 3 12 12 12 9 0 16 -7 16 -16z m35 6 c3 -5 1
-10 -4 -10 -6 0 -11 5 -11 10 0 6 2 10 4 10 3 0 8 -4 11 -10z m-204 -35 c-1
-15 -24 -12 -29 3 -3 9 2 13 12 10 10 -1 17 -7 17 -13z m-56 -18 c-11 -9 -15
-19 -10 -28 6 -11 5 -11 -5 -2 -16 15 -6 43 17 43 15 0 15 -1 -2 -13z m-95
-37 c0 -5 -4 -10 -10 -10 -5 0 -10 5 -10 10 0 6 5 10 10 10 6 0 10 -4 10 -10z
m210 -40 c0 -5 -5 -10 -11 -10 -5 0 -7 5 -4 10 3 6 8 10 11 10 2 0 4 -4 4 -10z
m-80 -46 c0 -2 -9 0 -20 6 -11 6 -20 13 -20 16 0 2 9 0 20 -6 11 -6 20 -13 20
-16z m-160 -59 c0 -2 -7 -5 -15 -9 -9 -3 -15 0 -15 9 0 9 6 12 15 9 8 -4 15
-7 15 -9z m210 -40 c0 -8 -4 -15 -10 -15 -5 0 -7 7 -4 15 4 8 8 15 10 15 2 0
4 -7 4 -15z m-947 -48 c8 -16 13 -36 10 -44 -3 -7 -1 -19 5 -26 13 -16 10
-109 -4 -114 -37 -12 -120 110 -104 152 5 13 6 25 4 28 -3 3 0 14 7 24 18 29
64 18 82 -20z m857 23 c0 -5 -4 -10 -10 -10 -5 0 -10 5 -10 10 0 6 5 10 10 10
6 0 10 -4 10 -10z m7 -92 c-3 -8 -6 -5 -6 6 -1 11 2 17 5 13 3 -3 4 -12 1 -19z"></path>
<path d="M758 2593 c7 -3 16 -2 19 1 4 3 -2 6 -13 5 -11 0 -14 -3 -6 -6z"></path>
<path d="M2723 1730 c-3 -11 -9 -20 -14 -20 -4 0 -6 -20 -4 -45 3 -28 1 -45
-6 -45 -6 0 -3 -7 6 -16 12 -13 19 -14 28 -5 8 8 8 11 -1 11 -17 0 -7 78 13
100 9 10 14 24 10 29 -10 17 -26 13 -32 -9z"></path>
<path d="M1638 3453 c6 -2 18 -2 25 0 6 3 1 5 -13 5 -14 0 -19 -2 -12 -5z"></path>
<path d="M1335 3430 c-3 -5 1 -10 9 -10 8 0 18 5 21 10 3 6 -1 10 -9 10 -8 0
-18 -4 -21 -10z"></path>
<path d="M1415 3380 c-38 -25 -21 -25 25 0 19 11 28 19 20 20 -8 0 -28 -9 -45
-20z"></path>
<path d="M2868 3349 c-24 -25 -23 -29 7 -29 14 0 28 7 31 15 4 8 9 13 13 11 4
-3 13 0 21 6 11 7 6 8 -18 4 -20 -4 -31 -2 -27 4 11 17 -9 9 -27 -11z"></path>
<path d="M2393 3343 c9 -2 23 -2 30 0 6 3 -1 5 -18 5 -16 0 -22 -2 -12 -5z"></path>
<path d="M1303 3300 c-21 -9 -60 -57 -52 -64 2 -2 24 14 48 35 44 39 45 45 4
29z"></path>
<path d="M2930 3299 c0 -5 5 -7 10 -4 6 3 10 8 10 11 0 2 -4 4 -10 4 -5 0 -10
-5 -10 -11z"></path>
<path d="M1194 3210 c-10 -12 -27 -28 -36 -38 -10 -9 -18 -23 -18 -30 0 -8 -6
-12 -15 -8 -8 3 -14 2 -12 -2 1 -4 -8 -18 -20 -32 -13 -13 -23 -31 -23 -39 0
-9 25 10 60 46 33 34 60 66 60 72 0 6 9 16 20 23 11 7 20 16 20 20 0 14 -16 8
-36 -12z"></path>
<path d="M977 3014 c-10 -13 -14 -24 -10 -24 9 0 36 40 31 45 -2 2 -11 -8 -21
-21z"></path>
<path d="M836 2881 c-9 -16 -16 -38 -15 -48 0 -10 9 2 20 26 22 50 18 68 -5
22z"></path>
<path d="M2620 2870 c0 -5 5 -10 11 -10 5 0 7 5 4 10 -3 6 -8 10 -11 10 -2 0
-4 -4 -4 -10z"></path>
<path d="M2669 2844 c6 -12 7 -24 4 -28 -3 -3 -1 -6 5 -6 16 0 15 12 -4 36
-15 18 -15 18 -5 -2z"></path>
<path d="M756 2785 c-28 -71 -31 -85 -16 -85 6 0 9 3 8 8 -4 16 16 57 36 74
12 10 16 17 8 18 -8 0 -10 8 -6 25 11 46 -4 26 -30 -40z"></path>
<path d="M2700 2800 c0 -5 5 -10 12 -10 6 0 20 -7 30 -17 10 -9 21 -13 25 -10
8 9 -36 47 -54 47 -7 0 -13 -4 -13 -10z"></path>
<path d="M3160 2640 c0 -5 5 -10 11 -10 5 0 7 5 4 10 -3 6 -8 10 -11 10 -2 0
-4 -4 -4 -10z"></path>
<path d="M3137 2624 c-10 -10 -9 -44 2 -44 13 0 23 32 13 42 -5 5 -11 5 -15 2z"></path>
<path d="M3570 2400 c0 -5 5 -10 10 -10 6 0 10 5 10 10 0 6 -4 10 -10 10 -5 0
-10 -4 -10 -10z"></path>
<path d="M485 2281 c-3 -5 3 -11 12 -14 15 -3 14 -6 -7 -14 -22 -10 -23 -12
-7 -18 9 -4 25 -4 35 1 9 4 20 6 25 6 4 -1 7 2 7 7 0 5 3 16 6 25 5 13 -1 16
-29 16 -20 0 -38 -4 -42 -9z"></path>
<path d="M1550 2220 c0 -5 5 -10 10 -10 6 0 10 5 10 10 0 6 -4 10 -10 10 -5 0
-10 -4 -10 -10z"></path>
<path d="M1660 2150 c0 -5 5 -10 10 -10 6 0 10 5 10 10 0 6 -4 10 -10 10 -5 0
-10 -4 -10 -10z"></path>
<path d="M557 2106 c-4 -10 -1 -13 9 -9 15 6 19 23 5 23 -5 0 -11 -7 -14 -14z"></path>
<path d="M1690 1980 c0 -5 5 -10 10 -10 6 0 10 5 10 10 0 6 -4 10 -10 10 -5 0
-10 -4 -10 -10z"></path>
<path d="M502 1930 c-14 -22 -17 -94 -3 -86 4 3 11 20 14 38 3 18 8 41 12 51
10 23 -7 22 -23 -3z"></path>
<path d="M500 1825 c0 -5 5 -17 10 -25 5 -8 10 -10 10 -5 0 6 -5 17 -10 25 -5
8 -10 11 -10 5z"></path>
<path d="M1237 1620 c-3 -13 0 -20 9 -20 15 0 19 26 5 34 -5 3 -11 -3 -14 -14z"></path>
<path d="M903 1612 c-23 -2 -41 -14 -61 -40 -36 -46 -45 -88 -26 -124 8 -15
14 -31 13 -35 -1 -4 -1 -13 0 -19 1 -13 91 -105 91 -94 0 5 -4 12 -10 15 -5 3
-10 15 -10 26 0 17 5 19 38 15 20 -3 39 -5 42 -6 3 -1 13 -2 22 -1 10 1 26 -2
35 -8 16 -9 16 -10 -5 -11 -30 0 -102 -23 -102 -32 0 -5 10 -8 23 -9 21 0 21
-1 -3 -12 -25 -11 -25 -11 10 -15 32 -3 81 7 138 29 30 12 42 4 35 -21 -5 -18
-25 -30 -22 -12 3 19 -3 22 -21 12 -23 -12 -27 -35 -5 -27 8 4 17 2 20 -3 10
-16 24 -11 47 15 12 14 28 25 35 25 7 0 13 6 13 14 0 7 8 20 17 27 15 13 16
11 10 -18 -10 -49 9 -40 38 17 33 65 32 109 -4 175 -20 37 -26 55 -18 59 9 3
9 5 0 5 -19 1 -16 19 5 24 13 4 11 5 -5 6 -13 0 -23 7 -24 14 0 6 -6 -1 -13
-17 -9 -19 -16 -25 -21 -17 -4 7 -14 10 -22 7 -12 -5 -14 -1 -10 14 4 17 2 18
-14 9 -11 -5 -25 -7 -31 -3 -6 4 -40 6 -74 5 -35 -1 -71 1 -81 6 -10 5 -32 7
-50 5z"></path>
<path d="M2460 1340 c0 -5 5 -10 11 -10 5 0 7 5 4 10 -3 6 -8 10 -11 10 -2 0
-4 -4 -4 -10z"></path>
<path d="M2437 1307 c-3 -7 3 -13 14 -13 13 0 15 3 7 13 -6 7 -12 13 -13 13
-2 0 -5 -6 -8 -13z"></path>
<path d="M1692 1241 c-13 -3 -23 -9 -23 -13 2 -20 0 -22 -10 -5 -12 20 -31 23
-28 5 1 -7 1 -20 0 -28 -1 -13 -2 -13 -11 0 -8 13 -10 13 -10 0 0 -10 -3 -11
-11 -3 -20 20 -39 3 -39 -33 0 -19 5 -34 10 -34 6 0 10 -7 10 -16 0 -13 4 -13
30 3 17 9 30 21 30 26 0 4 8 7 18 5 9 -1 23 2 31 7 10 5 16 4 19 -3 2 -7 10
-12 17 -12 15 0 28 -27 20 -41 -3 -4 -29 -20 -58 -35 -29 -15 -64 -33 -79 -41
-33 -17 -58 -50 -58 -76 0 -24 -36 -62 -45 -48 -9 15 -52 14 -59 -1 -5 -10 -7
-10 -12 0 -3 6 -14 12 -25 12 -10 0 -19 3 -19 8 0 8 -70 32 -93 32 -7 0 -24
12 -38 26 -21 23 -24 34 -22 99 1 60 -1 73 -13 68 -8 -3 -14 -9 -14 -14 0 -5
-6 -9 -14 -9 -8 0 -20 -16 -27 -35 -7 -19 -17 -35 -21 -35 -4 0 -8 -6 -8 -12
0 -7 -11 -35 -25 -62 -14 -27 -25 -51 -25 -52 0 -2 9 -12 21 -23 22 -20 19
-41 -6 -41 -7 0 -15 -6 -18 -14 -6 -16 34 -54 51 -48 7 2 10 -2 6 -12 -5 -13
1 -16 25 -16 17 0 31 -4 31 -10 0 -5 5 -10 10 -10 12 0 64 -35 92 -62 10 -10
23 -18 29 -18 7 0 20 -10 30 -22 11 -11 19 -16 19 -11 0 6 -6 16 -14 22 -22
19 -26 50 -8 61 12 7 13 9 3 10 -11 0 -11 3 0 16 12 14 17 11 52 -27 l39 -44
-6 31 c-3 18 -8 44 -12 59 l-7 27 44 -8 c50 -8 57 -9 119 -1 54 7 185 52 220
77 45 31 112 61 125 56 7 -2 16 2 19 10 9 23 35 16 42 -12 5 -20 2 -31 -14
-43 -11 -9 -22 -25 -24 -36 -2 -11 -12 -21 -24 -23 -12 -2 -25 -15 -32 -34
-10 -27 -15 -30 -42 -26 -26 4 -33 1 -41 -19 -11 -30 -36 -40 -62 -24 -18 12
-19 11 -13 -15 8 -32 -10 -49 -33 -31 -11 9 -15 9 -18 0 -5 -13 -34 -6 -45 11
-6 8 -11 7 -17 -3 -6 -10 -22 -12 -57 -8 l-48 5 25 -19 c53 -40 157 -37 244 6
51 26 85 28 85 5 0 -5 -7 -10 -15 -10 -8 0 -15 -7 -15 -16 0 -8 -5 -12 -10 -9
-6 4 -20 -5 -31 -19 -14 -18 -30 -26 -50 -26 -21 0 -28 -4 -23 -12 5 -8 2 -9
-12 -4 -22 10 -172 11 -181 2 -4 -3 1 -6 9 -6 9 0 18 -9 21 -19 7 -29 76 -36
167 -16 41 9 87 18 102 22 32 6 133 125 144 167 3 14 10 26 15 26 5 0 9 9 9
19 0 11 9 22 19 26 12 4 17 12 14 24 -3 11 2 34 10 53 8 18 18 42 22 53 5 13
9 15 12 8 3 -7 20 -13 38 -13 38 0 52 -17 70 -84 5 -22 16 -41 23 -44 21 -7
14 52 -15 114 -39 83 -38 100 4 95 18 -2 5 26 -23 55 -22 21 -28 22 -25 2 1
-11 -13 -10 -44 2 -19 7 -25 15 -21 26 5 13 2 15 -14 11 -11 -3 -23 -1 -26 5
-3 5 -15 7 -26 5 -32 -9 -69 9 -61 29 4 11 3 15 -5 10 -11 -6 -61 18 -110 54
-38 28 -133 58 -160 51z m148 -75 c0 -3 -4 -8 -10 -11 -5 -3 -10 -1 -10 4 0 6
5 11 10 11 6 0 10 -2 10 -4z m-23 -32 c-3 -3 -12 -4 -19 -1 -8 3 -5 6 6 6 11
1 17 -2 13 -5z m67 -35 c0 -19 -5 -24 -24 -22 -16 1 -19 0 -7 -4 11 -2 16 -11
13 -18 -4 -12 0 -12 20 -3 31 15 41 4 47 -49 3 -30 0 -46 -10 -55 -12 -9 -14
-9 -13 3 4 27 0 39 -14 39 -17 0 -30 -35 -20 -51 4 -8 3 -9 -4 -5 -6 4 -20 -2
-32 -14 -11 -11 -30 -20 -43 -20 -13 0 -27 -3 -31 -7 -3 -4 -16 -8 -28 -10
-29 -5 -128 -55 -128 -65 0 -4 -30 -6 -67 -4 -49 3 -71 9 -80 22 -12 16 -13
16 -13 1 0 -20 -21 -22 -38 -5 -9 9 -12 9 -12 0 0 -10 -5 -10 -21 -2 -11 7
-18 14 -15 17 2 3 1 16 -4 29 -8 20 -6 24 10 24 10 0 22 -5 26 -12 4 -7 3 -8
-4 -4 -8 5 -10 2 -6 -9 6 -14 8 -14 23 -1 12 11 20 13 28 5 14 -14 73 -23 73
-11 0 14 42 23 56 11 8 -7 14 -7 19 1 9 14 27 2 19 -13 -3 -7 3 -2 14 11 11
12 25 22 31 22 6 0 11 5 11 11 0 6 -8 8 -19 4 -11 -3 -22 -1 -26 5 -4 6 4 10
19 10 16 0 26 6 26 15 0 8 0 18 1 23 0 4 11 13 25 20 16 8 24 22 25 40 1 18 3
21 6 9 3 -13 11 -17 23 -14 11 3 21 0 24 -7 2 -6 5 -3 5 7 1 9 6 17 12 17 5 0
7 5 3 12 -4 7 -3 8 5 4 16 -10 41 12 34 30 -4 10 3 14 23 15 18 1 22 3 11 6
-22 6 -13 22 10 19 11 -2 17 -12 17 -27z"></path>
<path d="M1890 1030 c0 -5 5 -10 10 -10 6 0 10 5 10 10 0 6 -4 10 -10 10 -5 0
-10 -4 -10 -10z"></path>
<path d="M1724 981 c4 -5 1 -12 -4 -14 -6 -3 -5 -4 2 -3 15 3 23 26 8 26 -6 0
-9 -4 -6 -9z"></path>
<path d="M2365 1221 c-3 -6 -11 -9 -16 -6 -5 4 -9 2 -9 -3 0 -18 13 -21 27 -6
9 8 13 17 10 20 -3 3 -8 0 -12 -5z"></path>
<path d="M2312 1170 c-15 -24 -15 -33 -2 -25 6 3 10 -1 10 -9 0 -9 5 -16 10
-16 6 0 10 4 10 9 0 6 -4 13 -10 16 -17 10 -11 28 6 21 14 -5 15 -4 4 9 -15
18 -13 19 -28 -5z"></path>
<path d="M2447 1171 c3 -10 0 -22 -6 -25 -6 -4 -11 -14 -11 -22 0 -14 2 -14
15 0 16 16 21 66 6 66 -5 0 -7 -8 -4 -19z"></path>
<path d="M2370 1165 c0 -8 7 -15 15 -15 8 0 15 7 15 15 0 8 -7 15 -15 15 -8 0
-15 -7 -15 -15z"></path>
<path d="M2090 1130 c-13 -8 -13 -10 2 -10 9 0 20 5 23 10 8 13 -5 13 -25 0z"></path>
<path d="M2277 1134 c-4 -4 -7 -14 -7 -23 0 -11 3 -12 11 -4 6 6 10 16 7 23
-2 6 -7 8 -11 4z"></path>
<path d="M2490 1120 c0 -5 5 -10 10 -10 6 0 10 5 10 10 0 6 -4 10 -10 10 -5 0
-10 -4 -10 -10z"></path>
<path d="M2325 1028 c2 -18 6 -48 9 -65 4 -18 3 -33 -2 -33 -5 0 -9 -15 -10
-32 0 -18 -1 -55 -2 -81 -2 -53 4 -67 22 -49 8 8 8 12 1 12 -8 0 -8 11 -2 38
11 42 12 180 3 217 -9 36 -23 30 -19 -7z"></path>
<path d="M2824 906 c-4 -10 -13 -15 -24 -11 -23 7 -28 -8 -30 -105 -1 -41 -4
-108 -7 -149 -4 -57 -2 -72 8 -66 8 6 10 4 4 -6 -22 -34 -10 -89 19 -89 6 0 2
8 -9 16 -20 15 -20 15 -1 30 32 23 36 20 40 -26 1 -8 -4 -21 -11 -27 -14 -15
-43 -17 -43 -3 0 6 -5 10 -11 10 -6 0 -8 -7 -5 -16 4 -9 1 -23 -5 -30 -6 -8
-9 -21 -5 -29 3 -9 -1 -18 -9 -21 -8 -4 -13 -10 -10 -14 3 -5 0 -12 -6 -16 -9
-5 -11 4 -6 34 3 23 1 45 -5 48 -17 11 -30 56 -18 68 13 13 13 26 1 26 -5 0
-12 -8 -15 -17 -3 -10 -19 -27 -36 -38 -29 -19 -40 -45 -20 -45 6 0 10 6 10
13 0 6 12 17 26 24 25 12 26 11 22 -16 -3 -21 -1 -28 9 -24 7 3 13 -2 13 -11
0 -9 -4 -17 -10 -17 -5 -1 -16 -2 -22 -3 -21 -4 -31 6 -17 15 11 7 10 9 -3 9
-27 0 -28 -14 -3 -38 21 -20 25 -21 39 -6 21 20 21 6 0 -17 -14 -16 -14 -18 5
-24 12 -3 24 -4 29 -1 4 2 14 1 22 -5 9 -5 10 -9 4 -9 -7 0 -14 -7 -17 -14 -4
-10 -1 -13 10 -9 8 3 19 0 24 -8 13 -20 11 -27 -8 -32 -14 -4 -14 -5 3 -6 25
-1 37 30 24 64 -7 20 -6 22 18 18 22 -3 23 -2 8 5 -23 10 -6 25 17 16 8 -3 18
-1 21 4 3 5 -4 13 -17 17 l-22 8 23 4 c12 2 22 9 22 14 0 5 7 9 15 9 8 0 15 5
15 10 0 6 -11 10 -24 10 -29 0 -42 16 -28 33 8 10 9 36 3 69 0 4 -8 14 -18 23
-11 11 -16 31 -14 63 2 61 11 68 11 8 0 -39 3 -47 15 -42 8 3 16 1 16 -4 1 -6
2 -15 3 -22 0 -6 7 -13 14 -15 14 -5 16 23 2 32 -5 3 -10 13 -10 22 0 12 3 13
14 4 11 -9 15 -9 19 1 3 7 6 3 6 -9 1 -12 5 -25 11 -28 6 -4 7 1 3 11 -4 12
-3 15 5 10 7 -4 20 -3 29 3 16 9 15 11 -9 20 -32 12 -38 32 -8 24 11 -3 20 0
20 6 0 6 7 11 15 11 9 0 12 -6 9 -15 -5 -11 1 -15 23 -15 43 0 85 22 79 42 -2
9 1 19 8 21 6 3 4 8 -7 12 -11 5 -22 2 -30 -8 -17 -21 -114 -29 -132 -11 -16
16 -35 18 -35 4 0 -5 6 -10 13 -10 8 0 8 -3 1 -8 -6 -4 -13 -15 -17 -25 -9
-25 -23 -14 -31 24 -4 22 -10 30 -21 25 -12 -4 -15 5 -14 57 0 46 3 56 9 40 5
-12 7 -33 4 -47 -2 -14 0 -26 5 -26 8 0 21 198 14 209 -1 2 -5 -4 -9 -13z
m-17 -88 c-3 -8 -6 -5 -6 6 -1 11 2 17 5 13 3 -3 4 -12 1 -19z m-47 -468 c0
-5 -2 -10 -4 -10 -3 0 -8 5 -11 10 -3 6 -1 10 4 10 6 0 11 -4 11 -10z"></path>
<path d="M2130 880 c0 -5 4 -10 9 -10 6 0 13 5 16 10 3 6 -1 10 -9 10 -9 0
-16 -4 -16 -10z"></path>
<path d="M3040 820 c0 -5 5 -10 11 -10 5 0 7 5 4 10 -3 6 -8 10 -11 10 -2 0
-4 -4 -4 -10z"></path>
<path d="M3025 740 c-3 -5 -1 -10 4 -10 6 0 11 5 11 10 0 6 -2 10 -4 10 -3 0
-8 -4 -11 -10z"></path>
<path d="M2868 733 c7 -3 16 -2 19 1 4 3 -2 6 -13 5 -11 0 -14 -3 -6 -6z"></path>
<path d="M2930 729 c0 -5 5 -7 10 -4 6 3 10 8 10 11 0 2 -4 4 -10 4 -5 0 -10
-5 -10 -11z"></path>
<path d="M2310 714 c0 -8 5 -12 10 -9 6 4 8 11 5 16 -9 14 -15 11 -15 -7z"></path>
<path d="M2878 713 c7 -3 16 -2 19 1 4 3 -2 6 -13 5 -11 0 -14 -3 -6 -6z"></path>
<path d="M2733 650 c0 -36 2 -50 4 -32 2 17 2 47 0 65 -2 17 -4 3 -4 -33z"></path>
<path d="M2210 554 c0 -8 5 -12 10 -9 6 3 10 10 10 16 0 5 -4 9 -10 9 -5 0
-10 -7 -10 -16z"></path>
<path d="M2717 514 c3 -9 1 -19 -6 -23 -7 -5 -9 -15 -4 -27 6 -17 8 -17 14 6
10 37 10 60 -1 60 -5 0 -7 -7 -3 -16z"></path>
<path d="M1055 430 c-29 -20 -47 -44 -64 -84 -17 -41 -28 -56 -42 -56 -11 0
-23 -8 -26 -17 -4 -10 -19 -30 -34 -44 -14 -15 -34 -40 -44 -56 -9 -16 -27
-33 -38 -39 -12 -5 -27 -19 -33 -32 -6 -12 -27 -40 -47 -62 l-36 -40 64 0 c61
0 64 1 79 31 9 17 13 35 11 40 -12 19 16 18 36 -2 l21 -21 22 21 c12 12 27 21
33 21 14 0 40 31 44 54 7 33 53 59 104 58 43 0 45 1 45 29 0 17 -6 32 -14 35
-11 4 -14 19 -11 64 4 47 2 59 -11 64 -11 4 -15 14 -11 31 6 36 -2 37 -48 5z"></path>
<path d="M2510 414 c0 -11 9 -25 20 -32 11 -7 20 -8 20 -4 0 5 -9 19 -20 32
-18 21 -20 21 -20 4z"></path>
<path d="M2620 351 c0 -5 -8 -18 -17 -27 -17 -17 -17 -18 0 -11 10 4 26 7 35
7 14 0 14 2 3 9 -7 5 -10 14 -7 20 4 6 2 11 -3 11 -6 0 -11 -4 -11 -9z"></path>
<path d="M2675 190 c3 -5 13 -10 21 -10 8 0 14 5 14 10 0 6 -9 10 -21 10 -11
0 -17 -4 -14 -10z"></path>
<path d="M1139 105 c-26 -14 -47 -73 -34 -95 3 -5 36 -9 73 -9 l67 0 3 44 c2
31 -2 44 -13 48 -11 5 -15 0 -15 -19 0 -13 -7 -27 -15 -31 -21 -8 -43 24 -37
53 5 28 5 28 -29 9z"></path>
</g>
</svg><style>@media (prefers-color-scheme: light) { :root { filter: none; } }
</style></svg>