<?xml version="1.0" encoding="utf-8"?>
<!-- Generator: Adobe Illustrator 16.0.3, SVG Export Plug-In . SVG Version: 6.00 Build 0)  -->
<!DOCTYPE svg PUBLIC "-//W3C//DTD SVG 1.1//EN" "http://www.w3.org/Graphics/SVG/1.1/DTD/svg11.dtd">
<svg version="1.1" id="Ebene_1" xmlns="http://www.w3.org/2000/svg" xmlns:xlink="http://www.w3.org/1999/xlink" x="0px" y="0px"
	 width="295.895px" height="189.554px" viewBox="0 0 295.895 189.554" enable-background="new 0 0 295.895 189.554"
	 xml:space="preserve">
<path d="M263.788,179.301c0,1.402-0.324,2.375-2.446,2.375h-2.339v-4.893h2.339C263.285,176.783,263.788,177.897,263.788,179.301
	 M267.854,188.475l-4.065-5.288c1.295-0.504,2.733-1.547,2.733-4.03c0-2.59-1.762-4.389-5.18-4.389h-5.001v14.211h2.662v-5.253
	h1.763c0.252,0,0.252,0,0.504-0.036l4.281,5.864L267.854,188.475z M250.585,188.979v-2.087h-7.879v-4.281h6.008v-2.051h-6.008
	v-3.669h6.979v-2.123h-9.642v14.211H250.585z M235.727,177.035v-2.231h-13.49v2.231h5.36v11.943h2.662v-11.943H235.727z
	 M217.92,188.979v-14.211h-2.411v10.073l-7.123-10.073h-3.166v14.211h2.411v-10.973l7.733,10.973H217.92z M199.464,188.979v-2.087
	h-7.879v-4.281h6.008v-2.051h-6.008v-3.669h6.979v-2.123h-9.642v14.211H199.464z M183.887,188.223l-0.684-2.158
	c-1.512,0.646-3.273,1.043-5.181,1.043c-3.058,0-4.496-1.979-4.496-5.468c0-3.526,2.302-5.073,5.107-5.073
	c1.404,0,2.807,0.396,3.778,0.791l0.827-2.05c-0.863-0.468-2.878-0.972-4.569-0.972c-4.748,0-7.95,2.662-7.95,7.41
	c0,5.254,2.807,7.735,7.303,7.735C180.253,189.481,182.952,188.727,183.887,188.223 M155.897,188.979v-14.211h-2.661v5.54h-7.375
	v-5.54h-2.662v14.211h2.662v-6.368h7.375v6.368H155.897z M138.163,188.223l-0.684-2.158c-1.511,0.646-3.274,1.043-5.18,1.043
	c-3.058,0-4.497-1.979-4.497-5.468c0-3.526,2.302-5.073,5.108-5.073c1.403,0,2.806,0.396,3.778,0.791l0.827-2.05
	c-0.863-0.468-2.878-0.972-4.569-0.972c-4.749,0-7.95,2.662-7.95,7.41c0,5.254,2.806,7.735,7.303,7.735
	C134.529,189.481,137.227,188.727,138.163,188.223 M117.872,179.301c0,1.402-0.323,2.375-2.446,2.375h-2.338v-4.893h2.338
	C117.369,176.783,117.872,177.897,117.872,179.301 M121.938,188.475l-4.066-5.288c1.296-0.504,2.735-1.547,2.735-4.03
	c0-2.59-1.763-4.389-5.181-4.389h-5.001v14.211h2.663v-5.253h1.762c0.252,0,0.252,0,0.504-0.036l4.281,5.864L121.938,188.475z
	 M100.892,183.474h-4.713l2.411-5.937L100.892,183.474z M105.749,188.763l-5.684-13.995h-2.519l-6.259,14.066l2.446,0.468
	l1.583-3.741h6.368l1.439,3.741L105.749,188.763z M88.049,188.979v-2.087H80.17v-4.281h6.008v-2.051H80.17v-3.669h6.979v-2.123
	h-9.641v14.211H88.049z M72.112,185.093c0-4.642-8.311-4.281-8.311-7.015c0-1.115,1.475-1.584,2.878-1.584
	c1.475,0,2.771,0.612,3.778,1.188l1.043-1.941c-1.151-0.648-2.554-1.404-4.749-1.404c-3.13,0-5.576,1.296-5.576,3.777
	c0,5.037,8.167,4.317,8.167,7.231c0,1.331-1.403,1.907-3.202,1.907c-1.763,0-3.634-0.9-4.641-1.512l-0.971,2.158
	c1.115,0.792,3.669,1.619,5.684,1.619C69.989,189.518,72.112,187.72,72.112,185.093 M56.57,188.979v-2.087h-7.879v-4.281h6.008
	v-2.051h-6.008v-3.669h6.98v-2.123h-9.642v14.211H56.57z M36.568,179.301c0,1.402-0.324,2.375-2.447,2.375h-2.338v-4.893h2.338
	C36.064,176.783,36.568,177.897,36.568,179.301 M40.633,188.475l-4.065-5.288c1.295-0.504,2.734-1.547,2.734-4.03
	c0-2.59-1.763-4.389-5.181-4.389h-5v14.211h2.662v-5.253h1.763c0.252,0,0.252,0,0.503-0.036l4.282,5.864L40.633,188.475z"/>
<path d="M295.895,155.049c0-4.714-8.166-4.714-8.166-6.261c0-0.575,0.468-1.114,1.728-1.114c1.619,0,3.13,0.323,4.425,0.971
	l1.511-2.879c-1.654-0.756-3.382-1.15-5.936-1.15c-3.238,0-6.368,1.079-6.368,4.173c0,5.252,8.238,4.894,8.238,6.476
	c0,0.972-1.115,1.332-2.337,1.332c-1.404,0-3.203-0.433-5.146-1.439l-1.618,3.021c1.942,1.151,4.712,1.619,6.871,1.619
	C293.377,159.797,295.895,158.358,295.895,155.049 M279.022,159.258v-3.059h-7.878v-2.662h6.009v-3.058h-6.009v-2.339h6.979v-3.059
	h-11.441v14.176H279.022z M260.208,145.082h-4.461v14.176h4.461V145.082z M252.149,148.68v-3.598H236.86v3.598h5.36v10.578h4.461
	V148.68H252.149z M233.263,145.082h-4.461v14.176h4.461V145.082z M217.866,149.939c0,0.756-0.181,1.763-1.836,1.763h-1.15v-3.598
	h1.15C217.506,148.104,217.866,149.148,217.866,149.939 M224.845,159.041l-4.677-5.396c1.152-0.684,2.23-1.834,2.23-3.885
	c0-2.914-2.374-4.678-6.079-4.678h-5.9v14.176h4.461v-4.785h1.187l3.778,5.037L224.845,159.041z M201.065,152.494
	c0,1.979-1.69,3.993-3.886,3.993c-2.481,0-4.173-1.728-4.173-4.713c0-1.907,1.655-3.886,3.849-3.886
	C199.159,147.889,201.065,149.76,201.065,152.494 M205.743,152.17c0-5.072-4.03-7.555-8.707-7.555c-4.678,0-8.67,2.266-8.67,7.555
	c0,5.145,3.957,7.592,8.67,7.592C201.713,159.762,205.743,157.17,205.743,152.17 M183.689,159.258v-14.211h-3.85v7.59l-6.152-7.59
	h-4.497v14.211h3.851v-8.023l6.69,8.023H183.689z M162.716,145.082h-4.461v14.176h4.461V145.082z M152.858,159.221l-1.547-14.139
	h-4.821l-3.633,10.398l-3.634-10.398h-4.965l-1.619,14.139l4.21,0.181l0.683-8.634l3.202,8.49h3.885l3.346-8.49l0.54,8.634
	L152.858,159.221z M110.12,154.688c-0.935,0.792-2.087,1.835-3.562,1.835c-1.942,0-3.129-1.439-3.129-3.383
	c0-1.078,0.899-2.014,2.158-2.949C106.522,151.09,108.393,153.069,110.12,154.688 M108.105,142.96c0,0.972-0.611,1.943-1.87,2.771
	c-1.08-1.151-1.511-2.159-1.511-2.698c0-0.937,0.683-1.799,1.727-1.799C107.386,141.233,108.105,142.061,108.105,142.96
	 M121.776,158.502l-1.547-2.627c-0.216,0.108-1.223,0.756-1.691,0.756c-0.899,0.037-1.439-0.359-1.978-0.899
	c-0.36-0.396-0.684-0.863-1.115-1.259c1.511-2.41,2.482-5.108,3.525-7.699c-1.619-0.467-3.993-1.188-3.993-1.188
	c-0.648,2.051-1.511,4.354-2.554,6.225c-1.332-1.295-2.663-2.771-3.526-3.635c2.23-1.402,3.31-3.272,3.31-5.252
	c0-2.806-2.555-4.929-5.828-4.929c-3.418,0-5.793,2.267-5.793,5.109c0,1.618,1.224,3.058,2.555,4.497
	c-2.015,1.438-4.101,3.166-4.101,6.152c0,3.381,3.381,6.08,7.051,6.08c3.022,0,5.252-1.009,6.871-2.412
	c0.432,0.433,0.864,0.828,1.295,1.151c1.008,0.792,2.087,1.224,3.742,1.224C118.934,159.797,120.193,159.545,121.776,158.502
	 M86.736,158.215l-1.187-3.203c-2.374,0.899-3.993,1.224-5.756,1.224c-2.447,0-3.598-1.511-3.598-4.317
	c0-2.554,1.727-3.885,4.209-3.885c1.224,0,2.483,0.287,4.246,0.971l1.475-3.094c-1.655-0.828-3.85-1.295-5.685-1.295
	c-5.108,0-8.85,2.626-8.85,7.447c0,5.18,3.274,7.699,8.203,7.699C82.167,159.762,85.009,159.041,86.736,158.215 M66.914,145.082
	h-4.461v14.176h4.461V145.082z M57.776,155.049c0-4.714-8.166-4.714-8.166-6.261c0-0.575,0.467-1.114,1.726-1.114
	c1.619,0,3.13,0.323,4.425,0.971l1.511-2.879c-1.654-0.756-3.381-1.15-5.936-1.15c-3.237,0-6.367,1.079-6.367,4.173
	c0,5.252,8.238,4.894,8.238,6.476c0,0.972-1.115,1.332-2.338,1.332c-1.403,0-3.202-0.433-5.145-1.439l-1.619,3.021
	c1.943,1.151,4.713,1.619,6.872,1.619C55.258,159.797,57.776,158.358,57.776,155.049 M39.825,152.565v-7.519h-4.461v7.555
	c0,2.303-0.792,3.85-2.807,3.85c-2.014,0-2.842-1.691-2.842-3.777v-7.627h-4.461v7.519c0,4.245,2.447,7.124,7.303,7.124
	C36.731,159.689,39.825,157.063,39.825,152.565 M20.218,159.221l-1.547-14.139H13.85l-3.633,10.398l-3.634-10.398H1.618L0,159.221
	l4.209,0.181l0.683-8.634l3.202,8.49h3.886l3.345-8.49l0.54,8.634L20.218,159.221z"/>
<path fill="#D3613C" d="M158.505,0.514c-34.237-3.335-69.827,9.752-92.875,34.162c-20.841,22.072-29.645,51.386-24.792,82.545
	c0.306,1.959,1.995,3.357,3.917,3.357c0.203,0,0.409-0.016,0.616-0.047c2.165-0.338,3.648-2.367,3.31-4.533
	c-5.726-36.758,9.195-61.548,22.72-75.874c18.03-19.095,44.344-30.725,71.24-32.06c-0.032,12.724-0.295,25.587-0.618,39.648
	c2.231-0.073,4.477-0.088,6.744,0.002c0.404,0.016,0.793,0.049,1.193,0.068c0.324-14.101,0.588-27.006,0.618-39.801
	c2.389,0.063,4.776,0.199,7.157,0.431c31.997,3.12,55.815,15.106,70.795,35.628c11.679,16.001,18.139,37.251,19.2,63.161
	c0.09,2.188,1.95,3.879,4.127,3.802c2.19-0.091,3.893-1.938,3.803-4.128C253.843,62.497,235.513,8.02,158.505,0.514"/>
<path fill="#00A4A0" d="M200.408,69.174c-11.394-13.34-28.769-20.56-51.642-21.459c-22.508-0.886-43.524,6.301-57.66,19.717
	C79.962,78.009,73.97,91.384,73.78,106.109c-0.028,2.19,1.726,3.99,3.917,4.019c2.186,0,3.991-1.726,4.02-3.917
	c0.161-12.534,5.298-23.953,14.854-33.022c11.217-10.646,27.45-16.867,45.269-17.536c-0.443,19.15-0.85,38.854-0.473,58.394
	c0.042,2.166,1.811,3.893,3.967,3.893c0.026,0,0.052,0,0.078-0.002c2.191-0.041,3.933-1.853,3.891-4.043
	c-0.376-19.416,0.033-39.071,0.475-58.175c19.905,1.025,34.914,7.273,44.596,18.609c12.922,15.129,11.867,33.709,11.235,39.043
	c-0.257,2.177,1.299,4.149,3.476,4.407c0.158,0.019,0.315,0.027,0.47,0.027c1.984,0,3.698-1.484,3.938-3.503
	C214.218,108.161,215.422,86.753,200.408,69.174"/>
</svg>
