<?xml version="1.0" encoding="UTF-8"?>
<svg id="Ebene_1" data-name="Ebene 1" xmlns="http://www.w3.org/2000/svg" viewBox="0 0 420.23 62.49">
  <defs>
    <style>
      .cls-1, .cls-2 {
        stroke-width: 0px;
      }

      .cls-2 {
        fill: transparent;
      }
    </style>
  </defs>
  <path class="cls-1" d="M0,6.27h18.27c14.2,0,17.89,4.78,17.89,11.27s-4.27,9.87-10.57,11.14c7.26,1.27,9.93,6.11,11.14,14.84.25,1.53.45,4.08.51,5.03h-13.18l-.13-2.61c-.7-7.51-2.67-12.54-8.34-12.61h-2.8v15.22H0V6.27ZM15.72,26.65c5.22-.06,8.02-2.8,8.02-6.75s-2.04-5.79-7.39-5.79h-3.57v12.86l2.93-.32h0Z"/>
  <path class="cls-1" d="M39.73,36.77v-18.27h11.91v17.32c0,2.99,1.08,4.65,3.63,4.65s3.76-2.17,3.76-5.6v-16.36h11.91v30.05h-11.78v-4.08c-1.66,3.06-4.58,4.84-8.66,4.84-6.69,0-10.76-4.46-10.76-12.54h-.01Z"/>
  <path class="cls-1" d="M74.25,42.82l12.86-16.36h-12.42v-7.96h26.49v5.73l-12.42,16.36h12.42v7.96h-26.93v-5.73ZM76.73,5.63h4.14l7.2,4.27,7.26-4.27h4.08l-6.56,9.81h-9.42l-6.69-9.81h-.01Z"/>
  <path class="cls-1" d="M103.03,40.66c0-6.56,5.86-8.15,11.65-9.3,4.65-.89,7.96-1.02,8.21-2.55v-.19c0-1.91-1.21-2.93-3.63-2.93-2.74,0-4.14,1.27-4.27,3.44v.51h-11.21c.13-7.26,5.67-11.91,15.6-11.91s15.35,3.88,15.35,13.24v17.57h-11.91v-4.2c-1.72,2.99-4.84,5.09-9.49,5.09-6.3,0-10.32-3.38-10.32-8.79,0,0,.02.02.02.02ZM122.9,38.11v-3.63c-1.08.51-2.48.76-3.82,1.15-2.23.64-4.08,1.4-4.08,3.82,0,1.59,1.08,2.8,3.06,2.8,2.36,0,4.46-1.21,4.84-4.14Z"/>
  <path class="cls-1" d="M138.75,6.02h11.84v24.07l8.34-11.59h12.54l-9.74,11.14,10,18.91h-12.35l-5.73-11.02-3.06,3.63v7.39h-11.84V6.02h0Z"/>
  <path class="cls-1" d="M169.45,33.72c0-9.74,6.3-16.05,16.49-16.05s16.11,6.05,16.11,16.43v1.97h-21.2c.32,3.69,2.55,5.41,5.99,5.41,3.18,0,5.16-1.53,5.86-3.88l9.17,2.1c-2.04,6.43-6.62,9.61-15.73,9.61-10.57,0-16.68-5.86-16.68-15.6h-.01ZM190.65,30.47c-.19-3.57-1.66-5.35-4.71-5.35s-4.84,1.91-5.16,5.35h9.87Z"/>
  <path class="cls-1" d="M216.06,54.92c0-2.99,1.85-5.09,5.67-6.24-2.99-.76-4.58-2.61-4.58-5.28s1.91-4.71,5.35-5.99c-3.12-1.91-4.84-4.84-4.84-8.53,0-6.49,6.24-11.27,15.09-11.27,5.73,0,10.19,2.04,12.61,5.35,1.02-2.8,2.93-4.46,5.92-4.46v9.23c-1.27-.57-2.87-.7-4.14.19.06.32.06.57.06.83,0,6.81-5.67,11.02-14.9,11.02-1.91,0-3.69-.19-5.29-.57-1.15.25-1.78.76-1.78,1.46,0,.96,1.15,1.46,3.37,1.46h8.85c8.98,0,13.82,3.31,13.82,9.42,0,7.26-5.99,10.95-18.08,10.95s-17.13-2.36-17.13-7.58h0ZM242.04,53.9c0-1.66-1.53-2.36-6.43-2.36h-6.05c-2.93.25-4.65,1.08-4.65,2.48,0,1.66,2.36,2.55,8.4,2.55s8.72-.89,8.72-2.67h0ZM236.69,28.94v-.38c0-2.67-1.66-4.33-4.2-4.33s-4.01,1.72-4.01,4.39v.38c0,2.67,1.46,4.2,4.01,4.2,2.74,0,4.2-1.46,4.2-4.27h0Z"/>
  <path class="cls-1" d="M253.82,6.34h12.16v8.98h-12.16V6.34ZM253.95,18.5h11.97v30.05h-11.97v-30.05h0Z"/>
  <path class="cls-1" d="M270.63,6.02h12.03v42.53h-12.03V6.02Z"/>
  <path class="cls-1" d="M286.04,40.66c0-6.56,5.86-8.15,11.65-9.3,4.65-.89,7.96-1.02,8.21-2.55v-.19c0-1.91-1.21-2.93-3.63-2.93-2.74,0-4.14,1.27-4.27,3.44v.51h-11.21c.13-7.26,5.67-11.91,15.6-11.91s15.35,3.88,15.35,13.24v17.57h-11.91v-4.2c-1.72,2.99-4.84,5.09-9.49,5.09-6.3,0-10.32-3.38-10.32-8.79l.02.02ZM305.91,38.11v-3.63c-1.08.51-2.48.76-3.82,1.15-2.23.64-4.08,1.4-4.08,3.82,0,1.59,1.08,2.8,3.06,2.8,2.36,0,4.46-1.21,4.84-4.14Z"/>
  <g>
    <path class="cls-2" d="M340.35,19.91V0h79.88v55.45h-.72c.02-.11-.01-.2-.11-.25-.13-.07-.2-.19-.25-.33-.1-.28-.28-.51-.45-.75-.01-.02-.03-.03-.04-.04-.07-.07-.14-.14-.21-.21-.11-.11-.21-.22-.32-.32-.05-.05-.09-.09-.1-.16-.01-.1-.07-.15-.16-.19-.02-.01-.04-.02-.08-.04.03-.03.06-.05.08-.07.05-.07.04-.13-.05-.15-.1-.01-.14-.07-.16-.15,0-.03-.01-.05-.03-.07,0,0-.02,0-.04-.02,0,.05,0,.1-.01.15-.08.03-.14,0-.2-.03-.07-.04-.14-.09-.16-.17-.03-.12-.11-.19-.22-.24-.05-.02-.08-.06-.13-.1-.11-.09-.19-.18-.18-.34,0-.09-.02-.11-.12-.13-.03,0-.07,0-.09-.03-.13-.13-.3-.16-.46-.24-.16-.08-.33-.11-.5-.11-.05,0-.11-.01-.14.05-.02.05.02.09.04.13.02.02.03.05.05.1-.09.03-.17.05-.24.07-.07.02-.11.11-.21.1-.03-.14-.03-.13-.14-.23-.11-.1-.21-.2-.27-.34-.04-.09-.09-.17-.14-.24-.06-.09-.13-.18-.24-.24-.11-.06-.19-.14-.26-.24-.1-.16-.23-.3-.36-.43-.07-.08-.15-.16-.22-.24-.1-.11-.1-.23-.03-.35.02-.04.05-.08.07-.12.05-.08.05-.17-.01-.24-.08-.1-.17-.21-.26-.31-.07-.07-.15-.14-.21-.21-.3-.37-.59-.75-.89-1.13-.07-.09-.12-.19-.13-.31-.02-.12-.03-.25-.05-.38-.02-.12-.04-.24-.06-.35,0-.01-.03-.02-.04-.03-.01.01-.03.03-.03.04,0,.12,0,.12-.1.14-.07,0-.14.01-.22.02,0,.02,0,.05,0,.07,0,.03,0,.06,0,.1-.16-.03-.23-.08-.32-.19-.08-.1-.16-.2-.23-.3-.03-.04-.06-.07-.11-.08-.03,0-.07-.01-.1-.02-.11-.02-.2-.06-.25-.18-.02-.04-.06-.07-.09-.11-.07-.08-.14-.16-.2-.24.02-.04.03-.06.05-.1-.04-.05-.09-.11-.14-.17-.13.05-.27.06-.42.04.1.21.17.4.19.62-.07.04-.13.07-.19.1-.35-.18-.58-.49-.87-.72,0,0,0,0-.01-.02-.05-.12-.15-.19-.23-.27-.03-.03-.05-.06-.07-.09-.04-.06-.08-.12-.12-.18-.04-.06-.09-.11-.12-.18-.03-.09-.08-.16-.18-.2-.03-.01-.06-.03-.08-.06-.08-.12-.21-.2-.3-.31-.06-.08-.17-.09-.23-.16-.12-.13-.26-.22-.36-.37-.05-.08-.13-.14-.23-.18-.1-.04-.18-.11-.24-.2-.08-.14-.2-.25-.33-.34-.1-.07-.19-.14-.27-.23,0,0,0-.02-.01-.04,0-.04.08-.06.05-.12-.05-.02-.09-.04-.15-.06.01-.03.02-.06.03-.08.01.01.03.02,0,0,.03,0,0,0-.01,0,.03-.04.06-.09.12-.09.05,0,.11-.02.15-.04.07-.03.13,0,.18.04.03.03.04.08.07.09.11.04.17.12.24.2.07.07.15.12.2.22,0,.01.04.02.05.03.02.02.06.04.07.07.02.09.09.13.15.17.06.04.12.09.18.14-.02.09.02.16.11.19.1.04.16.12.23.19.06.07.12.14.2.19.03.01.05.05.06.07.05.11.14.17.23.24.09.07.18.14.25.23.09.11.19.2.32.27.05.03.09.06.12.1.1.12.2.23.31.34.06.07.13.1.24.07,0-.08,0-.16,0-.24,0-.01,0-.03,0-.04-.03-.04-.06-.07-.08-.11-.01-.02-.02-.04-.03-.05-.05-.09-.12-.16-.22-.19-.06-.02-.1-.06-.13-.11-.02-.04-.05-.08-.08-.11-.08-.09-.15-.19-.23-.28-.04-.05-.09-.09-.14-.14-.02-.02-.05-.05-.07-.07-.06-.11-.16-.18-.26-.24-.03-.02-.07-.04-.09-.08-.04-.08-.1-.12-.16-.18-.09-.09-.2-.15-.27-.26-.11-.18-.25-.33-.5-.29-.01,0-.03,0-.04,0-.18-.01-.29-.11-.31-.3-.01-.08,0-.17-.01-.26-.02-.08-.12-.12-.14-.21,0-.01,0-.02-.02-.04-.06-.09-.1-.1-.21-.05-.08.04-.12.03-.14-.07-.02-.07-.04-.13-.08-.18-.08-.08-.08-.18-.05-.28.03-.08.05-.17.02-.25-.06-.19.02-.34.12-.49.04-.06.09-.11.17-.13.17-.04.27-.16.32-.32.02-.07.05-.14.07-.21.02-.06.05-.12.04-.17-.03-.16,0-.32-.03-.47-.02-.11-.03-.23-.07-.33-.04-.13-.1-.26-.17-.38-.08-.14-.17-.27-.3-.37-.1-.08-.2-.17-.28-.28-.1-.14-.23-.25-.4-.32-.18-.08-.35-.16-.55-.15-.12,0-.18-.07-.22-.17-.01-.03-.02-.06-.02-.1-.01-.19-.09-.38-.13-.56-.02-.08-.05-.15-.08-.23-.11-.28-.24-.55-.34-.83-.09-.24-.25-.45-.45-.6-.24-.18-.51-.31-.82-.35-.11-.02-.22-.03-.34-.02-.12.01-.18-.03-.23-.15-.01-.03-.02-.06-.03-.09-.04-.12-.08-.24-.12-.36-.05-.15-.11-.3-.15-.45-.02-.11-.05-.21-.11-.3-.03-.05-.05-.11-.08-.16-.1-.18-.22-.33-.39-.44-.22-.14-.45-.25-.7-.33-.39-.12-.77-.1-1.15.07-.15.07-.27.17-.41.24-.05.03-.1.06-.16.08-.06.02-.13-.01-.14-.08,0-.06,0-.12,0-.18.02-.18.03-.36.06-.54.04-.28-.02-.53-.16-.77-.03-.06-.07-.11-.12-.16-.11-.09-.21-.18-.33-.25-.22-.13-.46-.25-.69-.36-.11-.05-.24-.1-.36-.12-.24-.05-.48-.08-.73-.12-.13-.02-.26-.01-.4,0-.26.02-.51.09-.77.13-.14.02-.25.1-.35.19-.05.04-.09.1-.14.14-.12.11-.19.11-.31,0-.13-.12-.25-.23-.38-.35-.12-.11-.25-.22-.36-.35-.21-.26-.43-.5-.68-.73-.34-.3-.66-.62-.97-.95-.13-.14-.27-.26-.44-.34-.11-.05-.19-.13-.24-.23-.06-.12-.15-.17-.27-.17-.02,0-.04,0-.06,0-.08,0-.14-.05-.17-.12-.05-.13-.09-.26-.07-.41,0-.05.03-.09.08-.11.02,0,.04-.01.06-.02.04-.02.06-.06.04-.1-.04-.11-.09-.22-.14-.33-.1-.2-.23-.38-.27-.6,0-.04-.05-.08-.07-.12-.13-.18-.31-.33-.42-.53-.02-.03-.04-.06-.07-.07-.13-.07-.16-.19-.17-.32,0-.04-.02-.09-.04-.13-.06-.08-.13-.17-.23-.21-.07-.02-.11-.07-.15-.12-.1-.13-.22-.2-.39-.21-.14-.02-.29-.04-.41-.14-.03-.02-.07-.03-.11-.05-.26-.11-.51-.23-.78-.31,0,0-.01,0-.02-.01-.15-.08-.3-.1-.46-.07-.05,0-.09.02-.13,0-.12-.07-.25-.02-.37-.01-.08,0-.09.1-.15.12,0,0-.01,0-.03,0-.02,0-.04-.01-.06-.03-.08-.07-.17-.06-.26-.04-.03,0-.07.02-.09.03-.07.04-.14.06-.23.06-.08,0-.16.03-.22.08-.03.02-.04.06-.06.1,0,.03.02.06-.03.09-.09-.08-.19-.06-.28.01-.05.04-.1.08-.16.13.03.04.06.08.09.13-.04.02-.06.04-.08.04-.04,0-.08,0-.12,0-.07,0-.12.02-.18.07-.08.06-.05.16-.07.23-.03,0-.05.01-.07.01-.1-.02-.18.02-.25.1-.04.04-.08.09-.11.14-.03.06-.07.11-.14.14-.04.02-.07.04-.1.06-.12.07-.18.17-.15.32-.06.02-.12.05-.18.08-.07.04-.13.09-.17.17-.03.05,0,.1.01.15,0,.01,0,.02-.01.04-.05.03-.11.06-.17.09-.1.06-.16.13-.16.26,0,.11-.04.22-.11.32-.04.05-.05.12-.07.18-.01.04.02.08.06.09.03,0,.05.01.08.02h0c-.04.06-.08.12-.12.18-.03.04-.07.08-.1.12-.05.06-.06.14-.02.21.04.07.11.07.18.06.07,0,.14-.02.22-.03-.09.11-.08.11-.17.15-.2.08-.24.24-.24.42,0,.08.08.13.15.1.04-.01.07-.04.1-.06.05-.03.11-.05.16-.07.03-.01.06,0,.06.05-.08.06-.16.12-.23.19-.22.21-.18.19-.14.43,0,.01,0,.03,0,.04.03.08.11.11.17.05.08-.09.19-.12.29-.17.01,0,.04,0,.05.02.01.01.02.04.01.05-.02.04-.05.08-.09.11-.08.07-.12.16-.17.25-.01.03-.03.07-.02.09.02.08.05.16.09.24.02.04.07.05.1.02.03-.03.06-.06.08-.09.03-.03.07-.04.11-.02.05.02.08.06.07.11,0,.04-.02.08-.04.11-.05.13-.04.26.03.39.07.13.13.26.16.41.02.1.08.18.16.25.11.09.21.19.32.27.13.11.28.16.45.11.11-.03.17,0,.24.08.06.08.14.14.22.2.03.03.09.05.13.04.14-.03.23.03.32.12.04.04.09.06.13.09.08.06.16.09.26.07.08-.01.14,0,.21.04.11.06.23.11.36.1.15,0,.28.03.4.1.1.06.21.08.33.07.08,0,.16,0,.24.03.17.05.32.13.44.26.06.07.14.13.22.17.12.05.21.13.29.23.12.14.24.28.41.37.17.08.32.19.46.32.04.04.1.06.16.08.09.03.17.08.23.15.06.07.13.13.23.16.1.03.19.08.28.15.09.07.19.12.31.12.07,0,.15.01.2.08,0,.03,0,.07-.01.11-.03.1.01.17.09.23.14.1.28.21.43.3.27.16.51.36.72.59.09.1.12.2.06.33-.04.1-.08.2-.1.3-.03.23-.1.44-.17.66-.11.32-.23.64-.35.96-.07.21-.14.41-.21.62,0,.02,0,.04,0,.06-.03.18-.07.35-.09.53-.05.3-.12.58-.16.88-.05.4-.11.79-.17,1.19-.02.17-.04.34-.08.51-.09.38-.07.77-.04,1.15.03.42.06.84.07,1.26.01.55.02,1.09,0,1.64,0,.03,0,.05,0,.08,0,.26.02.52.03.78,0,.06,0,.12,0,.18,0,.2-.02.4-.02.6,0,.31,0,.61.02.92,0,.07.02.15.02.22,0,.07.01.15.01.22,0,.11,0,.21,0,.32,0,.2.02.4-.02.6-.03.15-.05.3-.05.46,0,.28-.05.56-.13.83-.01.04-.02.08-.02.12-.02.18-.05.35-.14.52-.01.03-.03.06-.03.09-.05.26-.17.51-.17.78,0,.02,0,.04-.01.06-.07.3-.14.6-.2.9-.04.17-.04.34-.08.51-.05.21-.06.43-.09.65-.04.31-.07.62-.11.93,0,.03,0,.07-.02.1-.04.18-.06.37-.05.56h-5.48c0-.22-.12-.4-.18-.61,0-.03-.04-.05-.06-.08-.03-.03-.06-.05-.09-.07-.01-.16-.01-.16-.08-.27-.07-.13-.13-.26-.23-.37-.06-.06-.09-.14-.16-.2-.04-.03-.07-.08-.09-.13-.05-.14-.11-.29-.14-.44-.1-.48-.16-.97-.17-1.47,0-.09-.02-.17-.03-.26-.01-.11-.07-.17-.17-.23-.35-.19-.69-.38-1.03-.58-.12-.07-.24-.14-.36-.22-.08-.05-.13-.11-.14-.21-.02-.15-.05-.3-.08-.45-.02-.13-.03-.27-.07-.39-.13-.5-.26-1-.4-1.5-.05-.19-.13-.38-.21-.56-.07-.17-.16-.34-.19-.52-.04-.26-.14-.51-.23-.76-.04-.1-.08-.2-.12-.3-.12-.27-.26-.54-.35-.83-.03-.08-.07-.16-.1-.24-.11-.27-.28-.5-.43-.74-.32-.52-.62-1.06-.87-1.62-.07-.15-.16-.28-.3-.39-.36-.27-.75-.51-1.13-.75-.27-.18-.56-.34-.83-.51-.28-.18-.57-.35-.86-.51-.19-.11-.38-.21-.58-.31-.27-.14-.53-.31-.81-.43-.11-.04-.2-.11-.28-.19-.32-.31-.63-.63-.95-.94-.06-.06-.12-.11-.15-.2.04-.07.07-.15.12-.22.07-.1.14-.19.22-.29.31-.42.65-.81,1.05-1.14.32-.27.66-.5,1-.73.38-.25.75-.5,1.13-.75.34-.22.69-.43,1.03-.65.11-.07.22-.15.33-.22.12-.08.25-.16.39-.2.24-.06.47-.14.72-.18.34-.05.63-.19.94-.32.13-.05.26-.13.38-.21.25-.17.49-.37.67-.62.08-.12.13-.25.2-.37.13-.22.18-.47.21-.72.03-.25,0-.5-.03-.75,0-.05-.02-.11-.02-.16,0-.09-.03-.18-.07-.27-.07-.14-.12-.28-.17-.42-.06-.16-.12-.32-.18-.49-.02-.04-.04-.08-.05-.13-.08-.35-.13-.71-.04-1.07.05-.19.1-.37.15-.56.02-.07.06-.13.11-.18.18-.17.21-.39.14-.61-.07-.26-.21-.49-.38-.69-.06-.07-.12-.12-.19-.18-.06-.05-.12-.08-.19-.1-.12-.03-.25-.05-.36-.12-.04-.02-.1-.03-.15-.04-.11-.02-.21-.03-.32-.04-.24-.03-.24-.03-.28-.27-.02-.1,0-.18.09-.24.07-.05.13-.11.2-.17.09-.07.18-.14.28-.19.11-.05.22-.12.32-.2.09-.07.18-.14.23-.25.12-.28.12-.57.04-.86-.02-.08-.07-.15-.12-.23-.02-.04-.05-.08-.07-.12-.24-.33-.39-.71-.64-1.03-.08-.11-.16-.21-.25-.31-.1-.11-.2-.23-.28-.36-.08-.12-.07-.2.04-.29.13-.11.26-.21.4-.29.29-.17.52-.41.74-.66.13-.14.21-.32.31-.49.01-.02.02-.05.03-.07.04-.23.11-.45.1-.69,0-.19-.06-.37-.1-.55-.16-.34-.32-.68-.64-.9-.05-.03-.09-.08-.13-.12-.12-.13-.29-.21-.41-.34,0,0-.01,0-.02-.01-.38-.22-.68-.55-.99-.87-.17-.18-.33-.37-.52-.52-.06-.05-.12-.1-.18-.16-.15-.16-.3-.32-.46-.47-.13-.12-.19-.25-.21-.42-.02-.22-.06-.43-.14-.64-.07-.19,0-.37.09-.53.09-.14.15-.28.15-.44,0-.11.03-.22.06-.33.03-.1.06-.2.01-.31-.02-.05-.01-.11,0-.16,0-.11,0-.21,0-.32,0-.07,0-.15,0-.22.01-.2-.08-.33-.24-.42-.13-.08-.26-.17-.34-.3-.11-.18-.2-.36-.32-.53-.03-.05-.06-.1-.09-.16-.1-.2-.2-.41-.3-.61-.04-.08-.1-.14-.13-.22-.06-.2-.18-.38-.27-.58-.11-.24-.22-.48-.34-.72-.08-.17-.13-.36-.25-.52-.02-.03-.03-.06-.04-.09-.04-.14-.11-.26-.24-.33.03-.11-.03-.18-.11-.24-.1-.08-.16-.17-.17-.3,0-.01-.01-.02-.02-.04-.03-.01-.07-.03-.11-.04.03-.04.05-.07.07-.1.06,0,.12-.02.18-.03.02,0,.05.02.08.02.02,0,.06-.01.07-.03,0-.02,0-.06-.02-.07-.04-.04-.06-.07-.04-.14.03-.08-.03-.12-.12-.1-.18.04-.2.02-.16-.16,0-.01,0-.03,0-.04-.11-.1-.11-.1-.22-.1-.05,0-.09,0-.13-.02-.04-.02-.09-.03-.13-.03-.21-.03-.21-.02-.19-.25,0-.1.03-.21-.02-.31-.13-.03-.25-.07-.38-.05-.03,0-.06-.02-.09-.03,0-.03,0-.06,0-.09-.02-.16-.03-.32-.07-.47-.02-.09-.04-.17-.02-.25.03-.15.03-.29-.01-.41.02-.08.04-.14.05-.21,0-.02-.02-.05-.04-.06-.01,0-.04,0-.05,0-.06.04-.11.09-.17.13-.01.19-.06.27-.2.3-.03-.06-.04-.14-.09-.17-.12-.08-.14-.21-.17-.32,0-.01-.02-.02-.03-.03-.09,0-.17-.02-.26-.02-.02.02-.05.05-.09.08-.04-.17-.08-.32-.11-.47-.02-.07-.04-.12-.12-.14-.01.06-.03.11-.03.16,0,.06,0,.12,0,.19-.1-.03-.15-.08-.17-.17-.01-.07-.02-.14-.02-.22,0-.03,0-.06,0-.08,0-.02-.03-.05-.06-.05-.02,0-.06,0-.07.02-.03.04-.06.09-.08.12-.16.01-.26-.06-.34-.17-.03-.04-.05-.08,0-.13.03.02.07.03.1.05.04-.02.05-.05.03-.08-.04-.05-.09-.08-.12-.13-.05-.06-.11-.09-.18-.12-.12-.04-.24-.09-.34-.16-.15-.09-.3-.2-.44-.31-.09-.06-.18-.11-.26-.18-.14-.11-.29-.18-.45-.25-.14-.06-.28-.11-.43-.17-.08-.03-.14-.05-.22.02-.07.05-.1.04-.18-.04,0-.05.1-.01.09-.09-.13-.05-.27-.11-.4-.16-.02,0-.05,0-.09.01.04.05.07.09.09.13.01.02.02.05.02.07-.01.04-.05.04-.08.03-.02,0-.04-.01-.06-.01-.25-.03-.5-.06-.75-.09-.06,0-.12-.01-.18-.03-.08-.03-.17-.04-.25-.03-.17.03-.33,0-.5-.02-.09-.01-.17-.01-.26-.02-.13-.02-.25-.04-.37-.06-.08-.02-.15-.03-.24-.02-.13,0-.27.02-.39-.06-.05-.03-.1-.03-.16-.01-.2.06-.4.02-.59,0-.21-.02-.41,0-.62,0-.05,0-.11.01-.16.03-.24.09-.5.05-.74.15,0,0-.01,0-.02,0-.25,0-.49.04-.74.01-.17-.02-.35-.03-.51.06-.03.02-.06.01-.1.02-.16.03-.32.05-.47.09-.21.05-.41.1-.63.11-.04,0-.08,0-.12.02-.19.04-.39.09-.58.14-.03,0-.07.04-.09.07-.04.07-.11.09-.18.11-.12.03-.24.06-.37.09-.05.01-.1.03-.13.08-.05.07-.11.09-.19.07-.08-.02-.16-.01-.23.03-.11.07-.23.1-.36.12-.07,0-.12.05-.17.09-.14.1-.27.21-.45.25-.15.03-.29.09-.38.24-.02.03-.06.05-.1.06-.18.05-.35.12-.51.22-.04.03-.1.06-.15.05-.15-.01-.27.07-.4.11-.21.07-.42.17-.62.27-.19.1-.36.22-.54.34-.04.03-.09.07-.14.07-.16,0-.3.07-.43.15-.14.09-.29.18-.41.31-.11.14-.28.22-.43.32-.03.02-.08.02-.11.04-.07.03-.14.06-.19.1-.05.05-.09.12-.14.17-.05.05-.12.08-.17.14-.06.08-.14.14-.24.18-.09.04-.16.09-.23.16-.15.13-.29.27-.47.37-.02.01-.04.03-.06.05-.23.18-.41.41-.66.58-.04.02-.06.07-.08.11-.04.06-.08.12-.13.17-.09.08-.18.16-.24.26-.12.04-.19.14-.29.21-.03.02-.06.04-.08.06-.08.13-.19.22-.28.34-.07.08-.13.16-.16.27-.01.05-.06.1-.1.15-.1.12-.2.23-.29.35-.08.1-.15.2-.27.26-.04.02-.08.07-.11.12-.1.15-.22.28-.35.41-.06.05-.1.12-.16.18-.18.22-.27.49-.43.72,0,.01-.01.02-.01.04-.05.2-.18.37-.26.56-.05.12-.12.24-.16.36-.07.22-.12.45-.23.66,0,.01,0,.03-.01.04-.02.03-.03.06-.05.08-.15.15-.23.36-.41.48-.02.02-.04.06-.04.09,0,.08-.03.14-.1.19-.02,0-.03.03-.04.05-.04.14-.18.23-.2.39,0,.01,0,.03-.02.04-.06.05-.08.12-.07.2,0,.07-.02.13-.07.18-.11.12-.15.26-.15.42,0,.25.08.48.1.73,0,0,0,.01,0,.02.06.16.11.31.17.47.03.09.06.18.09.27,0,.02.01.06,0,.08-.06.1-.04.19-.01.29.04.15,0,.29-.15.37-.12.07-.18.08-.29-.01-.03-.02-.05-.04-.07-.07-.05-.11-.16-.13-.25-.12-.14.01-.26-.03-.38-.08-.16-.07-.32-.09-.48.01-.02.01-.05.02-.07.03-.11.07-.22.05-.32,0-.1-.06-.2-.06-.31-.07-.09-.01-.15.06-.14.17,0,.02,0,.04,0,.06-.04.03-.08.05-.11.08-.02.03-.03.07-.05.1h0c-.07-.02-.14-.04-.21.02-.05.05-.11.05-.17.02-.11-.05-.2-.02-.27.06-.04.04-.09.08-.12.13-.03.04-.06.07-.11.08-.12.05-.23.07-.34,0-.08-.05-.13-.03-.15.05-.06.19-.15.35-.27.51-.03.04-.05.08-.05.13,0,.17-.05.33-.11.48-.03.08-.02.14.02.2-.05.05-.09.1-.14.14-.13.11-.21.28-.36.37-.08.05-.07.1,0,.17.08.07.09.16.03.24-.02.03-.05.04-.07.07,0,.06,0,.12,0,.18-.01.11-.06.19-.17.25-.13.07-.26.11-.39.14-.07.01-.14.02-.22.03-.08-.06-.16-.11-.25-.16-.01,0-.04,0-.05.01-.01.01-.02.04-.02.05.02.04.04.08.07.12-.04.05-.08.09-.13.14.02.03.03.05.05.07.05.08.05.11,0,.17-.06.07-.13.09-.22.08ZM409.46,45.31s-.03-.03-.05-.03c-.01,0-.03.02-.03.03,0,.01.02.03.03.03.01,0,.03-.02.05-.03ZM374.41,6.03s0-.01,0-.01c0,0-.01,0-.02,0,0,0,0,.02.01.02,0,0,0,0,.01-.01Z"/>
    <path class="cls-1" d="M340.35,19.91c.08,0,.16-.01.22-.08.05-.06.06-.1,0-.17-.01-.02-.03-.04-.05-.07.04-.05.08-.09.13-.14-.02-.04-.05-.08-.07-.12,0-.01,0-.04.02-.05.01-.01.04-.02.05-.01.08.05.17.11.25.16.07-.01.14-.02.22-.03.14-.03.27-.07.39-.14.11-.06.15-.14.17-.25,0-.06,0-.12,0-.18.03-.02.06-.04.07-.07.06-.08.05-.17-.03-.24-.08-.07-.09-.12,0-.17.15-.09.23-.26.36-.37.05-.04.09-.09.14-.14-.05-.06-.06-.12-.02-.2.06-.15.12-.31.11-.48,0-.04.02-.09.05-.13.11-.16.21-.32.27-.51.03-.08.07-.1.15-.05.12.07.23.05.34,0,.04-.02.08-.04.11-.08.03-.05.08-.09.12-.13.08-.07.17-.11.27-.06.06.03.12.03.17-.02.06-.06.13-.04.21-.03,0,.05.01.11.07.13.02,0,.06,0,.07,0,.02-.02,0-.05-.02-.06-.04-.02-.09-.03-.13-.05.02-.03.03-.08.05-.1.03-.03.07-.06.11-.08,0-.02,0-.04,0-.06,0-.11.05-.18.14-.17.1.01.21.01.31.07.1.06.21.07.32,0,.02-.01.05-.02.07-.03.16-.1.32-.08.48-.01.12.05.24.09.38.08.09,0,.2.01.25.12.01.03.04.05.07.07.11.09.16.08.29.01.16-.09.19-.22.15-.37-.02-.1-.05-.19.01-.29.01-.02,0-.05,0-.08-.03-.09-.06-.18-.09-.27-.06-.16-.11-.31-.17-.47,0,0,0-.01,0-.02-.01-.25-.1-.48-.1-.73,0-.16.04-.3.15-.42.05-.05.08-.11.07-.18-.01-.08,0-.14.07-.2,0,0,.02-.02.02-.04.02-.15.16-.24.2-.39,0-.02.02-.04.04-.05.07-.04.09-.11.1-.19,0-.03.02-.07.04-.09.18-.13.26-.33.41-.48.02-.02.04-.06.05-.08,0-.01,0-.03.01-.04.11-.21.16-.43.23-.66.04-.13.11-.24.16-.36.08-.19.21-.35.26-.56,0-.01,0-.03.01-.04.17-.23.25-.5.43-.72.05-.06.1-.13.16-.18.13-.12.25-.26.35-.41.03-.04.06-.09.11-.12.11-.06.19-.17.27-.26.1-.12.2-.23.29-.35.04-.05.08-.09.1-.15.03-.11.09-.19.16-.27.09-.11.2-.21.28-.34.02-.03.05-.04.08-.06.09-.07.17-.17.29-.21.06-.1.16-.18.24-.26.05-.05.09-.12.13-.17.03-.04.05-.09.08-.11.24-.17.43-.4.66-.58.02-.02.04-.04.06-.05.18-.1.32-.23.47-.37.07-.06.14-.12.23-.16.09-.04.17-.1.24-.18.04-.06.12-.09.17-.14.05-.05.08-.12.14-.17.05-.05.13-.07.19-.1.04-.02.08-.02.11-.04.15-.1.31-.18.43-.32.11-.14.26-.22.41-.31.13-.08.26-.16.43-.15.05,0,.09-.04.14-.07.18-.11.35-.24.54-.34.2-.11.41-.2.62-.27.13-.04.25-.12.4-.11.05,0,.1-.03.15-.05.16-.1.33-.17.51-.22.04-.01.08-.03.1-.06.09-.14.24-.2.38-.24.18-.04.31-.15.45-.25.06-.04.11-.08.17-.09.13-.02.25-.05.36-.12.07-.04.15-.05.23-.03.08.02.15,0,.19-.07.03-.05.08-.06.13-.08.12-.03.25-.06.37-.09.07-.02.14-.05.18-.11.02-.03.06-.06.09-.07.19-.05.39-.09.58-.14.04,0,.08-.02.12-.02.21,0,.42-.05.63-.11.15-.04.31-.06.47-.09.03,0,.07,0,.1-.02.16-.09.34-.08.51-.06.25.03.49,0,.74-.01,0,0,.01,0,.02,0,.24-.1.5-.06.74-.15.05-.02.1-.03.16-.03.2,0,.41-.02.62,0,.19.02.4.05.59,0,.05-.02.11-.02.16.01.12.08.26.07.39.06.08,0,.16,0,.24.02.12.03.25.04.37.06.09.01.17.01.26.02.16.02.33.05.5.02.08-.01.17,0,.25.03.06.02.12.03.18.03.25.03.5.06.75.09.02,0,.04.01.06.01.03,0,.07,0,.08-.03,0-.02,0-.05-.02-.07-.02-.04-.05-.07-.09-.13.05,0,.07-.02.09-.01.14.05.27.11.4.16,0,.08-.08.04-.09.09.08.08.11.1.18.04.08-.06.15-.05.22-.02.14.06.29.1.43.17.16.07.32.14.45.25.08.07.18.12.26.18.15.1.29.21.44.31.11.07.22.12.34.16.07.03.13.06.18.12.04.05.08.09.12.13.02.03.02.06-.03.08-.03-.02-.06-.03-.1-.05-.05.05-.02.09,0,.13.08.11.18.18.34.17.02-.03.05-.08.08-.12.01-.02.05-.03.07-.02.02,0,.05.03.06.05,0,.02,0,.05,0,.08,0,.07,0,.15.02.22.02.08.06.14.17.17,0-.07,0-.13,0-.19,0-.05.02-.1.03-.16.08.02.1.07.12.14.03.15.07.31.11.47.04-.03.07-.06.09-.08.09,0,.17.02.26.02,0,0,.02.02.03.03.04.12.06.24.17.32.05.03.06.11.09.17.14-.03.19-.11.2-.3.05-.04.11-.09.17-.13.01-.01.04-.02.05,0,.02.01.04.04.04.06-.01.06-.03.13-.05.21.04.12.05.27.01.41-.02.09,0,.17.02.25.04.15.05.31.07.47,0,.03,0,.05,0,.09.03.01.06.03.09.03.13-.02.25.02.38.05.05.1.03.21.02.31-.02.22-.02.22.19.25.05,0,.09.01.13.03.04.02.09.02.13.02.11,0,.11,0,.22.1,0,.01,0,.03,0,.04-.04.18-.02.2.16.16.09-.02.14.02.12.1-.02.07,0,.1.04.14.02.01.03.05.02.07,0,.02-.04.03-.07.03-.03,0-.05-.02-.08-.02-.06,0-.12.02-.18.03-.02.03-.04.06-.07.1.05.02.08.03.11.04,0,.01.02.02.02.04,0,.13.07.23.17.3.08.06.14.13.11.24.13.08.21.19.24.33,0,.03.02.07.04.09.12.16.17.34.25.52.11.24.23.48.34.72.08.19.2.37.27.58.03.08.09.15.13.22.1.2.2.41.3.61.03.05.05.11.09.16.12.17.21.35.32.53.08.13.2.22.34.3.16.1.25.23.24.42,0,.07,0,.15,0,.22.01.11.01.21,0,.32,0,.05-.01.11,0,.16.05.11.02.21-.01.31-.03.11-.06.22-.06.33,0,.16-.07.31-.15.44-.1.16-.16.34-.09.53.08.21.11.43.14.64.02.17.08.3.21.42.16.15.31.31.46.47.06.06.12.11.18.16.19.16.35.34.52.52.3.32.6.64.99.87,0,0,.01,0,.02.01.12.13.29.21.41.34.04.04.08.09.13.12.32.22.48.57.64.9.03.18.09.36.1.55,0,.24-.06.46-.1.69,0,.03-.01.05-.03.07-.11.16-.18.34-.31.49-.23.24-.45.49-.74.66-.14.08-.28.19-.4.29-.12.1-.13.17-.04.29.09.13.18.25.28.36.09.1.17.2.25.31.24.33.4.7.64,1.03.03.04.05.08.07.12.04.08.09.15.12.23.08.29.08.58-.04.86-.04.11-.13.18-.23.25-.1.07-.21.14-.32.2-.1.05-.2.11-.28.19-.07.06-.13.12-.2.17-.08.06-.11.14-.09.24.04.24.04.24.28.27.11.01.21.03.32.04.05,0,.11.01.15.04.11.06.24.09.36.12.08.02.14.05.19.1.07.06.13.11.19.18.18.2.31.44.38.69.06.22.04.44-.14.61-.06.05-.09.11-.11.18-.05.19-.1.37-.15.56-.09.36-.04.71.04,1.07.01.04.04.09.05.13.06.16.12.33.18.49.05.14.1.29.17.42.04.09.07.17.07.27,0,.05.01.11.02.16.04.25.07.5.03.75-.03.25-.07.5-.21.72-.07.12-.12.25-.2.37-.18.25-.41.45-.67.62-.12.08-.25.16-.38.21-.31.12-.61.27-.94.32-.24.04-.48.11-.72.18-.14.04-.27.12-.39.2-.11.07-.22.15-.33.22-.34.22-.69.43-1.03.65-.38.25-.76.5-1.13.75-.34.23-.69.46-1,.73-.4.34-.74.73-1.05,1.14-.07.1-.15.19-.22.29-.05.07-.08.15-.12.22.03.09.09.15.15.2.32.31.63.63.95.94.08.08.17.15.28.19.29.11.54.29.81.43.2.1.39.21.58.31.29.16.58.33.86.51.27.18.56.34.83.51.38.24.76.48,1.13.75.14.1.24.24.3.39.25.56.55,1.09.87,1.62.15.24.32.47.43.74.03.08.07.16.1.24.09.29.23.55.35.83.04.1.08.2.12.3.09.25.19.5.23.76.03.19.12.35.19.52.08.18.16.37.21.56.14.5.27,1,.4,1.5.03.13.04.26.07.39.03.15.05.3.08.45.01.09.07.16.14.21.12.07.24.15.36.22.34.19.68.39,1.03.58.1.05.16.12.17.23,0,.09.03.17.03.26,0,.49.07.98.17,1.47.03.15.09.29.14.44.02.05.05.1.09.13.07.06.1.14.16.2.1.11.16.25.23.37.06.11.06.11.08.27.03.02.06.04.09.07.02.02.05.05.06.08.06.2.17.39.18.61h-44.3V21.75c.08,0,.15.02.22.07.05.04.1.02.13-.04,0-.01.01-.02.01-.04.02-.09.07-.14.16-.15.09-.02.17-.08.24-.13.1-.07.16-.17.23-.27.1-.14.12-.26.05-.41-.04-.09-.05-.17-.03-.27.02-.09,0-.14-.1-.16-.11-.02-.2-.07-.27-.14-.06,0-.12,0-.17,0-.11-.02-.21-.02-.32,0-.05.01-.11,0-.16.01,0-.11,0-.21,0-.32ZM345.84,18.4c0-.11,0-.2,0-.29,0-.06-.03-.1-.08-.12-.11-.04-.23-.04-.36-.02.04.09.09.15.11.22.03.09.07.15.13.21h.2ZM344.56,16s-.01-.03-.03-.04c-.01,0-.04-.01-.05,0-.04.03-.09.06-.13.09-.03.02-.02.07,0,.08.09.04.2-.02.2-.12ZM341.39,20.25s.04-.02.04-.03c.02-.04,0-.08-.03-.1,0,0-.02,0-.02,0-.01.01-.03.03-.03.05,0,.03.02.05.03.08ZM341.26,20.13s-.04-.03-.05-.04c0,0-.03.02-.03.02,0,.02.01.04.02.04,0,0,.03-.01.05-.02Z"/>
    <path class="cls-1" d="M405.91,42.42s-.02.05-.03.08c.05.02.1.04.15.06.04.06-.04.07-.05.12,0,.01,0,.03.01.04.08.09.17.16.27.23.13.09.25.19.33.34.05.1.14.17.24.2.1.04.17.11.23.18.1.14.24.24.36.37.06.07.16.08.23.16.09.11.22.19.3.31.02.03.05.05.08.06.09.04.15.12.18.2.03.07.07.12.12.18.04.06.08.12.12.18.02.03.05.06.07.09.08.09.18.16.23.27,0,0,0,.01.01.02.29.23.51.54.87.72.06-.03.12-.06.19-.1-.01-.22-.09-.41-.19-.62.16.02.29.01.42-.04.05.06.09.12.14.17-.02.03-.03.06-.05.1.07.08.14.16.2.24.03.04.07.07.09.11.05.12.14.15.25.18.03,0,.06.02.1.02.05,0,.08.04.11.08.08.1.15.2.23.3.09.11.17.16.32.19,0-.03,0-.06,0-.1,0-.03,0-.05,0-.07.08,0,.15,0,.22-.02.1-.01.1-.02.1-.14,0-.01.02-.03.03-.04.01.01.04.02.04.03.02.12.05.23.06.35.02.12.03.25.05.38.02.11.06.21.13.31.3.37.59.75.89,1.13.06.08.14.14.21.21.09.1.17.2.26.31.06.08.06.16.01.24-.02.04-.05.08-.07.12-.07.12-.07.24.03.35.07.08.14.16.22.24.13.13.26.27.36.43.06.1.15.19.26.24.11.05.17.14.24.24.05.08.1.16.14.24.06.14.16.25.27.34.11.1.11.09.14.23.09.01.13-.08.21-.1.08-.02.15-.04.24-.07-.02-.04-.03-.07-.05-.1-.03-.04-.06-.08-.04-.13.03-.06.09-.05.14-.05.18,0,.35.03.5.11.15.08.33.11.46.24.02.02.06.02.09.03.09.02.12.04.12.13-.01.15.07.25.18.34.04.03.08.07.13.1.11.05.19.12.22.24.02.08.09.13.16.17.06.03.12.06.2.03,0-.05,0-.1.01-.15.02,0,.04,0,.04.02.01.02.02.05.03.07.02.09.06.14.16.15.08.01.1.08.05.15-.02.02-.05.04-.08.07.03.02.05.03.08.04.08.04.14.1.16.19,0,.07.05.12.1.16.11.11.22.22.32.32.07.07.14.14.21.21.01.01.03.03.04.04.17.24.35.47.45.75.05.14.11.25.25.33.1.05.13.14.11.25h-12.99c.06-.26.14-.51.26-.75.17-.35.38-.67.6-.99.18-.27.38-.53.51-.84.09-.21.25-.36.45-.46.11-.05.22-.11.31-.18.19-.15.4-.27.62-.36.11-.05.16-.11.11-.26-.01-.04-.02-.08-.05-.11-.1-.15-.19-.3-.19-.5-.24-.1-.47-.2-.7-.29-.15-.06-.3-.1-.46-.12-.06,0-.12-.03-.17-.05-.08-.03-.15-.04-.23-.05-.13-.01-.27-.03-.39-.08-.23-.08-.47-.14-.71-.17-.18-.02-.33-.11-.48-.19-.03-.01-.05-.05-.06-.08-.01-.07-.02-.14.04-.2.07,0,.13.06.2.01,0-.01.02-.03.03-.05.02-.12.08-.19.21-.21.06,0,.09-.06.12-.1.04-.07.04-.11-.02-.16-.14-.12-.22-.26-.25-.44-.02-.14-.04-.27-.02-.42.01-.08.04-.15.1-.21.11-.1.21-.22.32-.33.11-.1.2-.21.22-.36.11-.13.1-.28.11-.43,0-.03,0-.07,0-.1.03-.21,0-.41-.16-.57-.14-.15-.29-.3-.43-.45-.38-.4-.8-.74-1.21-1.11-.04-.04-.08-.07-.13-.09-.07-.04-.13-.03-.18.03-.06.06-.1.14-.15.21-.04.07-.08.14-.12.21-.09.13-.19.26-.28.39-.11.15-.18.31-.24.48-.04.12-.09.23-.14.35-.05.12-.11.24-.15.37-.14.42-.29.84-.48,1.25-.11.24-.24.46-.35.7-.11.22-.25.41-.4.6-.14.17-.3.34-.45.51-.13.14-.25.28-.4.39-.03.02-.05.04-.07.07-.15.22-.31.44-.44.66-.19.31-.36.62-.53.94-.07.13-.13.26-.14.41,0,.05-.02.09-.03.14-.05.21-.1.41-.14.62-.04.23-.07.46-.11.69-.07.35-.13.71-.21,1.06-.05.18-.05.36.02.53.01.03.02.06.03.1h-9.96c0-.19,0-.37.05-.56,0-.03.01-.07.02-.1.04-.31.07-.62.11-.93.03-.22.04-.44.09-.65.04-.17.04-.34.08-.51.06-.3.14-.6.2-.9,0-.02.01-.04.01-.06,0-.27.12-.52.17-.78,0-.03.02-.06.03-.09.08-.16.12-.34.14-.52,0-.04.01-.08.02-.12.08-.27.12-.54.13-.83,0-.15.02-.31.05-.46.03-.2.02-.4.02-.6,0-.11,0-.21,0-.32,0-.07,0-.15-.01-.22,0-.07-.02-.15-.02-.22,0-.31-.02-.61-.02-.92,0-.2.01-.4.02-.6,0-.06,0-.12,0-.18,0-.26-.02-.52-.03-.78,0-.03,0-.05,0-.08.02-.55.01-1.09,0-1.64,0-.42-.04-.84-.07-1.26-.03-.38-.05-.77.04-1.15.04-.17.05-.34.08-.51.06-.4.12-.79.17-1.19.03-.3.11-.59.16-.88.03-.18.06-.35.09-.53,0-.02,0-.04,0-.06.07-.21.14-.41.21-.62.11-.32.24-.63.35-.96.07-.21.14-.43.17-.66.01-.1.05-.21.1-.3.06-.13.03-.23-.06-.33-.21-.23-.45-.43-.72-.59-.15-.09-.29-.19-.43-.3-.08-.05-.11-.13-.09-.23.01-.04.01-.08.01-.11-.06-.07-.13-.09-.2-.08-.12,0-.22-.05-.31-.12-.09-.07-.18-.12-.28-.15-.09-.03-.17-.08-.23-.16-.06-.08-.14-.12-.23-.15-.06-.02-.11-.05-.16-.08-.14-.13-.29-.23-.46-.32-.17-.09-.29-.22-.41-.37-.08-.1-.17-.18-.29-.23-.08-.03-.16-.1-.22-.17-.12-.13-.27-.21-.44-.26-.08-.02-.16-.03-.24-.03-.11,0-.22-.02-.33-.07-.12-.07-.25-.11-.4-.1-.13,0-.25-.04-.36-.1-.07-.04-.13-.06-.21-.04-.1.02-.18,0-.26-.07-.04-.03-.09-.06-.13-.09-.09-.09-.19-.15-.32-.12-.04,0-.09-.02-.13-.04-.08-.06-.16-.13-.22-.2-.07-.08-.13-.12-.24-.08-.16.05-.32,0-.45-.11-.11-.09-.21-.18-.32-.27-.08-.07-.13-.15-.16-.25-.03-.14-.09-.28-.16-.41-.07-.12-.07-.25-.03-.39.01-.04.03-.07.04-.11,0-.05-.02-.09-.07-.11-.04-.02-.08-.01-.11.02-.03.03-.05.06-.08.09-.03.03-.09.02-.1-.02-.03-.08-.06-.16-.09-.24,0-.03,0-.07.02-.09.05-.09.08-.18.17-.25.04-.03.06-.07.09-.11,0-.01,0-.04-.01-.05-.01-.01-.04-.02-.05-.02-.1.04-.21.08-.29.17-.06.07-.14.04-.17-.05,0-.01,0-.03,0-.04-.04-.25-.08-.23.14-.43.07-.07.15-.12.23-.19,0-.05-.03-.06-.06-.05-.06.02-.11.04-.16.07-.04.02-.07.05-.1.06-.08.03-.16-.02-.15-.1,0-.18.05-.34.24-.42.09-.03.08-.04.17-.15-.08.01-.15.03-.22.03-.07,0-.14,0-.18-.06-.04-.07-.02-.14.02-.21.03-.04.07-.08.1-.12.04-.06.08-.12.12-.18.04,0,.08,0,.12,0,0,0,.02-.03.01-.03-.01-.01-.04-.03-.04-.03-.03.02-.06.05-.09.07-.03,0-.05,0-.08-.02-.04-.01-.07-.05-.06-.09.02-.06.03-.13.07-.18.07-.1.11-.2.11-.32,0-.12.06-.2.16-.26.06-.03.12-.06.17-.09,0-.02.01-.03.01-.04,0-.05-.04-.1-.01-.15.04-.07.09-.13.17-.17.06-.03.12-.05.18-.08-.03-.15.03-.25.15-.32.03-.02.07-.04.1-.06.06-.03.11-.07.14-.14.03-.05.07-.1.11-.14.07-.07.15-.11.25-.1.02,0,.04,0,.07-.01.02-.08,0-.17.07-.23.06-.04.11-.07.18-.07.04,0,.08.01.12,0,.02,0,.05-.02.08-.04-.03-.05-.06-.09-.09-.13.06-.05.11-.09.16-.13.09-.08.19-.1.28-.01.05-.02.02-.06.03-.09.01-.04.03-.08.06-.1.06-.05.14-.09.22-.08.08,0,.16-.02.23-.06.03-.02.06-.02.09-.03.09-.03.18-.03.26.04.02.02.05.02.06.03.02,0,.02,0,.03,0,.06-.02.07-.11.15-.12.12,0,.25-.05.37.01.04.02.08.02.13,0,.16-.03.32-.02.46.07,0,0,.01,0,.02.01.27.07.52.2.78.31.04.02.08.02.11.05.12.09.27.12.41.14.16.02.29.08.39.21.04.05.09.1.15.12.11.04.17.13.23.21.03.03.04.08.04.13.01.13.04.25.17.32.03.02.05.04.07.07.11.2.29.35.42.53.03.04.07.07.07.12.04.22.17.4.27.6.05.11.1.22.14.33.02.04,0,.08-.04.1-.02,0-.04.02-.06.02-.05.02-.07.06-.08.11-.02.14.02.28.07.41.03.07.09.11.17.12.02,0,.04,0,.06,0,.12,0,.21.05.27.17.05.1.14.18.24.23.17.08.31.2.44.34.31.33.63.65.97.95.25.22.47.47.68.73.11.13.24.23.36.35.13.12.25.24.38.35.12.11.19.11.31,0,.05-.04.09-.09.14-.14.1-.09.21-.16.35-.19.26-.04.51-.11.77-.13.13-.01.27-.02.4,0,.24.04.49.07.73.12.12.02.25.07.36.12.23.11.46.23.69.36.12.07.23.16.33.25.05.04.09.1.12.16.13.24.2.49.16.77-.03.18-.04.36-.06.54,0,.06,0,.12,0,.18.01.06.08.1.14.08.06-.02.11-.05.16-.08.14-.08.26-.18.41-.24.38-.18.75-.19,1.15-.07.25.08.48.19.7.33.17.11.29.27.39.44.03.05.05.11.08.16.06.09.08.19.11.3.03.15.1.3.15.45.04.12.08.24.12.36.01.03.02.06.03.09.05.12.1.16.23.15.11-.01.22,0,.34.02.31.04.58.17.82.35.2.15.35.36.45.6.11.28.23.55.34.83.03.07.06.15.08.23.04.19.11.37.13.56,0,.03.01.07.02.1.04.1.1.17.22.17.2,0,.38.07.55.15.16.07.29.18.4.32.08.11.18.2.28.28.13.1.22.23.3.37.07.12.13.25.17.38.04.11.05.22.07.33.02.16,0,.32.03.47,0,.05-.02.12-.04.17-.02.07-.04.14-.07.21-.05.16-.15.28-.32.32-.08.02-.13.07-.17.13-.1.15-.17.3-.12.49.03.09.01.17-.02.25-.04.1-.03.2.05.28.05.05.06.11.08.18.03.09.06.11.14.07.11-.05.16-.04.21.05,0,.01.01.02.02.04.01.09.12.13.14.21.02.08,0,.17.01.26.02.19.13.29.31.3.01,0,.03,0,.04,0,.24-.04.39.1.5.29.07.12.18.18.27.26.06.06.12.1.16.18.02.03.05.06.09.08.11.06.2.13.26.24.02.03.04.05.07.07.05.05.09.09.14.14.08.09.15.18.23.28.03.04.06.07.08.11.03.06.07.1.13.11.1.03.17.1.22.19.01.02.02.04.03.05.03.04.06.07.08.11,0,.01,0,.03,0,.04,0,.08,0,.16,0,.24-.1.04-.17,0-.24-.07-.1-.11-.21-.22-.31-.34-.04-.04-.07-.07-.12-.1-.12-.07-.23-.16-.32-.27-.07-.09-.16-.16-.25-.23-.09-.07-.18-.14-.23-.24-.01-.03-.04-.06-.06-.07-.09-.04-.14-.12-.2-.19-.07-.07-.13-.15-.23-.19-.08-.03-.12-.1-.11-.19-.06-.05-.12-.09-.18-.14-.07-.05-.13-.09-.15-.17,0-.03-.04-.05-.07-.07-.01-.01-.04-.02-.05-.03-.04-.09-.12-.15-.2-.22-.08-.07-.14-.16-.24-.2-.03-.01-.05-.06-.07-.09-.05-.05-.11-.07-.18-.04-.05.02-.1.03-.15.04-.06,0-.09.05-.12.09h0ZM383.76,26.21s0-.03,0-.03c-.02,0-.05-.02-.07,0-.02,0-.03.03-.04.05,0,0,.02.03.02.02.03-.01.06-.02.09-.04ZM386.34,23.72s-.03.03-.03.04c0,.01.02.03.04.03.01,0,.03-.02.03-.03,0-.01-.02-.03-.04-.05ZM407.11,42.94s0-.02,0-.03c-.01,0-.03,0-.03.01,0,0,0,.02,0,.03.01,0,.02,0,.03-.01Z"/>
    <path class="cls-2" d="M400.08,55.45s-.01-.07-.03-.1c-.06-.18-.06-.35-.02-.53.09-.35.14-.7.21-1.06.05-.23.07-.46.11-.69.04-.21.09-.42.14-.62.01-.05.02-.09.03-.14,0-.15.07-.29.14-.41.17-.31.35-.63.53-.94.14-.23.29-.44.44-.66.02-.03.04-.05.07-.07.15-.11.28-.25.4-.39.15-.17.31-.33.45-.51.15-.19.29-.38.4-.6.11-.23.24-.46.35-.7.18-.41.33-.83.48-1.25.04-.13.1-.25.15-.37.05-.12.1-.23.14-.35.06-.17.13-.34.24-.48.1-.13.19-.26.28-.39.05-.07.08-.14.12-.21.05-.07.09-.14.15-.21.05-.06.11-.07.18-.03.05.03.09.06.13.09.41.36.83.71,1.21,1.11.14.15.29.3.43.45.15.16.18.36.16.57,0,.03,0,.07,0,.1-.01.15,0,.31-.11.43-.02.16-.11.26-.22.36-.11.11-.21.23-.32.33-.06.06-.09.12-.1.21-.02.14,0,.28.02.42.03.18.11.32.25.44.06.05.06.09.02.16-.03.04-.06.09-.12.1-.12.02-.19.09-.21.21,0,.02-.02.03-.03.05-.07.05-.13-.01-.2-.01-.06.06-.05.13-.04.2,0,.03.03.06.06.08.15.09.3.17.48.19.24.03.48.09.71.17.12.04.26.06.39.08.08,0,.16.02.23.05.06.02.11.04.17.05.16.02.31.06.46.12.23.09.47.19.7.29,0,.19.1.35.19.5.02.03.04.07.05.11.04.15,0,.21-.11.26-.22.1-.43.22-.62.36-.09.07-.2.13-.31.18-.21.1-.36.25-.45.46-.13.3-.33.56-.51.84-.21.32-.42.65-.6.99-.12.24-.21.49-.26.75h-6.44ZM405.83,49.9s-.03-.03-.04-.03c-.01,0-.03.02-.03.03,0,.03.02.05.04.04.01,0,.02-.02.04-.04Z"/>
    <path class="cls-2" d="M340.35,20.23c.05,0,.11,0,.16-.01.11-.02.21-.02.32,0,.05,0,.11,0,.17,0,.07.07.16.12.27.14.1.02.13.06.1.16-.03.1-.01.18.03.27.07.14.05.27-.05.41-.07.1-.13.19-.23.27-.07.06-.15.11-.24.13-.09.02-.14.07-.16.15,0,.01,0,.03-.01.04-.03.06-.07.08-.13.04-.07-.05-.14-.08-.22-.07,0-.51,0-1.01,0-1.52Z"/>
    <path class="cls-1" d="M409.46,45.31s-.03.03-.05.03c-.01,0-.03-.02-.03-.03,0-.01.02-.03.03-.03.01,0,.03.02.05.03Z"/>
    <path class="cls-1" d="M374.41,6.03s0,0-.01.01c0,0,0-.02-.01-.02,0,0,.01,0,.02,0,0,0,0,0,0,.01Z"/>
    <path class="cls-1" d="M405.9,42.43s.04,0,.01,0c.02.02,0,0,0,0,0,0,0,0,0,0Z"/>
    <path class="cls-2" d="M345.84,18.4h-.2c-.06-.06-.11-.13-.13-.21-.02-.07-.07-.14-.11-.22.14-.02.25-.02.36.02.05.02.08.06.08.12,0,.09,0,.18,0,.29Z"/>
    <path class="cls-2" d="M344.56,16c0,.1-.11.17-.2.12-.03-.01-.03-.06,0-.08.04-.03.08-.06.13-.09.01,0,.04,0,.05,0,.01,0,.02.03.03.04Z"/>
    <path class="cls-2" d="M343.99,16.15s.09.03.13.05c.02.01.05.04.02.06-.01.01-.05.02-.07,0-.06-.02-.07-.07-.07-.13,0,0,0,0,0,0Z"/>
    <path class="cls-2" d="M341.39,20.25s-.03-.06-.03-.08c0-.01.02-.03.03-.05,0,0,.01,0,.02,0,.03.03.05.06.03.1,0,0-.02.01-.04.03Z"/>
    <path class="cls-2" d="M341.26,20.13s-.04.03-.05.02c-.01,0-.02-.03-.02-.04,0,0,.02-.02.03-.02.01,0,.03.02.05.04Z"/>
    <path class="cls-2" d="M383.76,26.21s-.06.03-.09.04c0,0-.02-.02-.02-.02.01-.02.02-.05.04-.05.02,0,.05,0,.07,0,0,0,0,.01,0,.03Z"/>
    <path class="cls-2" d="M386.34,23.72s.04.03.04.05c0,.01-.02.03-.03.03-.01,0-.03-.02-.04-.03,0-.01.02-.03.03-.04Z"/>
    <path class="cls-2" d="M383.52,26.7s.06-.05.09-.07c0,0,.03.02.04.03,0,0,0,.03-.01.03-.04,0-.08,0-.12,0,0,0,0,0,0,0Z"/>
    <path class="cls-2" d="M407.11,42.94s-.02,0-.03.01c0-.01-.01-.03,0-.03,0,0,.02,0,.03-.01,0,.01,0,.02,0,.03Z"/>
    <path class="cls-1" d="M405.83,49.9s-.02.04-.04.04c-.03,0-.05-.01-.04-.04,0-.01.02-.03.03-.03.01,0,.03.02.04.03Z"/>
  </g>
</svg>