<?xml version="1.0" encoding="UTF-8"?>
<svg id="Ebene_1" data-name="Ebene 1" xmlns="http://www.w3.org/2000/svg" viewBox="0 0 368.94 423.43">
  <defs>
    <style>
      .cls-1 {
        stroke-width: 0px;
      }
    </style>
  </defs>
  <path class="cls-1" d="M111.37,423.29c-2.89-7.86-5.92-15.67-8.6-23.6-1.11-3.3-2.92-3.81-6.13-3.63-7.54.42-8.06-.51-8.2-8.11-.23-12.84-.77-25.67-1.13-38.5-.02-.68.23-1.73.7-1.99,1.23-.68,2.25.35,3.12,1.04,6.45,5.06,12.83,10.2,19.26,15.28,11,8.71,16.66,21.82,26.17,31.71,4.06,4.23,8.58,7.24,14.78,9.32,10.23,3.43,18.31-1.91,27.36-2.82,1.36-.14,3.52-.94,3.16-2.06-2.03-6.47,1.58-4.29,4.64-3.3,1.75.57,3.17-.29,4.05-1.68,3.12-4.93,6.27-9.87,9.32-14.81,4.62-7.48,5.45-16.46,10.78-23.49,1.86-2.45,2.86-5.5,3.5-8.64.43-2.1,1.52-4.79,3.68-4.91,4.27-.25,5.88-3.26,8.58-5.64,2.99-2.63,3.61-5.04,3.45-8.48-.4-8.35,2.71-15.66,6.89-22.66,5.21-8.73,4.95-10.74-2.29-17.33-2.66-2.42-1.59-4.06.91-5.41,2.56-1.38,5.23-2.57,8.56-4.19-4.33-2.95-7.07-6-4.28-11.07.76-1.39.19-4.01-1.36-4.68-2.1-.9-4.43.45-5.69,2.15-2.59,3.5-5.66,6.49-8.89,9.3-5.12,4.46-10.88,7.85-17.89,8.63,3.95-1.8,6.64-5.23,10.26-7.42,6.95-4.22,10.52-10.83,12.45-18.45.58-2.3.95-4.9-1.13-6.58-1.76-1.43-1.56-2.17-.68-4.19,1.6-3.68-.4-7.66-.43-11.54,0-1.06-.72-1.85-1.81-1.99-1.22-.16-2.95.13-2.97,1.27-.09,5.31-5.11,9.63-2.7,15.45,2.63,6.36,1.8,7.37-5.14,6.97-1.59-.09-3.09-.38-4.49.65-1.48,1.09-2.25,1.89-2.7-1.13-.42-2.81-3.84-1.91-5.44-1.17-3.8,1.76-4.27.02-5.21-3.12-1.07-3.59-1.41-7.22-2.01-11.24-3.49.76-6.92,1.34-10.24,2.31-1.71.5-5.32.14-2.46,4.09,1.07,1.48-1.63,1.67-2.68,2.15-8.67,3.91-18.07,4.83-27.28,6.51-1.66.3-4.06-.3-4.49,1.84-.42,2.08,2.13,1.82,3.35,2.57,2.91,1.79,3.21,3.17-.27,4.59-5.88,2.4-12.21,2.43-18.34,3.34-2.27.34-2.04-1.83-1.2-3.38.74-1.37,1.98-2.7.46-4.2-1.25-1.23-2.54-.27-3.78.25-2.97,1.25-5.04.15-7.25-2.05-4.12-4.12-8.95-7.64-9.31-14.21-.04-.7-.72-1.37-1.14-2.03-2.08-3.3-3.17-9.95-1.78-12.83,1.09-2.26,1.46-5.42,5.81-3.7,1.93.76,5.19-.14,6.98-2.18,7.88-8.93,18.5-12.78,29.39-16.2,2.2-.69,4.21-1.02,4.17-4.49-.03-3.3,2.27-1.31,3.68-.53,1.02.56,2.21,1.53,3.05.13.77-1.28-.47-2.15-1.41-2.81-1.92-1.36-3.93-2.49-6.26-3.12-6.74-1.82-7.61-2.95-5.67-9.75.96-3.39,1.27-5.92-1.68-8.29-1.58-1.27-1.72-2.25.17-4.09,3.11-3.04,2.48-5.95-1.69-8.35-4.74-2.73-8.64-7.58-15.04-4.37-3.27-4.48-9.29-.28-12.83-4.05-.45-.48-1.69-.83-2.19-.55-7.9,4.29-16.28-.24-24.21,1.42-3.53.74-6.52,3.26-9.35,5.75-3.23,2.85-6.53,4.8-11.52,2.78-5.31-2.15-11.53-1.54-16.66-4.91-1-.66-3.27-.26-4.5.45-5.25,3.03-10.61,6.64-16.59,6.73-7.14.11-8.27,9.95-15.73,8.35-.08-4.21-3.41-8.21-1.06-12.82.48-.94.09-2.61,1.32-2.99,5.21-1.6,1.93-6.17,3.14-9.17.63-1.55-10.04-4.46-12.15-3.1-1.94,1.25-3.54,3.96-6.57,1.42,2.21-3.01,5.64-4.83,8.55-4.2,6.12,1.33,11.61.9,16.93-2.61-.88-.54-1.99-1.22-3.66-2.25,4.12-1.2,3.99-6.13,7.8-7.54.49-.18.96-1.23.15-2.44-3.32-5.01-1.81-9.98,1.14-14.48,8.01-12.23,15.3-24.88,26.53-34.89,5.41-4.82,9.84-10.94,15.34-15.95,3.51-3.19,6.81-6.36,11.6-7.43,3.49-.78,4.3-4.22,6.28-6.49,4.72-5.4,9.4-10.83,14.15-16.19,1.86-2.1,4.35-3.36,6.88-4.41,6.29-2.61,6.03-2.84,9.92-6.54,2.48-2.35,5.83-4.92,8.98-5.19,8.63-.72,16.28-4.9,24.92-5.75,11.61-1.13,22.34.51,31.58,7.43,10,7.48,21.07,8.51,32.78,7.64,2.91-.22,5.81-.57,8.73-.63-10.56,3.55-21.23,5.57-32.36,1.73.16,4.83.89,8.41,6.43,7.95,1.24-.1,2.31.78,2.82,1.85,3.61,7.55,10.21,13.02,15.89,18.32,9.81,9.17,15.93,21.57,27.07,29.31,1.18.82,1.55,1.86,2.12,3.13,1.01,2.27,1.71,7.09,6.07,2.03,1.9-2.2,3.2.78,3.41,2.51.23,1.84.51,3.08,2.65,2.9,1.41-.12,2.98-.5,3.52-1.79.91-2.2-1.56-2.26-2.56-3.22-1.73-1.68-4.59-2.51-4.18-5.76q10.8,7.69,10.17,12.61c4.66-2.98,9.6-.62,14.33-1.43.64-.11,2.03.6,2.01.72-.62,3.21,2.3,4.88,3.07,7.26,1.8,5.52,5.31,7.49,10.58,4.6,1.87-1.02,3.6-2.32,5.33-3.59,1.2-.89,2.5-1.69,3.57-.22.81,1.13,3.02,1.76,1.95,3.81-1.46,2.79-2.31,5.82.72,7.75,3.33,2.13,6.32.3,8.9-2.17.33-.31,1.02-.24,1.72-.39,1.17,3.81-3.56,4.32-3.82,7.23,2,.62,2.63-1.38,3.96-1.93.88-.36,2.55-1.19,2.55-.7-.11,7.3,9.95,2.42,10.85,9.12.16,1.18,3.67,5.53,8.03,3.26,1.87-.98,2.73.69,1.75,2.6-.53,1.03-2.96,1.46-1.29,3.11,1.21,1.2,2.96.61,4.47.12,1.58-.52,2.57-1.71,3.47-3.03,1.77-2.58,3.83-4.13,5.22.07.91,2.77,3.99,1.06,5.14,3.12-1.71,2.35-4.74,1.63-6.76,3.09-1.08.78-2.76,1.2-1.86,3.01.59,1.19,2.33,1.68,3.03,1.04,4.81-4.43,8.33.04,12.29,1.53,0,89.74-.03,179.47.11,269.21,0,4.03-.77,4.99-4.82,4.82-9.39-.38-18.8-.12-28.21-.12-.8-2.49-.55-4.99-.35-7.56,1.5-19.34,1.42-38.67.87-58.08-.32-11.59-3.55-22.69-3.66-34.28-.05-5-.55-11.04-4.89-15.28-1.73-1.69-3.77-3.13-5.4-.75-2.71,3.96-6.84,6.91-8.23,11.82-1.05,3.68-.86,9.01-7.48,6.57-.42-.16-1.41.62-1.84,1.18-3.45,4.52-9.47,5.33-13.34,9.41-2.28,2.4-5.12.12-7.54-1.08-1.12-.56-.72-1.16-.43-2.26,3.25-12.56,2.73-25.32-.43-37.64-1.18-4.57-1.64-7.86.88-11.72,1.28-1.96,2.16-4.14,4.01-5.72,1.09-.93,1.95-2.33.56-3.5-1.38-1.16-2.66-.21-3.29,1.14-1.25,2.69-3.74,3.72-6.76,5.6.74-2.56,1.22-4.39,1.8-6.19.48-1.51,2.83-3.23.48-4.49-2.43-1.3-2.69,1.31-3.2,2.89-.94,2.88-4.25,3.37-5.69,5.76-.48.81-1.55.88-1.88.07-1.28-3.18-5.61-4.5-5.22-8.63.09-1.02.22-2.13-1.12-2.23-1.58-.12-2.16,1.28-1.82,2.35,1.04,3.29-.86,6.11-1.11,9.16-.42,5.19-3.79,1.07-5.61,1.86-3.04,1.3,2.14,5.57-2.03,5.83-6.51.39-3.43,3.06-1.82,5.81.93,1.6,3.8,1.33,3.43,4.16-1.34,10.21,1.59,20.43,0,30.67-.19,1.25-.75,3.26,1.9,3.72,1.73-3.36,1.27-7.22,2.22-10.75.16,6.29.2,12.53-.3,18.79-.38,4.72-1.64,10.29,4.27,13.22-2.84,7.79,3.57,14.76,2,22.45-.25,1.23-.09,2.52,1.48,2.61,1.13.06,1.54-.95,1.72-2,.75-4.4,2.23-8.8,2.18-13.18-.14-11.7.81-23.33,1.31-34.99.22-5.01-1.21-11.25,7.4-10.91-1.6,6.74.18,14.07-1.43,21.81-1.75-2.13.2-4.46-1.81-5.82-3.23,5.9,2.34,9.04,3.5,13.44.3,1.14.25,2.58,1.7,2.71,1.94.17,1.88-1.53,2.14-2.85.31-1.59-.02-4.43,2.65-3.27,6.41,2.79,12.19,2.54,17.72-1.88.85-.68,1.89-.34,2.68.37.95.86,1.22,1.98.96,3.21-.41,1.93-1.86,2.84-3.49,3.67-4.81,2.47-11.41,1.39-14.53,7.29-.18.35-1.4.63-1.59.42-4.11-4.42-4.23,1.11-5.78,2.69-2.59-1.58-3.53-4.56-6.34-5.31-1.18,2.14,2.71,4.54-.23,6.38-4.81,3.02-1.23,3.78.68,6.46,2.11,2.96,10.26,4.21,4.03,11.74-3.06,3.7-7.51,8.25-7.68,14.26-.01.49-1.06.95-2.56,2.2.65-4.57-2.12-6.76-4.34-8.49-5.14-4-10.07-7.97-13.02-13.96-.74-1.51-2.25-1.67-3.47-.58-3.87,3.48-8.25,6.44-11.23,10.84-6.55.19-13.04,2.01-19.68.53-1.19-.26-3.54.36-2.76,2.65.67,1.97,2.23,4.96,4.22,3.95,4.2-2.11,8.6-1.27,12.84-2.1,3.18-.62,4.67-2.25,5.24-5.17,5.53,2.37,11.07,4.37,18.11-.42-2.23,4.74-2.63,6.99,2.38,7.69,2.34.33,4.54,4.07,6.09,6.68,1.08,1.82.22,5.67-1.88,4.99-4.6-1.5-6.08,1.73-8.55,3.76-1.12.92-2.61,1.68-3.72.5-5.52-5.89-12.63-3.91-19.31-4.17-4.55-.18-7.46,1.38-8.1,6.36-.36,2.79-.23,6.52-3.7,7.41-4.99,1.27-4.38,4.59-3.89,8.14h-103.45ZM258.32,252.8c.56.54,1.22,1,1.66,1.62,1.27,1.81.73,5.75,3.43,5.42,3.28-.41,2.46-4.3,3.07-6.82.14-.56.14-1.16.16-1.75.3-10.36,2.05-20.36,6.95-29.67,1.6-3.03,2.6-11.87,2.02-14.13-3.92,9.22-10.13,17.39-9.77,28.3-4.02-2.09-2.27-5.09-2.93-7.35-.48-1.65,1.59-4.41-1.02-5.03-2.59-.61-3.77,2-4.93,4.14-1.96,3.63-2.73,7.25-1.15,11.18-6.89,3.69.11,5.87.95,8.71.55,1.86,1.13,3.7,1.69,5.55-.73-.27-1.45-.56-2.19-.82-2.26-.79-3.1-5.42-5.83-3.47-3.04,2.18-.1,5.32.75,7.96.29.92.69,1.88,1.29,2.61,1.31,1.58,2.3,4.39,4.78,3.5,2.3-.82.79-3.45.98-5.27.15-1.55.05-3.12.06-4.68ZM150.68,18.88c-.64,1.6-.85,3.63-1.98,4.71-3.92,3.74-.76,5.19,2.05,5.59,10.67,1.54,19.82,6.6,28.72,12.08,3.16,1.95,5.84,1.18,8.55.27,1.34-.45,2.52-2.16,4.06-1.26,1.32.78,1.71.21,2.13-.7.52-1.14-.25-1.69-1.13-2.27-11.25-7.5-23.75-12.01-37.08-12.94-4.97-.35-6.41-.58-5.32-5.49ZM122.93,412.48c-.69-3.56-1.4-7.92-2.41-12.21-.83-3.52-3.44-4.91-6.93-5.05-3.99-.16-3.31,3.12-3.93,5.3-1.87,6.59,1.29,11.66,5.39,16.27,1.47,1.65,3,4.18,5.72,3.15,3.12-1.19,1.93-4.24,2.17-7.46ZM230.56,262.62c3.94-2.91,4.38-6.85,5.88-10.28.88-2,1.49-3.28-1.06-3.86-2.06-.47-3.81.63-3.6,2.68.38,3.7-1.06,7.17-1.23,11.45ZM116.39,41.11c-.36-1.67.24-3.78-2.33-3.22-1.85.4-4.9,1.33-3.88,3.04,1.04,1.76-.46,5.15,2.36,5.23,3.16.09,3.48-2.9,3.86-5.05ZM153.24,238.19c-2.44-2.72-3.5-5.71-6.97-4.51-1.43.49-2.2,2.03-1.47,3.28,1.92,3.28,4.79,1.85,8.44,1.23ZM263.38,220.05c5.2-1.98,4.84-6.43,5.13-10.61-3.67,2.6-3.35,7.05-5.13,10.61ZM262.08,374.61c-1.09-1.55-.85-4.29-3.48-4.71-1.34-.21-2.14.96-2.14,2.22,0,2.12.96,3.79,3.14,4.3,1.24.29,2.32-.11,2.48-1.81ZM236.89,361.83c1.32,2.67-1.64,5.41.95,7.29,1.35.98,2.8-.9,3.25-2.38.89-2.93-.91-4.1-4.19-4.91Z"/>
  <path class="cls-1" d="M368.83,24.76c-13.63-2.98-20.95,6.25-29.65,14.14-3.91,3.55-3.09,9.35-7.99,11.65-1.43.67-2.92,3.22-3.83.35-.8-2.52-1.43-5.01-4.26-4.24-3.42.94-1.2,3.87-1.05,5.98.06.79.19,1.54-1.13,2.04-2.42-1.88-2.66-5.64-2.67-7.63-.03-6.72-3.02-7.35-8.53-4.9-.03-3.54,3.09-4.84,3-7.49-.04-1.13.69-2.48-.47-3.25-1.17-.78-2.23.05-3.05.95-1.33,1.46-2.71,2.84-4.71,3.33-2.13.52-3.65.38-2.72-2.48.46-1.42,1.71-3.07-.03-4.24-1.59-1.07-2.86.52-4.22,1.21-1.15.58-2.05,1.91-4.06,1.24,2.77-6.61,8.94-8.31,14.64-9.68,11.7-2.81,16.46-10.51,17.23-21.68,13.52,0,27.04.09,40.56-.08,2.53-.03,3.09.48,3.02,3.02-.22,7.24-.08,14.5-.08,21.75Z"/>
  <path class="cls-1" d="M26.73,423.29c6.41-7.49,12.54-15.26,19.34-22.38,3.94-4.12,6.72-9.43,12.08-12.23,2.79-1.46,3.82-4.61,4.49-7.31,1.58-6.36,6.68-8.57,12.84-12.48-2.73,6.19,3.4,8.3,2.74,13.17-.54,3.96-2.53,8.36,2.04,12.19,1.76,1.47,1.04,5.23-3.39,5.17-6.6-.09-12.39,1.24-14.35,9.05-.81,3.21-4.63,3.98-6.89,6.06-2.61,2.4-4.74,2.7-7.35-.12-1.1-1.2-2.42-.23-3.05,1.36-.99,2.54-2.14,5.02-3.23,7.52h-15.28Z"/>
  <path class="cls-1" d="M74.93,423.29c.02-3.55.59-7.01,2.16-10.2.82-1.67,2.38-2.71,4.28-2.58,2.63.18,1.42,2.19,1.47,3.57.07,2.26,1.18,4.01,3.43,3.86,3.83-.26,2.21-3.8,3.01-6.21,5.19,2.87,2.33,7.77,3.28,11.56h-17.63Z"/>
  <path class="cls-1" d="M129.08,346.97c5.48-1.82,11.11-2.78,16.35-1.6,5.68,1.28,6.05-.95,4.96-5.87,4.29,1.94,7.67,1.91,9.32-2.74.19-.54.55-1.53.71-1.51,5.83.82,7.96-4.4,11.79-6.62,4.42-2.56,4.02-7.57,7.87-9.87,1.1-.66.27-3.42-.95-4.81-1.42-1.62-2.75-.09-4.19.3-8.05,2.21-14.6,7.45-22.14,10.67-11.19,4.78-22.46,9.14-35.03,6.05-2.78-.68-4.05.3-3.42,3.45.49,2.4,1.87,4.72,1.13,7.34-.53-.05-1.02.06-1.27-.13-3.85-3.12-7.2-2.78-10.28,1-2,2.45-3.97.67-5.61-.45-3.51-2.4-6.26-6.21-10.74-6.82-5.09-.7-8.27-4.2-12.03-6.98-1.17-.87-2.94-2.28-2.12-2.94,5.52-4.44-.1-10.39,2.43-15.25,2.52-4.84,4.38-10.02,6.57-15.04.31-.7.74-1.47,1.34-1.9,2.02-1.43,4.05-4.32,6.34-3.48,2.44.9,1.04,4.19.98,6.37-.33,11.44.61,12.83,11.39,16.27,2.22.71,4.61,1.44,6.41,2.83,4.69,3.63,10.17-.08,15.09,1.95,1.24.51,3.31-2.12,3.51-4.12.54-5.35,3.74-8.3,8.28-10.48,3.69-1.77,7.24-3.86,10.81-5.87,1.97-1.11,5.07-2.06,3.61-4.98-1.22-2.43-3.24-4.86-7.05-3.55-2.58.89-5.34,1.28-7.4,3.25-2.4,2.29-4.18,1.56-5.49-1.08-1.44-2.92-2.44-7.79.53-8.16,4.73-.6,7.43-4.61,12.16-4.84,9.18-.44,16.97,2.86,23.92,8.12,3.77,2.85,9.42,3.07,11.55,8.19.11.27.7.55,1.02.5,6.02-.82,11.28.21,15.13,5.52.55.75,2.29.89,3.32.12,4.59-3.49,5,1.93,6.91,3.48,2.3,1.86,0,3.29-1.52,4.52-2.06,1.65-1.67,3.38-.74,5.69,1.73,4.31,5.12,8,5.14,12.96,0,1.3.42,3.2-1.13,3.61-2.2.59-2.78-1.85-2.67-2.99.62-6.22-5.73-6.8-8.39-10.29-2.28-2.99-7.73.93-9.42,7.17-3.34,12.33-10.64,22.31-18.61,31.88-3.15,3.78-8.17,3.4-12.42,4.64-6.22,1.81-12.48,3.51-19.06,2.19-1.71-.34-3.55-.48-4.81-1.93-.92-1.05-1.74-2.23-1.15-3.71.54-1.37,1.82-1.17,3-1.21,6.39-.2,12.79-.28,19.16-.74,5.82-.42,8.29-6.13,12.78-8.75.95-.56.38-1.8-.46-2.49-1.27-1.04-2.59-.7-3.8.11-3.94,2.64-8.17,4.71-12.77,5.77-6.6,1.52-12.95.77-18.83-2.78ZM130.31,327.53c3.2.49,4.39-1.04,5.94-1.79,5.04-2.45,9.26-6.6,15.23-7.13,6.6-.59,11.14-3.61,15.12-9.42,3.19-4.66,1.49-7.08-1.02-9.93-3.07-3.49-6-.89-8.78.91-1.91,1.24-2.76,4.01-5.52,4.01-6.7.01-9.45,4.22-10.95,9.98-1.58,6.1-4.69,7.8-10.43,5.83-1.12-.38-2.26-1.16-3.34-.47-6.42,4.12-12.46,2.31-18.5-.93-1.57-.84-2.19.36-2.32,1.59-.3,2.83.34,4.99,3.83,5.29,7.33.63,14.64,1.43,20.75,2.03Z"/>
  <path class="cls-1" d="M89.08,268.6c-2.37,3.67-5.33,5.61-8.1,7.67-3.29,2.46-6.79,3.99-8.74-1.87-.88-2.66-3.36-1.36-5.03-.9-2.83.77-5.57,1.89-8.58,1.54-.86-.1-2.72-.69-1.92-1.19,2.59-1.61-2.39-3.21.31-4.45,1.75-.8,5.37-.87,3.89-3.71-1.45-2.78-6.67-2.85-7.76-1.55-4.4,5.25-6.51.1-8.27-1.73-5.15-5.34-5.12-17.22-1.02-23.36,2.89-4.32,7.15-6.2,11.57-5.27,6.4,1.35,12.71,1.39,19.12,1.35,1.33,0,2.93.08,3.96.78,5.25,3.56,8.95,2.25,11.65-3.21.45-.9,1.23-1.65,2.31-.85.73.53.61,1.34.15,2.07-3.15,5.08-1.35,9.81,1.49,14.09,5.19,7.84,3.32,15.19-.86,22.54-.64,1.13-1.28,2.84-2.91,2.09-.67-.31-.69-2.01-1.3-4.06Z"/>
  <path class="cls-1" d="M220.18,333.82c-3.91-6.36-1.06-11.75-1.01-16.97.05-5.43.61-10.86-.1-16.57,3.74,3.91,3.96,10.61,1.12,33.55Z"/>
  <path class="cls-1" d="M71.03,62.57c5.78-6.4,11.55-12.79,17.33-19.19.36.33.73.67,1.09,1-4.88,7.19-10.67,13.58-16.89,19.59l-1.53-1.41Z"/>
  <path class="cls-1" d="M1.41,160.53c3.19-2.39,1.86-8.76,7.77-5.99,1.62.76,1.41,1.57.92,2.67-1.54,3.45-4.46,3.66-8.7,3.32Z"/>
  <path class="cls-1" d="M37.85,89.16c2.01,6.94-3.82,10.52-5.41,15.64.55-5.5,2.19-10.6,5.41-15.64Z"/>
  <path class="cls-1" d="M290.89,28.52c-3.23,2.35-4.98,5.81-8.16,3.93-2.32-1.38.62-2.84,1.33-4.03,2.3-3.84,3.87-.07,6.83.1Z"/>
  <path class="cls-1" d="M6.99,195.16c-.97,4.29-1.57,8.6-2.2,12.92-1.57-4.58-2.57-9.09,2.2-12.92Z"/>
  <path class="cls-1" d="M213.25,293.19c-.31-2.96,1.3-3.93,2.43-5.15.78-.84,1.78-1.8,2.94-.97.66.48,1.29,1.64,1.19,2.4-.26,2.02-1.87.2-2.65.69-1.22.77-2.3,1.76-3.91,3.03Z"/>
  <path class="cls-1" d="M93.71,42.86c.82-4.58,3.03-7.62,8.5-7.86-3.22,2.97-5.86,5.41-8.5,7.86Z"/>
  <path class="cls-1" d="M265.47,323.86c-2.18,2.67-.98,5.85-1.92,9.14-1.75-4.76-1.15-9.23-1.82-13.45,2.21-1.21,3.61,1.68,5.85.12,1.54-1.07,2.11.8,1.9,2.36-1.28,9.62-1.91,19.28-2.25,29.01-1.14-9.01.36-18.23-1.75-27.18Z"/>
</svg>