<?xml version="1.0" encoding="UTF-8"?>
<svg id="Ebene_1" data-name="Ebene 1" xmlns="http://www.w3.org/2000/svg" viewBox="0 0 1225 69.98">
  <defs>
    <style>
      .cls-1 {
        stroke-width: 0px;
      }
    </style>
  </defs>
  <g>
    <path class="cls-1" d="M2.55,10.7h18.27c14.2,0,17.89,4.78,17.89,11.27s-4.27,9.87-10.57,11.14c7.26,1.27,9.93,6.11,11.14,14.84.25,1.53.45,4.08.51,5.03h-13.18l-.13-2.61c-.7-7.51-2.67-12.54-8.34-12.61h-2.8v15.22H2.55V10.7ZM18.27,31.08c5.22-.06,8.02-2.8,8.02-6.75s-2.04-5.79-7.39-5.79h-3.57v12.86l2.93-.32Z"/>
    <path class="cls-1" d="M42.28,41.2v-18.27h11.91v17.32c0,2.99,1.08,4.65,3.63,4.65s3.76-2.17,3.76-5.6v-16.36h11.91v30.05h-11.78v-4.08c-1.66,3.06-4.58,4.84-8.66,4.84-6.69,0-10.76-4.46-10.76-12.54Z"/>
    <path class="cls-1" d="M76.8,47.25l12.86-16.36h-12.42v-7.96h26.49v5.73l-12.42,16.36h12.42v7.96h-26.93v-5.73ZM79.28,10.06h4.14l7.2,4.27,7.26-4.27h4.08l-6.56,9.81h-9.42l-6.69-9.81Z"/>
    <path class="cls-1" d="M105.58,45.09c0-6.56,5.86-8.15,11.65-9.3,4.65-.89,7.96-1.02,8.21-2.55v-.19c0-1.91-1.21-2.93-3.63-2.93-2.74,0-4.14,1.27-4.27,3.44v.51h-11.21c.13-7.26,5.67-11.91,15.6-11.91s15.35,3.88,15.35,13.24v17.57h-11.91v-4.2c-1.72,2.99-4.84,5.09-9.49,5.09-6.3,0-10.32-3.38-10.32-8.79ZM125.45,42.54v-3.63c-1.08.51-2.48.76-3.82,1.15-2.23.64-4.08,1.4-4.08,3.82,0,1.59,1.08,2.8,3.06,2.8,2.36,0,4.46-1.21,4.84-4.14Z"/>
    <path class="cls-1" d="M141.3,10.45h11.84v24.07l8.34-11.59h12.54l-9.74,11.14,10,18.91h-12.35l-5.73-11.02-3.06,3.63v7.39h-11.84V10.45Z"/>
    <path class="cls-1" d="M172,38.15c0-9.74,6.3-16.05,16.49-16.05s16.11,6.05,16.11,16.43v1.97h-21.2c.32,3.69,2.55,5.41,5.99,5.41,3.18,0,5.16-1.53,5.86-3.88l9.17,2.1c-2.04,6.43-6.62,9.61-15.73,9.61-10.57,0-16.68-5.86-16.68-15.6ZM193.2,34.9c-.19-3.57-1.66-5.35-4.71-5.35s-4.84,1.91-5.16,5.35h9.87Z"/>
    <path class="cls-1" d="M218.61,59.35c0-2.99,1.85-5.09,5.67-6.24-2.99-.76-4.58-2.61-4.58-5.28s1.91-4.71,5.35-5.99c-3.12-1.91-4.84-4.84-4.84-8.53,0-6.49,6.24-11.27,15.09-11.27,5.73,0,10.19,2.04,12.61,5.35,1.02-2.8,2.93-4.46,5.92-4.46v9.23c-1.27-.57-2.87-.7-4.14.19.06.32.06.57.06.83,0,6.81-5.67,11.02-14.9,11.02-1.91,0-3.69-.19-5.29-.57-1.15.25-1.78.76-1.78,1.46,0,.96,1.15,1.46,3.37,1.46h8.85c8.98,0,13.82,3.31,13.82,9.42,0,7.26-5.99,10.95-18.08,10.95s-17.13-2.36-17.13-7.58ZM244.59,58.33c0-1.66-1.53-2.36-6.43-2.36h-6.05c-2.93.25-4.65,1.08-4.65,2.48,0,1.66,2.36,2.55,8.4,2.55s8.72-.89,8.72-2.67ZM239.24,33.37v-.38c0-2.67-1.66-4.33-4.2-4.33s-4.01,1.72-4.01,4.39v.38c0,2.67,1.46,4.2,4.01,4.2,2.74,0,4.2-1.46,4.2-4.27Z"/>
    <path class="cls-1" d="M256.37,10.77h12.16v8.98h-12.16v-8.98ZM256.5,22.93h11.97v30.05h-11.97v-30.05Z"/>
    <path class="cls-1" d="M273.18,10.45h12.03v42.53h-12.03V10.45Z"/>
    <path class="cls-1" d="M288.59,45.09c0-6.56,5.86-8.15,11.65-9.3,4.65-.89,7.96-1.02,8.21-2.55v-.19c0-1.91-1.21-2.93-3.63-2.93-2.74,0-4.14,1.27-4.27,3.44v.51h-11.21c.13-7.26,5.67-11.91,15.6-11.91s15.35,3.88,15.35,13.24v17.57h-11.91v-4.2c-1.72,2.99-4.84,5.09-9.49,5.09-6.3,0-10.32-3.38-10.32-8.79ZM308.46,42.54v-3.63c-1.08.51-2.48.76-3.82,1.15-2.23.64-4.08,1.4-4.08,3.82,0,1.59,1.08,2.8,3.06,2.8,2.36,0,4.46-1.21,4.84-4.14Z"/>
    <path class="cls-1" d="M335.33,31.52h31.07v8.6h-31.07v-8.6Z"/>
    <path class="cls-1" d="M382.14,10.7h18.27c14.2,0,17.89,4.78,17.89,11.27s-4.27,9.87-10.57,11.14c7.26,1.27,9.93,6.11,11.14,14.84.25,1.53.45,4.08.51,5.03h-13.18l-.13-2.61c-.7-7.51-2.67-12.54-8.34-12.61h-2.8v15.22h-12.8V10.7ZM397.87,31.08c5.22-.06,8.02-2.8,8.02-6.75s-2.04-5.79-7.39-5.79h-3.57v12.86l2.93-.32Z"/>
    <path class="cls-1" d="M421.88,41.2v-18.27h11.91v17.32c0,2.99,1.08,4.65,3.63,4.65s3.76-2.17,3.76-5.6v-16.36h11.91v30.05h-11.78v-4.08c-1.66,3.06-4.58,4.84-8.66,4.84-6.69,0-10.76-4.46-10.76-12.54Z"/>
    <path class="cls-1" d="M456.39,47.25l12.86-16.36h-12.42v-7.96h26.49v5.73l-12.42,16.36h12.42v7.96h-26.93v-5.73ZM458.87,10.06h4.14l7.2,4.27,7.26-4.27h4.08l-6.56,9.81h-9.42l-6.69-9.81Z"/>
    <path class="cls-1" d="M485.17,45.09c0-6.56,5.86-8.15,11.65-9.3,4.65-.89,7.96-1.02,8.21-2.55v-.19c0-1.91-1.21-2.93-3.63-2.93-2.74,0-4.14,1.27-4.27,3.44v.51h-11.21c.13-7.26,5.67-11.91,15.6-11.91s15.35,3.88,15.35,13.24v17.57h-11.91v-4.2c-1.72,2.99-4.84,5.09-9.49,5.09-6.3,0-10.32-3.38-10.32-8.79ZM505.04,42.54v-3.63c-1.08.51-2.48.76-3.82,1.15-2.23.64-4.08,1.4-4.08,3.82,0,1.59,1.08,2.8,3.06,2.8,2.36,0,4.46-1.21,4.84-4.14Z"/>
    <path class="cls-1" d="M519.69,48.84l5.35-5.92c2.42,2.17,5.6,3.82,8.85,3.82,1.97,0,3.25-.64,3.25-1.91,0-1.59-2.61-2.04-6.11-2.87-4.71-1.15-10.63-3.25-10.63-9.68,0-6.05,5.54-10.32,13.18-10.32,6.81,0,11.33,1.97,14.58,5.09,0,.25-4.97,5.73-4.97,5.73-2.55-2.17-5.54-3.63-8.6-3.63-1.97,0-3.06.7-3.06,1.91,0,1.59,1.78,1.91,5.6,2.74,4.78,1.15,11.33,2.93,11.33,9.74,0,6.18-5.73,10.38-13.44,10.38-7.07,0-11.78-2.04-15.35-5.09Z"/>
    <path class="cls-1" d="M564.9,10.7h13.05v33.24h16.62v9.04h-29.67V10.7Z"/>
    <path class="cls-1" d="M598.2,10.77h12.16v8.98h-12.16v-8.98ZM598.33,22.93h11.97v30.05h-11.97v-30.05Z"/>
    <path class="cls-1" d="M613.68,38.15c0-9.74,6.3-16.05,16.49-16.05s16.11,6.05,16.11,16.43v1.97h-21.2c.32,3.69,2.55,5.41,5.99,5.41,3.18,0,5.16-1.53,5.86-3.88l9.17,2.1c-2.04,6.43-6.62,9.61-15.73,9.61-10.57,0-16.68-5.86-16.68-15.6ZM634.88,34.9c-.19-3.57-1.66-5.35-4.71-5.35s-4.84,1.91-5.16,5.35h9.87Z"/>
    <path class="cls-1" d="M648.57,38.02c0-9.42,5.41-15.92,13.24-15.92,3.82,0,6.75,1.59,8.72,4.27v-15.92h11.97v42.53h-11.78v-3.63c-2.1,2.74-5.22,4.46-8.92,4.46-7.83,0-13.24-6.24-13.24-15.79ZM670.86,38.4v-.96c0-5.03-1.34-7.13-4.84-7.13-3.06,0-4.84,2.17-4.84,7.26v.89c0,5.16,1.78,7.13,4.84,7.13,3.44,0,4.84-2.16,4.84-7.2Z"/>
    <path class="cls-1" d="M685.83,38.15c0-9.74,6.3-16.05,16.49-16.05s16.11,6.05,16.11,16.43v1.97h-21.2c.32,3.69,2.55,5.41,5.99,5.41,3.18,0,5.16-1.53,5.86-3.88l9.17,2.1c-2.04,6.43-6.62,9.61-15.73,9.61-10.57,0-16.68-5.86-16.68-15.6ZM707.03,34.9c-.19-3.57-1.66-5.35-4.71-5.35s-4.84,1.91-5.16,5.35h9.87Z"/>
    <path class="cls-1" d="M721.55,22.93h12.1v5.09c1.08-3.31,3.63-5.22,8.34-5.22h.83v10.38h-4.14c-4.01,0-5.03,1.66-5.03,5.22v14.58h-12.1v-30.05Z"/>
    <path class="cls-1" d="M756.57,31.52h31.07v8.6h-31.07v-8.6Z"/>
    <path class="cls-1" d="M803.38,10.7h18.27c14.2,0,17.89,4.78,17.89,11.27s-4.27,9.87-10.57,11.14c7.26,1.27,9.93,6.11,11.14,14.84.25,1.53.45,4.08.51,5.03h-13.18l-.13-2.61c-.7-7.51-2.67-12.54-8.34-12.61h-2.8v15.22h-12.8V10.7ZM819.11,31.08c5.22-.06,8.02-2.8,8.02-6.75s-2.04-5.79-7.39-5.79h-3.57v12.86l2.93-.32Z"/>
    <path class="cls-1" d="M843.12,41.2v-18.27h11.91v17.32c0,2.99,1.08,4.65,3.63,4.65s3.76-2.17,3.76-5.6v-16.36h11.91v30.05h-11.78v-4.08c-1.66,3.06-4.58,4.84-8.66,4.84-6.69,0-10.76-4.46-10.76-12.54Z"/>
    <path class="cls-1" d="M877.63,47.25l12.86-16.36h-12.42v-7.96h26.49v5.73l-12.42,16.36h12.42v7.96h-26.93v-5.73ZM880.11,10.06h4.14l7.2,4.27,7.26-4.27h4.08l-6.56,9.81h-9.42l-6.69-9.81Z"/>
    <path class="cls-1" d="M906.41,45.09c0-6.56,5.86-8.15,11.65-9.3,4.65-.89,7.96-1.02,8.21-2.55v-.19c0-1.91-1.21-2.93-3.63-2.93-2.74,0-4.14,1.27-4.27,3.44v.51h-11.21c.13-7.26,5.67-11.91,15.6-11.91s15.35,3.88,15.35,13.24v17.57h-11.91v-4.2c-1.72,2.99-4.84,5.09-9.49,5.09-6.3,0-10.32-3.38-10.32-8.79ZM926.28,42.54v-3.63c-1.08.51-2.48.76-3.82,1.15-2.23.64-4.08,1.4-4.08,3.82,0,1.59,1.08,2.8,3.06,2.8,2.36,0,4.46-1.21,4.84-4.14Z"/>
    <path class="cls-1" d="M937.55,19.36v-8.66h10.7v8.66c0,.38-3.95,11.21-4.01,11.65h-2.61c-.13-.45-4.08-11.27-4.08-11.65Z"/>
    <path class="cls-1" d="M950.03,48.84l5.35-5.92c2.42,2.17,5.6,3.82,8.85,3.82,1.97,0,3.25-.64,3.25-1.91,0-1.59-2.61-2.04-6.11-2.87-4.71-1.15-10.63-3.25-10.63-9.68,0-6.05,5.54-10.32,13.18-10.32,6.81,0,11.33,1.97,14.58,5.09,0,.25-4.97,5.73-4.97,5.73-2.55-2.17-5.54-3.63-8.6-3.63-1.97,0-3.06.7-3.06,1.91,0,1.59,1.78,1.91,5.6,2.74,4.78,1.15,11.33,2.93,11.33,9.74,0,6.18-5.73,10.38-13.44,10.38-7.07,0-11.78-2.04-15.35-5.09Z"/>
    <path class="cls-1" d="M993.27,48.84l5.35-5.92c2.42,2.17,5.6,3.82,8.85,3.82,1.97,0,3.25-.64,3.25-1.91,0-1.59-2.61-2.04-6.11-2.87-4.71-1.15-10.63-3.25-10.63-9.68,0-6.05,5.54-10.32,13.18-10.32,6.81,0,11.33,1.97,14.58,5.09,0,.25-4.97,5.73-4.97,5.73-2.55-2.17-5.54-3.63-8.6-3.63-1.97,0-3.06.7-3.06,1.91,0,1.59,1.78,1.91,5.6,2.74,4.78,1.15,11.33,2.93,11.33,9.74,0,6.18-5.73,10.38-13.44,10.38-7.07,0-11.78-2.04-15.35-5.09Z"/>
    <path class="cls-1" d="M1023.2,37.95c0-9.61,6.5-15.79,17.38-15.79s17.19,6.11,17.19,15.79-6.5,15.79-17.45,15.79-17.13-6.05-17.13-15.79ZM1045.49,38.27v-.57c0-5.35-1.72-7.7-5.03-7.7s-4.97,2.36-4.97,7.7v.57c0,5.35,1.66,7.64,4.97,7.64s5.03-2.36,5.03-7.64Z"/>
    <path class="cls-1" d="M1061.15,22.93h11.91v4.46c1.66-3.25,4.78-5.29,9.11-5.29,6.56,0,10.51,4.33,10.51,12.61v18.27h-12.03v-17.32c0-3.06-1.02-4.65-3.57-4.65s-3.88,2.04-3.88,5.6v16.36h-12.03v-30.05Z"/>
    <path class="cls-1" d="M1094.58,59.35c0-2.99,1.85-5.09,5.67-6.24-2.99-.76-4.58-2.61-4.58-5.28s1.91-4.71,5.35-5.99c-3.12-1.91-4.84-4.84-4.84-8.53,0-6.49,6.24-11.27,15.09-11.27,5.73,0,10.19,2.04,12.61,5.35,1.02-2.8,2.93-4.46,5.92-4.46v9.23c-1.27-.57-2.87-.7-4.14.19.06.32.06.57.06.83,0,6.81-5.67,11.02-14.9,11.02-1.91,0-3.69-.19-5.29-.57-1.15.25-1.78.76-1.78,1.46,0,.96,1.15,1.46,3.38,1.46h8.85c8.98,0,13.82,3.31,13.82,9.42,0,7.26-5.99,10.95-18.08,10.95s-17.13-2.36-17.13-7.58ZM1120.56,58.33c0-1.66-1.53-2.36-6.43-2.36h-6.05c-2.93.25-4.65,1.08-4.65,2.48,0,1.66,2.36,2.55,8.41,2.55s8.72-.89,8.72-2.67ZM1115.21,33.37v-.38c0-2.67-1.66-4.33-4.2-4.33s-4.01,1.72-4.01,4.39v.38c0,2.67,1.46,4.2,4.01,4.2,2.74,0,4.2-1.46,4.2-4.27Z"/>
    <path class="cls-1" d="M1131.33,48.84l5.35-5.92c2.42,2.17,5.6,3.82,8.85,3.82,1.97,0,3.25-.64,3.25-1.91,0-1.59-2.61-2.04-6.11-2.87-4.71-1.15-10.63-3.25-10.63-9.68,0-6.05,5.54-10.32,13.18-10.32,6.81,0,11.33,1.97,14.58,5.09,0,.25-4.97,5.73-4.97,5.73-2.55-2.17-5.54-3.63-8.6-3.63-1.97,0-3.06.7-3.06,1.91,0,1.59,1.78,1.91,5.6,2.74,4.78,1.15,11.33,2.93,11.33,9.74,0,6.18-5.73,10.38-13.44,10.38-7.07,0-11.78-2.04-15.35-5.09Z"/>
  </g>
  <g>
    <path class="cls-1" d="M1187.66,62.9c-.42-1.14-.86-2.27-1.25-3.42-.16-.48-.42-.55-.89-.53-1.09.06-1.17-.07-1.19-1.18-.03-1.86-.11-3.72-.16-5.58,0-.1.03-.25.1-.29.18-.1.33.05.45.15.93.73,1.86,1.48,2.79,2.22,1.59,1.26,2.41,3.16,3.79,4.6.59.61,1.24,1.05,2.14,1.35,1.48.5,2.65-.28,3.97-.41.2-.02.51-.14.46-.3-.29-.94.23-.62.67-.48.25.08.46-.04.59-.24.45-.71.91-1.43,1.35-2.15.67-1.08.79-2.39,1.56-3.41.27-.36.41-.8.51-1.25.06-.3.22-.69.53-.71.62-.04.85-.47,1.24-.82.43-.38.52-.73.5-1.23-.06-1.21.39-2.27,1-3.29.76-1.27.72-1.56-.33-2.51-.39-.35-.23-.59.13-.78.37-.2.76-.37,1.24-.61-.63-.43-1.03-.87-.62-1.61.11-.2.03-.58-.2-.68-.3-.13-.64.06-.83.31-.38.51-.82.94-1.29,1.35-.74.65-1.58,1.14-2.59,1.25.57-.26.96-.76,1.49-1.08,1.01-.61,1.52-1.57,1.81-2.68.08-.33.14-.71-.16-.95-.26-.21-.23-.31-.1-.61.23-.53-.06-1.11-.06-1.67,0-.15-.1-.27-.26-.29-.18-.02-.43.02-.43.18-.01.77-.74,1.4-.39,2.24.38.92.26,1.07-.75,1.01-.23-.01-.45-.06-.65.09-.21.16-.33.27-.39-.16-.06-.41-.56-.28-.79-.17-.55.25-.62,0-.75-.45-.15-.52-.2-1.05-.29-1.63-.51.11-1,.19-1.48.34-.25.07-.77.02-.36.59.16.21-.24.24-.39.31-1.26.57-2.62.7-3.96.94-.24.04-.59-.04-.65.27-.06.3.31.26.49.37.42.26.46.46-.04.67-.85.35-1.77.35-2.66.48-.33.05-.3-.26-.17-.49.11-.2.29-.39.07-.61-.18-.18-.37-.04-.55.04-.43.18-.73.02-1.05-.3-.6-.6-1.3-1.11-1.35-2.06,0-.1-.1-.2-.17-.29-.3-.48-.46-1.44-.26-1.86.16-.33.21-.79.84-.54.28.11.75-.02,1.01-.32,1.14-1.29,2.68-1.85,4.26-2.35.32-.1.61-.15.61-.65,0-.48.33-.19.53-.08.15.08.32.22.44.02.11-.19-.07-.31-.2-.41-.28-.2-.57-.36-.91-.45-.98-.26-1.1-.43-.82-1.41.14-.49.18-.86-.24-1.2-.23-.18-.25-.33.02-.59.45-.44.36-.86-.25-1.21-.69-.4-1.25-1.1-2.18-.63-.47-.65-1.35-.04-1.86-.59-.07-.07-.24-.12-.32-.08-1.15.62-2.36-.03-3.51.21-.51.11-.95.47-1.36.83-.47.41-.95.7-1.67.4-.77-.31-1.67-.22-2.42-.71-.15-.1-.47-.04-.65.06-.76.44-1.54.96-2.41.98-1.04.02-1.2,1.44-2.28,1.21-.01-.61-.5-1.19-.15-1.86.07-.14.01-.38.19-.43.75-.23.28-.89.45-1.33.09-.22-1.46-.65-1.76-.45-.28.18-.51.57-.95.21.32-.44.82-.7,1.24-.61.89.19,1.68.13,2.45-.38-.13-.08-.29-.18-.53-.33.6-.17.58-.89,1.13-1.09.07-.03.14-.18.02-.35-.48-.73-.26-1.45.16-2.1,1.16-1.77,2.22-3.61,3.85-5.06.78-.7,1.43-1.59,2.22-2.31.51-.46.99-.92,1.68-1.08.51-.11.62-.61.91-.94.68-.78,1.36-1.57,2.05-2.35.27-.3.63-.49,1-.64.91-.38.87-.41,1.44-.95.36-.34.85-.71,1.3-.75,1.25-.1,2.36-.71,3.61-.83,1.68-.16,3.24.07,4.58,1.08,1.45,1.08,3.05,1.23,4.75,1.11.42-.03.84-.08,1.27-.09-1.53.51-3.08.81-4.69.25.02.7.13,1.22.93,1.15.18-.02.34.11.41.27.52,1.09,1.48,1.89,2.3,2.66,1.42,1.33,2.31,3.13,3.92,4.25.17.12.23.27.31.45.15.33.25,1.03.88.29.28-.32.46.11.49.36.03.27.07.45.38.42.2-.02.43-.07.51-.26.13-.32-.23-.33-.37-.47-.25-.24-.67-.36-.61-.84q1.57,1.11,1.47,1.83c.68-.43,1.39-.09,2.08-.21.09-.02.29.09.29.1-.09.47.33.71.45,1.05.26.8.77,1.09,1.53.67.27-.15.52-.34.77-.52.17-.13.36-.25.52-.03.12.16.44.25.28.55-.21.4-.33.84.1,1.12.48.31.92.04,1.29-.32.05-.05.15-.04.25-.06.17.55-.52.63-.55,1.05.29.09.38-.2.57-.28.13-.05.37-.17.37-.1-.02,1.06,1.44.35,1.57,1.32.02.17.53.8,1.16.47.27-.14.4.1.25.38-.08.15-.43.21-.19.45.18.17.43.09.65.02.23-.07.37-.25.5-.44.26-.37.56-.6.76.01.13.4.58.15.75.45-.25.34-.69.24-.98.45-.16.11-.4.17-.27.44.09.17.34.24.44.15.7-.64,1.21,0,1.78.22,0,13.01,0,26.02.02,39.03,0,.58-.11.72-.7.7-1.36-.06-2.73-.02-4.09-.02-.12-.36-.08-.72-.05-1.1.22-2.8.21-5.61.13-8.42-.05-1.68-.51-3.29-.53-4.97,0-.72-.08-1.6-.71-2.22-.25-.25-.55-.45-.78-.11-.39.57-.99,1-1.19,1.71-.15.53-.12,1.31-1.08.95-.06-.02-.2.09-.27.17-.5.66-1.37.77-1.93,1.36-.33.35-.74.02-1.09-.16-.16-.08-.1-.17-.06-.33.47-1.82.4-3.67-.06-5.46-.17-.66-.24-1.14.13-1.7.19-.28.31-.6.58-.83.16-.14.28-.34.08-.51-.2-.17-.39-.03-.48.17-.18.39-.54.54-.98.81.11-.37.18-.64.26-.9.07-.22.41-.47.07-.65-.35-.19-.39.19-.46.42-.14.42-.62.49-.82.83-.07.12-.23.13-.27.01-.19-.46-.81-.65-.76-1.25.01-.15.03-.31-.16-.32-.23-.02-.31.19-.26.34.15.48-.13.89-.16,1.33-.06.75-.55.16-.81.27-.44.19.31.81-.29.84-.94.06-.5.44-.26.84.14.23.55.19.5.6-.19,1.48.23,2.96,0,4.45-.03.18-.11.47.27.54.25-.49.18-1.05.32-1.56.02.91.03,1.82-.04,2.72-.05.68-.24,1.49.62,1.92-.41,1.13.52,2.14.29,3.26-.04.18-.01.37.21.38.16,0,.22-.14.25-.29.11-.64.32-1.28.32-1.91-.02-1.7.12-3.38.19-5.07.03-.73-.17-1.63,1.07-1.58-.23.98.03,2.04-.21,3.16-.25-.31.03-.65-.26-.84-.47.85.34,1.31.51,1.95.04.17.04.37.25.39.28.02.27-.22.31-.41.05-.23,0-.64.38-.47.93.4,1.77.37,2.57-.27.12-.1.27-.05.39.05.14.12.18.29.14.47-.06.28-.27.41-.51.53-.7.36-1.65.2-2.11,1.06-.03.05-.2.09-.23.06-.6-.64-.61.16-.84.39-.37-.23-.51-.66-.92-.77-.17.31.39.66-.03.92-.7.44-.18.55.1.94.31.43,1.49.61.58,1.7-.44.54-1.09,1.2-1.11,2.07,0,.07-.15.14-.37.32.09-.66-.31-.98-.63-1.23-.75-.58-1.46-1.16-1.89-2.02-.11-.22-.33-.24-.5-.08-.56.5-1.2.93-1.63,1.57-.95.03-1.89.29-2.85.08-.17-.04-.51.05-.4.38.1.29.32.72.61.57.61-.31,1.25-.18,1.86-.3.46-.09.68-.33.76-.75.8.34,1.61.63,2.63-.06-.32.69-.38,1.01.35,1.12.34.05.66.59.88.97.16.26.03.82-.27.72-.67-.22-.88.25-1.24.55-.16.13-.38.24-.54.07-.8-.85-1.83-.57-2.8-.6-.66-.03-1.08.2-1.17.92-.05.4-.03.95-.54,1.07-.72.18-.63.67-.56,1.18h-15ZM1208.96,38.19c.08.08.18.15.24.24.18.26.11.83.5.79.48-.06.36-.62.45-.99.02-.08.02-.17.02-.25.04-1.5.3-2.95,1.01-4.3.23-.44.38-1.72.29-2.05-.57,1.34-1.47,2.52-1.42,4.1-.58-.3-.33-.74-.42-1.07-.07-.24.23-.64-.15-.73-.37-.09-.55.29-.71.6-.28.53-.4,1.05-.17,1.62-1,.54.02.85.14,1.26.08.27.16.54.25.81-.11-.04-.21-.08-.32-.12-.33-.11-.45-.79-.85-.5-.44.32-.01.77.11,1.15.04.13.1.27.19.38.19.23.33.64.69.51.33-.12.12-.5.14-.76.02-.22,0-.45,0-.68ZM1193.35,4.27c-.09.23-.12.53-.29.68-.57.54-.11.75.3.81,1.55.22,2.87.96,4.16,1.75.46.28.85.17,1.24.04.19-.07.37-.31.59-.18.19.11.25.03.31-.1.08-.17-.04-.25-.16-.33-1.63-1.09-3.44-1.74-5.38-1.88-.72-.05-.93-.08-.77-.8ZM1189.33,61.34c-.1-.52-.2-1.15-.35-1.77-.12-.51-.5-.71-1-.73-.58-.02-.48.45-.57.77-.27.96.19,1.69.78,2.36.21.24.44.61.83.46.45-.17.28-.61.31-1.08ZM1204.94,39.61c.57-.42.63-.99.85-1.49.13-.29.22-.47-.15-.56-.3-.07-.55.09-.52.39.05.54-.15,1.04-.18,1.66ZM1188.38,7.49c-.05-.24.03-.55-.34-.47-.27.06-.71.19-.56.44.15.26-.07.75.34.76.46.01.5-.42.56-.73ZM1193.73,36.07c-.35-.39-.51-.83-1.01-.65-.21.07-.32.29-.21.48.28.48.69.27,1.22.18ZM1209.69,33.44c.75-.29.7-.93.74-1.54-.53.38-.49,1.02-.74,1.54ZM1209.51,55.85c-.16-.23-.12-.62-.51-.68-.19-.03-.31.14-.31.32,0,.31.14.55.46.62.18.04.34-.02.36-.26ZM1205.85,53.99c.19.39-.24.78.14,1.06.2.14.41-.13.47-.34.13-.42-.13-.59-.61-.71Z"/>
    <path class="cls-1" d="M1224.98,5.12c-1.98-.43-3.04.91-4.3,2.05-.57.51-.45,1.36-1.16,1.69-.21.1-.42.47-.56.05-.12-.37-.21-.73-.62-.61-.5.14-.17.56-.15.87,0,.12.03.22-.16.3-.35-.27-.39-.82-.39-1.11,0-.97-.44-1.07-1.24-.71,0-.51.45-.7.44-1.09,0-.16.1-.36-.07-.47-.17-.11-.32,0-.44.14-.19.21-.39.41-.68.48-.31.08-.53.06-.39-.36.07-.21.25-.45,0-.61-.23-.15-.41.08-.61.17-.17.08-.3.28-.59.18.4-.96,1.3-1.21,2.12-1.4,1.7-.41,2.39-1.52,2.5-3.14,1.96,0,3.92.01,5.88-.01.37,0,.45.07.44.44-.03,1.05-.01,2.1-.01,3.15Z"/>
    <path class="cls-1" d="M1175.38,62.9c.93-1.09,1.82-2.21,2.8-3.24.57-.6.97-1.37,1.75-1.77.4-.21.55-.67.65-1.06.23-.92.97-1.24,1.86-1.81-.4.9.49,1.2.4,1.91-.08.57-.37,1.21.3,1.77.26.21.15.76-.49.75-.96-.01-1.8.18-2.08,1.31-.12.47-.67.58-1,.88-.38.35-.69.39-1.06-.02-.16-.17-.35-.03-.44.2-.14.37-.31.73-.47,1.09h-2.22Z"/>
    <path class="cls-1" d="M1182.37,62.9c0-.51.09-1.02.31-1.48.12-.24.34-.39.62-.37.38.03.21.32.21.52.01.33.17.58.5.56.55-.04.32-.55.44-.9.75.42.34,1.13.48,1.68h-2.56Z"/>
    <path class="cls-1" d="M1190.22,51.84c.79-.26,1.61-.4,2.37-.23.82.18.88-.14.72-.85.62.28,1.11.28,1.35-.4.03-.08.08-.22.1-.22.84.12,1.15-.64,1.71-.96.64-.37.58-1.1,1.14-1.43.16-.1.04-.5-.14-.7-.21-.23-.4-.01-.61.04-1.17.32-2.12,1.08-3.21,1.55-1.62.69-3.26,1.32-5.08.88-.4-.1-.59.04-.5.5.07.35.27.68.16,1.06-.08,0-.15,0-.18-.02-.56-.45-1.04-.4-1.49.14-.29.36-.58.1-.81-.07-.51-.35-.91-.9-1.56-.99-.74-.1-1.2-.61-1.74-1.01-.17-.13-.43-.33-.31-.43.8-.64-.01-1.51.35-2.21.37-.7.64-1.45.95-2.18.04-.1.11-.21.19-.28.29-.21.59-.63.92-.5.35.13.15.61.14.92-.05,1.66.09,1.86,1.65,2.36.32.1.67.21.93.41.68.53,1.47-.01,2.19.28.18.07.48-.31.51-.6.08-.78.54-1.2,1.2-1.52.54-.26,1.05-.56,1.57-.85.29-.16.74-.3.52-.72-.18-.35-.47-.71-1.02-.51-.37.13-.77.19-1.07.47-.35.33-.61.23-.8-.16-.21-.42-.35-1.13.08-1.18.69-.09,1.08-.67,1.76-.7,1.33-.06,2.46.41,3.47,1.18.55.41,1.37.45,1.67,1.19.02.04.1.08.15.07.87-.12,1.63.03,2.19.8.08.11.33.13.48.02.67-.51.72.28,1,.5.33.27,0,.48-.22.66-.3.24-.24.49-.11.83.25.63.74,1.16.75,1.88,0,.19.06.46-.16.52-.32.09-.4-.27-.39-.43.09-.9-.83-.99-1.22-1.49-.33-.43-1.12.13-1.37,1.04-.48,1.79-1.54,3.23-2.7,4.62-.46.55-1.18.49-1.8.67-.9.26-1.81.51-2.76.32-.25-.05-.51-.07-.7-.28-.13-.15-.25-.32-.17-.54.08-.2.26-.17.44-.17.93-.03,1.85-.04,2.78-.11.84-.06,1.2-.89,1.85-1.27.14-.08.06-.26-.07-.36-.18-.15-.37-.1-.55.02-.57.38-1.18.68-1.85.84-.96.22-1.88.11-2.73-.4ZM1190.4,49.02c.46.07.64-.15.86-.26.73-.36,1.34-.96,2.21-1.03.96-.08,1.61-.52,2.19-1.37.46-.68.22-1.03-.15-1.44-.44-.51-.87-.13-1.27.13-.28.18-.4.58-.8.58-.97,0-1.37.61-1.59,1.45-.23.88-.68,1.13-1.51.85-.16-.06-.33-.17-.48-.07-.93.6-1.81.33-2.68-.13-.23-.12-.32.05-.34.23-.04.41.05.72.56.77,1.06.09,2.12.21,3.01.29Z"/>
    <path class="cls-1" d="M1184.42,40.48c-.34.53-.77.81-1.17,1.11-.48.36-.98.58-1.27-.27-.13-.39-.49-.2-.73-.13-.41.11-.81.27-1.24.22-.12-.01-.39-.1-.28-.17.37-.23-.35-.47.05-.65.25-.12.78-.13.56-.54-.21-.4-.97-.41-1.12-.22-.64.76-.94.01-1.2-.25-.75-.77-.74-2.5-.15-3.39.42-.63,1.04-.9,1.68-.76.93.2,1.84.2,2.77.2.19,0,.42.01.57.11.76.52,1.3.33,1.69-.46.06-.13.18-.24.34-.12.11.08.09.19.02.3-.46.74-.2,1.42.22,2.04.75,1.14.48,2.2-.12,3.27-.09.16-.19.41-.42.3-.1-.04-.1-.29-.19-.59Z"/>
    <path class="cls-1" d="M1203.43,49.93c-.57-.92-.15-1.7-.15-2.46,0-.79.09-1.57-.01-2.4.54.57.57,1.54.16,4.86Z"/>
    <path class="cls-1" d="M1181.81,10.61c.84-.93,1.68-1.85,2.51-2.78.05.05.11.1.16.15-.71,1.04-1.55,1.97-2.45,2.84l-.22-.2Z"/>
    <path class="cls-1" d="M1171.71,24.81c.46-.35.27-1.27,1.13-.87.24.11.2.23.13.39-.22.5-.65.53-1.26.48Z"/>
    <path class="cls-1" d="M1177,14.46c.29,1.01-.55,1.53-.78,2.27.08-.8.32-1.54.78-2.27Z"/>
    <path class="cls-1" d="M1213.68,5.67c-.47.34-.72.84-1.18.57-.34-.2.09-.41.19-.58.33-.56.56,0,.99.02Z"/>
    <path class="cls-1" d="M1172.52,29.83c-.14.62-.23,1.25-.32,1.87-.23-.66-.37-1.32.32-1.87Z"/>
    <path class="cls-1" d="M1202.43,44.04c-.05-.43.19-.57.35-.75.11-.12.26-.26.43-.14.1.07.19.24.17.35-.04.29-.27.03-.38.1-.18.11-.33.26-.57.44Z"/>
    <path class="cls-1" d="M1185.09,7.75c.12-.66.44-1.1,1.23-1.14-.47.43-.85.79-1.23,1.14Z"/>
    <path class="cls-1" d="M1210,48.49c-.32.39-.14.85-.28,1.32-.25-.69-.17-1.34-.26-1.95.32-.18.52.24.85.02.22-.16.31.12.28.34-.18,1.39-.28,2.79-.33,4.21-.17-1.31.05-2.64-.25-3.94Z"/>
  </g>
</svg>